<mxfile host="65bd71144e">
    <diagram id="GvPcuImVZgzJP4J6IXKm" name="Page-1">
        <mxGraphModel dx="8154" dy="11192" grid="0" gridSize="10" guides="1" tooltips="1" connect="1" arrows="1" fold="1" page="0" pageScale="1" pageWidth="850" pageHeight="1100" math="0" shadow="0">
            <root>
                <mxCell id="0"/>
                <mxCell id="1" parent="0"/>
                <mxCell id="2" value="Student" style="ellipse;whiteSpace=wrap;html=1;fillColor=#008a00;fontColor=#ffffff;strokeColor=#005700;" parent="1" vertex="1">
                    <mxGeometry x="100" y="510" width="60" height="60" as="geometry"/>
                </mxCell>
                <mxCell id="3" value="Section" style="ellipse;whiteSpace=wrap;html=1;fillColor=#008a00;fontColor=#ffffff;strokeColor=#005700;" parent="1" vertex="1">
                    <mxGeometry x="280" y="510" width="60" height="60" as="geometry"/>
                </mxCell>
                <mxCell id="5" value="" style="endArrow=classicThin;endFill=1;endSize=10;html=1;exitX=1;exitY=0.5;exitDx=0;exitDy=0;entryX=0;entryY=0.5;entryDx=0;entryDy=0;startArrow=classicThin;startFill=1;startSize=10;targetPerimeterSpacing=0;" parent="1" source="2" target="3" edge="1">
                    <mxGeometry width="160" relative="1" as="geometry">
                        <mxPoint x="150" y="530" as="sourcePoint"/>
                        <mxPoint x="220" y="540" as="targetPoint"/>
                    </mxGeometry>
                </mxCell>
                <mxCell id="6" value="N" style="edgeLabel;html=1;align=center;verticalAlign=middle;resizable=0;points=[];" parent="5" vertex="1" connectable="0">
                    <mxGeometry x="-0.6" relative="1" as="geometry">
                        <mxPoint as="offset"/>
                    </mxGeometry>
                </mxCell>
                <mxCell id="7" value="N" style="edgeLabel;html=1;align=center;verticalAlign=middle;resizable=0;points=[];" parent="5" vertex="1" connectable="0">
                    <mxGeometry x="0.6" relative="1" as="geometry">
                        <mxPoint as="offset"/>
                    </mxGeometry>
                </mxCell>
                <mxCell id="9" value="Many to Many relationship&lt;br&gt;&lt;br&gt;1 student has many sections&lt;br&gt;1 section has many students" style="text;html=1;align=center;verticalAlign=top;whiteSpace=wrap;rounded=0;fillColor=#a20025;fontColor=#ffffff;strokeColor=#6F0000;" parent="1" vertex="1">
                    <mxGeometry x="130" y="430" width="190" height="70" as="geometry"/>
                </mxCell>
                <mxCell id="13" style="edgeStyle=none;html=1;exitX=0.5;exitY=1;exitDx=0;exitDy=0;entryX=0.5;entryY=0;entryDx=0;entryDy=0;" parent="1" source="10" target="12" edge="1">
                    <mxGeometry relative="1" as="geometry"/>
                </mxCell>
                <mxCell id="64" style="edgeStyle=none;html=1;exitX=0.5;exitY=1;exitDx=0;exitDy=0;entryX=0.5;entryY=0;entryDx=0;entryDy=0;fontColor=#FFFFFF;" parent="1" source="10" target="63" edge="1">
                    <mxGeometry relative="1" as="geometry"/>
                </mxCell>
                <mxCell id="10" value="EventListener" style="rounded=1;whiteSpace=wrap;html=1;fillColor=#008a00;fontColor=#ffffff;strokeColor=#005700;" parent="1" vertex="1">
                    <mxGeometry x="230" y="-730" width="120" height="60" as="geometry"/>
                </mxCell>
                <mxCell id="12" value="Check Hover" style="ellipse;whiteSpace=wrap;html=1;fillColor=#1ba1e2;fontColor=#ffffff;strokeColor=#006EAF;" parent="1" vertex="1">
                    <mxGeometry x="330" y="-620" width="120" height="80" as="geometry"/>
                </mxCell>
                <mxCell id="32" style="edgeStyle=none;html=1;exitX=0.5;exitY=1;exitDx=0;exitDy=0;entryX=0.5;entryY=0;entryDx=0;entryDy=0;fontColor=#FFFFFF;strokeWidth=2;" parent="1" source="14" target="31" edge="1">
                    <mxGeometry relative="1" as="geometry"/>
                </mxCell>
                <mxCell id="99" style="edgeStyle=none;html=1;exitX=0.5;exitY=1;exitDx=0;exitDy=0;entryX=0.5;entryY=0;entryDx=0;entryDy=0;strokeColor=#FFFFFF;strokeWidth=2;fontSize=18;fontColor=#FFFFFF;" parent="1" source="14" target="98" edge="1">
                    <mxGeometry relative="1" as="geometry"/>
                </mxCell>
                <mxCell id="14" value="Widget Slider" style="rounded=1;whiteSpace=wrap;html=1;fillColor=#008a00;fontColor=#ffffff;strokeColor=#005700;" parent="1" vertex="1">
                    <mxGeometry x="-210" y="-730" width="120" height="60" as="geometry"/>
                </mxCell>
                <mxCell id="21" style="edgeStyle=none;html=1;exitX=1;exitY=0.5;exitDx=0;exitDy=0;entryX=0;entryY=0.5;entryDx=0;entryDy=0;" parent="1" source="16" target="23" edge="1">
                    <mxGeometry relative="1" as="geometry"/>
                </mxCell>
                <mxCell id="16" value="Create Hover event" style="shape=hexagon;perimeter=hexagonPerimeter2;whiteSpace=wrap;html=1;fixedSize=1;fillColor=#d80073;fontColor=#ffffff;strokeColor=#A50040;" parent="1" vertex="1">
                    <mxGeometry x="330" y="-352.5" width="120" height="50" as="geometry"/>
                </mxCell>
                <mxCell id="20" style="edgeStyle=none;html=1;exitX=0.5;exitY=1;exitDx=0;exitDy=0;entryX=0.5;entryY=0;entryDx=0;entryDy=0;" parent="1" source="18" target="19" edge="1">
                    <mxGeometry relative="1" as="geometry"/>
                </mxCell>
                <mxCell id="24" style="edgeStyle=none;html=1;exitX=0.5;exitY=1;exitDx=0;exitDy=0;entryX=0.5;entryY=0;entryDx=0;entryDy=0;" parent="1" source="18" target="23" edge="1">
                    <mxGeometry relative="1" as="geometry"/>
                </mxCell>
                <mxCell id="18" value="Events" style="rounded=1;whiteSpace=wrap;html=1;fillColor=#008a00;fontColor=#ffffff;strokeColor=#005700;" parent="1" vertex="1">
                    <mxGeometry x="620" y="-730" width="120" height="60" as="geometry"/>
                </mxCell>
                <mxCell id="29" style="edgeStyle=none;html=1;exitX=0.5;exitY=1;exitDx=0;exitDy=0;entryX=0.5;entryY=0;entryDx=0;entryDy=0;" parent="1" source="19" target="28" edge="1">
                    <mxGeometry relative="1" as="geometry"/>
                </mxCell>
                <mxCell id="19" value="Handle Events" style="ellipse;whiteSpace=wrap;html=1;fillColor=#1ba1e2;fontColor=#ffffff;strokeColor=#006EAF;" parent="1" vertex="1">
                    <mxGeometry x="720" y="-450" width="120" height="80" as="geometry"/>
                </mxCell>
                <mxCell id="27" style="edgeStyle=none;html=1;exitX=0.5;exitY=1;exitDx=0;exitDy=0;entryX=0.5;entryY=0;entryDx=0;entryDy=0;" parent="1" source="22" target="25" edge="1">
                    <mxGeometry relative="1" as="geometry"/>
                </mxCell>
                <mxCell id="22" value="If Hover &lt;br&gt;and&lt;br&gt;clicked&amp;nbsp;" style="rhombus;whiteSpace=wrap;html=1;fillColor=#a20025;fontColor=#ffffff;strokeColor=#6F0000;" parent="1" vertex="1">
                    <mxGeometry x="560" y="-340" width="80" height="80" as="geometry"/>
                </mxCell>
                <mxCell id="26" style="edgeStyle=none;html=1;exitX=0.5;exitY=1;exitDx=0;exitDy=0;entryX=0.5;entryY=0;entryDx=0;entryDy=0;" parent="1" source="23" target="22" edge="1">
                    <mxGeometry relative="1" as="geometry">
                        <mxPoint x="610" y="-340" as="targetPoint"/>
                    </mxGeometry>
                </mxCell>
                <mxCell id="23" value="Register Events" style="ellipse;whiteSpace=wrap;html=1;fillColor=#1ba1e2;fontColor=#ffffff;strokeColor=#006EAF;" parent="1" vertex="1">
                    <mxGeometry x="540" y="-450" width="120" height="80" as="geometry"/>
                </mxCell>
                <mxCell id="25" value="Create grab event" style="shape=hexagon;perimeter=hexagonPerimeter2;whiteSpace=wrap;html=1;fixedSize=1;fillColor=#d80073;fontColor=#ffffff;strokeColor=#A50040;" parent="1" vertex="1">
                    <mxGeometry x="540" y="-240" width="120" height="50" as="geometry"/>
                </mxCell>
                <mxCell id="36" style="edgeStyle=none;html=1;exitX=0.5;exitY=1;exitDx=0;exitDy=0;entryX=1;entryY=0.5;entryDx=0;entryDy=0;fontColor=#FFFFFF;startArrow=none;" parent="1" source="58" edge="1">
                    <mxGeometry relative="1" as="geometry">
                        <mxPoint x="1050" y="-127.5" as="targetPoint"/>
                    </mxGeometry>
                </mxCell>
                <mxCell id="28" value="Hande grab event" style="shape=hexagon;perimeter=hexagonPerimeter2;whiteSpace=wrap;html=1;fixedSize=1;fillColor=#d80073;fontColor=#ffffff;strokeColor=#A50040;" parent="1" vertex="1">
                    <mxGeometry x="720" y="-320" width="120" height="50" as="geometry"/>
                </mxCell>
                <mxCell id="38" style="edgeStyle=none;html=1;exitX=0.5;exitY=1;exitDx=0;exitDy=0;fontColor=#FFFFFF;entryX=0.5;entryY=0;entryDx=0;entryDy=0;strokeWidth=2;" parent="1" source="14" target="37" edge="1">
                    <mxGeometry relative="1" as="geometry">
                        <mxPoint x="10" y="-460" as="targetPoint"/>
                    </mxGeometry>
                </mxCell>
                <mxCell id="31" value="Set Event listener" style="ellipse;whiteSpace=wrap;html=1;fillColor=#1ba1e2;fontColor=#ffffff;strokeColor=#006EAF;" parent="1" vertex="1">
                    <mxGeometry x="-40" y="-620" width="120" height="80" as="geometry"/>
                </mxCell>
                <mxCell id="50" style="edgeStyle=none;html=1;exitX=0.5;exitY=1;exitDx=0;exitDy=0;entryX=0.5;entryY=0;entryDx=0;entryDy=0;fontColor=#FFFFFF;startArrow=none;" parent="1" source="81" target="45" edge="1">
                    <mxGeometry relative="1" as="geometry"/>
                </mxCell>
                <mxCell id="37" value="&lt;div style=&quot;color: rgb(204, 204, 204); background-color: rgb(21, 21, 21); font-family: Consolas, &amp;quot;Courier New&amp;quot;, monospace; font-size: 14px; line-height: 19px;&quot;&gt;&lt;span style=&quot;color: #0582ff;&quot;&gt;Slider_on_update_handle&lt;/span&gt;&lt;/div&gt;" style="ellipse;whiteSpace=wrap;html=1;fillColor=#1ba1e2;fontColor=#ffffff;strokeColor=#006EAF;" parent="1" vertex="1">
                    <mxGeometry x="-280" y="-495" width="210" height="80" as="geometry"/>
                </mxCell>
                <mxCell id="34" value="&lt;font color=&quot;#ffffff&quot;&gt;Bar&lt;br&gt;handle&lt;br&gt;value text&lt;br&gt;&lt;/font&gt;" style="shape=or;whiteSpace=wrap;html=1;fillColor=#f0a30a;fontColor=#000000;strokeColor=#BD7000;" parent="1" vertex="1">
                    <mxGeometry x="390" y="-52.5" width="70" height="55" as="geometry"/>
                </mxCell>
                <mxCell id="41" value="" style="edgeStyle=none;html=1;exitX=1;exitY=0.5;exitDx=0;exitDy=0;entryX=0;entryY=0.5;entryDx=0;entryDy=0;fontColor=#FFFFFF;endArrow=none;" parent="1" source="31" target="63" edge="1">
                    <mxGeometry relative="1" as="geometry">
                        <mxPoint x="190" y="-580" as="sourcePoint"/>
                        <mxPoint x="330" y="-700" as="targetPoint"/>
                        <Array as="points"/>
                    </mxGeometry>
                </mxCell>
                <mxCell id="30" value="&lt;font color=&quot;#ffffff&quot;&gt;Bar&lt;br&gt;handle&lt;br&gt;value text&lt;br&gt;&lt;/font&gt;" style="shape=or;whiteSpace=wrap;html=1;fillColor=#f0a30a;fontColor=#000000;strokeColor=#BD7000;" parent="1" vertex="1">
                    <mxGeometry x="75" y="-920" width="95" height="73" as="geometry"/>
                </mxCell>
                <mxCell id="42" value="&lt;font color=&quot;#ffffff&quot;&gt;CallBack()&lt;br&gt;&lt;/font&gt;&lt;div style=&quot;background-color: rgb(21, 21, 21); font-family: Consolas, &amp;quot;Courier New&amp;quot;, monospace; font-size: 14px; line-height: 19px;&quot;&gt;&lt;font color=&quot;#0582ff&quot;&gt;Connect_to_X_function&lt;/font&gt;&lt;/div&gt;" style="shape=dataStorage;whiteSpace=wrap;html=1;fixedSize=1;fontColor=#000000;fillColor=#fa6800;strokeColor=#C73500;" parent="1" vertex="1">
                    <mxGeometry x="490" y="-65" width="220" height="80" as="geometry"/>
                </mxCell>
                <mxCell id="45" value="Do stuf" style="swimlane;fontStyle=0;childLayout=stackLayout;horizontal=1;startSize=30;horizontalStack=0;resizeParent=1;resizeParentMax=0;resizeLast=0;collapsible=1;marginBottom=0;whiteSpace=wrap;html=1;fontColor=#000000;fillColor=#fa6800;strokeColor=#C73500;" parent="1" vertex="1">
                    <mxGeometry x="-285" y="-165" width="220" height="180" as="geometry"/>
                </mxCell>
                <mxCell id="46" value="Item 1" style="text;strokeColor=#314354;fillColor=#647687;align=left;verticalAlign=middle;spacingLeft=4;spacingRight=4;overflow=hidden;points=[[0,0.5],[1,0.5]];portConstraint=eastwest;rotatable=0;whiteSpace=wrap;html=1;fontColor=#ffffff;" parent="45" vertex="1">
                    <mxGeometry y="30" width="220" height="50" as="geometry"/>
                </mxCell>
                <mxCell id="47" value="Item 2" style="text;strokeColor=#314354;fillColor=#647687;align=left;verticalAlign=middle;spacingLeft=4;spacingRight=4;overflow=hidden;points=[[0,0.5],[1,0.5]];portConstraint=eastwest;rotatable=0;whiteSpace=wrap;html=1;fontColor=#ffffff;" parent="45" vertex="1">
                    <mxGeometry y="80" width="220" height="50" as="geometry"/>
                </mxCell>
                <mxCell id="48" value="&lt;font style=&quot;text-align: center;&quot; color=&quot;#ffffff&quot;&gt;&lt;br&gt;&lt;/font&gt;&lt;div style=&quot;color: rgb(0, 0, 0); text-align: center; background-color: rgb(21, 21, 21); font-family: Consolas, &amp;quot;Courier New&amp;quot;, monospace; font-size: 14px; line-height: 19px;&quot;&gt;&lt;font color=&quot;#0582ff&quot;&gt;Connect_to_X_function&lt;/font&gt;&lt;/div&gt;" style="text;strokeColor=#314354;fillColor=#647687;align=left;verticalAlign=middle;spacingLeft=4;spacingRight=4;overflow=hidden;points=[[0,0.5],[1,0.5]];portConstraint=eastwest;rotatable=0;whiteSpace=wrap;html=1;fontColor=#ffffff;" parent="45" vertex="1">
                    <mxGeometry y="130" width="220" height="50" as="geometry"/>
                </mxCell>
                <mxCell id="53" style="edgeStyle=none;html=1;exitX=0.5;exitY=1;exitDx=0;exitDy=0;entryX=0.5;entryY=0;entryDx=0;entryDy=0;fontColor=#FFFFFF;strokeWidth=2;" parent="1" source="51" target="52" edge="1">
                    <mxGeometry relative="1" as="geometry"/>
                </mxCell>
                <mxCell id="97" style="edgeStyle=none;html=1;exitX=0.5;exitY=1;exitDx=0;exitDy=0;entryX=0.5;entryY=0;entryDx=0;entryDy=0;strokeColor=#FFFFFF;strokeWidth=2;fontSize=18;fontColor=#FFFFFF;" parent="1" source="51" target="96" edge="1">
                    <mxGeometry relative="1" as="geometry"/>
                </mxCell>
                <mxCell id="51" value="Widget Text Label" style="rounded=1;whiteSpace=wrap;html=1;fillColor=#008a00;fontColor=#ffffff;strokeColor=#005700;" parent="1" vertex="1">
                    <mxGeometry x="-690" y="-740" width="120" height="60" as="geometry"/>
                </mxCell>
                <mxCell id="90" style="edgeStyle=none;html=1;exitX=0.5;exitY=1;exitDx=0;exitDy=0;entryX=0.5;entryY=0;entryDx=0;entryDy=0;fontColor=#FFFFFF;strokeWidth=2;" parent="1" source="52" target="89" edge="1">
                    <mxGeometry relative="1" as="geometry"/>
                </mxCell>
                <mxCell id="52" value="Change Color" style="ellipse;whiteSpace=wrap;html=1;fillColor=#1ba1e2;fontColor=#ffffff;strokeColor=#006EAF;" parent="1" vertex="1">
                    <mxGeometry x="-690" y="-302.5" width="120" height="80" as="geometry"/>
                </mxCell>
                <mxCell id="54" style="edgeStyle=none;html=1;exitX=0;exitY=0.5;exitDx=0;exitDy=0;entryX=1;entryY=0.5;entryDx=0;entryDy=0;fontColor=#FFFFFF;" parent="1" source="48" target="52" edge="1">
                    <mxGeometry relative="1" as="geometry"/>
                </mxCell>
                <mxCell id="56" value="" style="edgeStyle=none;html=1;exitX=0.5;exitY=1;exitDx=0;exitDy=0;entryX=0.5;entryY=0;entryDx=0;entryDy=0;fontColor=#FFFFFF;endArrow=none;" parent="1" source="28" target="55" edge="1">
                    <mxGeometry relative="1" as="geometry">
                        <mxPoint x="780" y="-270" as="sourcePoint"/>
                        <mxPoint x="780" y="-145" as="targetPoint"/>
                    </mxGeometry>
                </mxCell>
                <mxCell id="59" style="edgeStyle=none;html=1;exitX=1;exitY=0.5;exitDx=0;exitDy=0;entryX=0;entryY=0.5;entryDx=0;entryDy=0;fontColor=#FFFFFF;startArrow=none;" parent="1" target="58" edge="1">
                    <mxGeometry relative="1" as="geometry">
                        <mxPoint x="1050" y="-127.5" as="sourcePoint"/>
                    </mxGeometry>
                </mxCell>
                <mxCell id="55" value="Create Interval" style="shape=hexagon;perimeter=hexagonPerimeter2;whiteSpace=wrap;html=1;fixedSize=1;fontColor=#ffffff;fillColor=#6a00ff;strokeColor=#3700CC;" parent="1" vertex="1">
                    <mxGeometry x="720" y="-215" width="120" height="80" as="geometry"/>
                </mxCell>
                <mxCell id="60" style="edgeStyle=none;html=1;exitX=0.5;exitY=1;exitDx=0;exitDy=0;entryX=0.5;entryY=0;entryDx=0;entryDy=0;fontColor=#FFFFFF;" parent="1" source="57" target="58" edge="1">
                    <mxGeometry relative="1" as="geometry"/>
                </mxCell>
                <mxCell id="57" value="Time Intervals" style="rounded=1;whiteSpace=wrap;html=1;fillColor=#008a00;fontColor=#ffffff;strokeColor=#005700;" parent="1" vertex="1">
                    <mxGeometry x="1020" y="-720" width="120" height="60" as="geometry"/>
                </mxCell>
                <mxCell id="62" style="edgeStyle=none;html=1;exitX=0.5;exitY=1;exitDx=0;exitDy=0;entryX=0.5;entryY=1;entryDx=0;entryDy=0;fontColor=#FFFFFF;strokeWidth=2;" parent="1" source="58" target="37" edge="1">
                    <mxGeometry relative="1" as="geometry">
                        <Array as="points">
                            <mxPoint x="300" y="-140"/>
                        </Array>
                    </mxGeometry>
                </mxCell>
                <mxCell id="58" value="Run Intervals" style="ellipse;whiteSpace=wrap;html=1;fillColor=#1ba1e2;fontColor=#ffffff;strokeColor=#006EAF;" parent="1" vertex="1">
                    <mxGeometry x="1030" y="-155" width="120" height="80" as="geometry"/>
                </mxCell>
                <mxCell id="61" value="" style="edgeStyle=none;html=1;exitX=1;exitY=0.5;exitDx=0;exitDy=0;entryX=0;entryY=0.5;entryDx=0;entryDy=0;fontColor=#FFFFFF;endArrow=none;" parent="1" source="55" target="58" edge="1">
                    <mxGeometry relative="1" as="geometry">
                        <mxPoint x="840" y="-175" as="sourcePoint"/>
                        <mxPoint x="860" y="-90" as="targetPoint"/>
                    </mxGeometry>
                </mxCell>
                <mxCell id="63" value="Create listener" style="ellipse;whiteSpace=wrap;html=1;fillColor=#1ba1e2;fontColor=#ffffff;strokeColor=#006EAF;" parent="1" vertex="1">
                    <mxGeometry x="150" y="-620" width="120" height="80" as="geometry"/>
                </mxCell>
                <mxCell id="67" value="" style="edgeStyle=none;html=1;exitX=0.5;exitY=1;exitDx=0;exitDy=0;entryX=0.5;entryY=0;entryDx=0;entryDy=0;endArrow=none;" parent="1" source="12" target="66" edge="1">
                    <mxGeometry relative="1" as="geometry">
                        <mxPoint x="390" y="-550" as="sourcePoint"/>
                        <mxPoint x="390" y="-435" as="targetPoint"/>
                    </mxGeometry>
                </mxCell>
                <mxCell id="70" style="edgeStyle=none;html=1;exitX=0;exitY=0.5;exitDx=0;exitDy=0;entryX=1;entryY=0.5;entryDx=0;entryDy=0;fontColor=#FFFFFF;" parent="1" source="66" target="69" edge="1">
                    <mxGeometry relative="1" as="geometry"/>
                </mxCell>
                <mxCell id="76" style="edgeStyle=none;html=1;fontColor=#FFFFFF;exitX=0.5;exitY=1;exitDx=0;exitDy=0;" parent="1" source="66" target="68" edge="1">
                    <mxGeometry relative="1" as="geometry">
                        <mxPoint x="430" y="-490" as="sourcePoint"/>
                    </mxGeometry>
                </mxCell>
                <mxCell id="66" value="If Hover" style="rhombus;whiteSpace=wrap;html=1;fillColor=#a20025;fontColor=#ffffff;strokeColor=#6F0000;" parent="1" vertex="1">
                    <mxGeometry x="350" y="-530" width="80" height="80" as="geometry"/>
                </mxCell>
                <mxCell id="77" style="edgeStyle=none;html=1;exitX=0.5;exitY=1;exitDx=0;exitDy=0;entryX=0.5;entryY=0;entryDx=0;entryDy=0;fontColor=#FFFFFF;" parent="1" source="68" target="16" edge="1">
                    <mxGeometry relative="1" as="geometry"/>
                </mxCell>
                <mxCell id="68" value="Yes" style="ellipse;whiteSpace=wrap;html=1;aspect=fixed;fontColor=#ffffff;fillColor=#a20025;strokeColor=#6F0000;" parent="1" vertex="1">
                    <mxGeometry x="365" y="-420" width="50" height="50" as="geometry"/>
                </mxCell>
                <mxCell id="73" style="edgeStyle=none;html=1;exitX=0.5;exitY=1;exitDx=0;exitDy=0;entryX=0.5;entryY=0;entryDx=0;entryDy=0;fontColor=#FFFFFF;" parent="1" source="69" target="72" edge="1">
                    <mxGeometry relative="1" as="geometry"/>
                </mxCell>
                <mxCell id="69" value="No" style="ellipse;whiteSpace=wrap;html=1;aspect=fixed;fontColor=#ffffff;fillColor=#a20025;strokeColor=#6F0000;" parent="1" vertex="1">
                    <mxGeometry x="260" y="-515" width="50" height="50" as="geometry"/>
                </mxCell>
                <mxCell id="79" style="edgeStyle=none;html=1;exitX=0.5;exitY=1;exitDx=0;exitDy=0;entryX=0.5;entryY=0;entryDx=0;entryDy=0;fontColor=#FFFFFF;" parent="1" source="72" target="78" edge="1">
                    <mxGeometry relative="1" as="geometry"/>
                </mxCell>
                <mxCell id="72" value="Set STATE &lt;br&gt;Hover false" style="shape=hexagon;perimeter=hexagonPerimeter2;whiteSpace=wrap;html=1;fixedSize=1;fillColor=#6a00ff;fontColor=#ffffff;strokeColor=#3700CC;" parent="1" vertex="1">
                    <mxGeometry x="225" y="-435" width="120" height="50" as="geometry"/>
                </mxCell>
                <mxCell id="75" value="" style="edgeStyle=none;html=1;exitX=0.5;exitY=1;exitDx=0;exitDy=0;entryX=0.5;entryY=0;entryDx=0;entryDy=0;fontColor=#FFFFFF;endArrow=none;" parent="1" source="37" target="74" edge="1">
                    <mxGeometry relative="1" as="geometry">
                        <mxPoint x="-175" y="-415" as="sourcePoint"/>
                        <mxPoint x="-210" y="-232.5" as="targetPoint"/>
                    </mxGeometry>
                </mxCell>
                <mxCell id="84" style="edgeStyle=none;html=1;exitX=1;exitY=0.5;exitDx=0;exitDy=0;entryX=0;entryY=0.5;entryDx=0;entryDy=0;fontColor=#FFFFFF;strokeWidth=2;" parent="1" source="74" target="83" edge="1">
                    <mxGeometry relative="1" as="geometry"/>
                </mxCell>
                <mxCell id="74" value="If STATE Hovered" style="rhombus;whiteSpace=wrap;html=1;fillColor=#a20025;fontColor=#ffffff;strokeColor=#6F0000;" parent="1" vertex="1">
                    <mxGeometry x="-215" y="-370" width="80" height="80" as="geometry"/>
                </mxCell>
                <mxCell id="78" value="" style="ellipse;html=1;shape=endState;fillColor=#000000;strokeColor=#ff0000;fontColor=#FFFFFF;" parent="1" vertex="1">
                    <mxGeometry x="257.5" y="-313.75" width="55" height="53.75" as="geometry"/>
                </mxCell>
                <mxCell id="82" value="" style="edgeStyle=none;html=1;exitX=0.5;exitY=1;exitDx=0;exitDy=0;entryX=0.5;entryY=0;entryDx=0;entryDy=0;fontColor=#FFFFFF;startArrow=none;endArrow=none;" parent="1" source="74" target="81" edge="1">
                    <mxGeometry relative="1" as="geometry">
                        <mxPoint x="-175" y="-290" as="sourcePoint"/>
                        <mxPoint x="-175" y="-222.5" as="targetPoint"/>
                    </mxGeometry>
                </mxCell>
                <mxCell id="81" value="Yes" style="ellipse;whiteSpace=wrap;html=1;aspect=fixed;fontColor=#ffffff;fillColor=#a20025;strokeColor=#6F0000;" parent="1" vertex="1">
                    <mxGeometry x="-200" y="-270" width="50" height="50" as="geometry"/>
                </mxCell>
                <mxCell id="86" style="edgeStyle=none;html=1;exitX=0.5;exitY=1;exitDx=0;exitDy=0;entryX=0.5;entryY=0;entryDx=0;entryDy=0;fontColor=#FFFFFF;strokeWidth=2;" parent="1" source="83" target="85" edge="1">
                    <mxGeometry relative="1" as="geometry"/>
                </mxCell>
                <mxCell id="83" value="No" style="ellipse;whiteSpace=wrap;html=1;aspect=fixed;fontColor=#ffffff;fillColor=#a20025;strokeColor=#6F0000;" parent="1" vertex="1">
                    <mxGeometry x="60" y="-355" width="50" height="50" as="geometry"/>
                </mxCell>
                <mxCell id="88" style="edgeStyle=none;html=1;exitX=0.5;exitY=1;exitDx=0;exitDy=0;entryX=0.5;entryY=0;entryDx=0;entryDy=0;fontColor=#FFFFFF;strokeWidth=2;" parent="1" source="85" target="87" edge="1">
                    <mxGeometry relative="1" as="geometry"/>
                </mxCell>
                <mxCell id="85" value="Remove timeInterval" style="ellipse;whiteSpace=wrap;html=1;fillColor=#1ba1e2;fontColor=#ffffff;strokeColor=#006EAF;" parent="1" vertex="1">
                    <mxGeometry x="25" y="-155" width="120" height="80" as="geometry"/>
                </mxCell>
                <mxCell id="87" value="" style="ellipse;html=1;shape=endState;fillColor=#000000;strokeColor=#ff0000;fontColor=#FFFFFF;" parent="1" vertex="1">
                    <mxGeometry x="55" y="-38.75" width="55" height="53.75" as="geometry"/>
                </mxCell>
                <mxCell id="89" value="" style="ellipse;html=1;shape=endState;fillColor=#000000;strokeColor=#ff0000;fontColor=#FFFFFF;" parent="1" vertex="1">
                    <mxGeometry x="-657.5" y="-141.87" width="55" height="53.75" as="geometry"/>
                </mxCell>
                <mxCell id="93" style="edgeStyle=none;html=1;exitX=0.5;exitY=1;exitDx=0;exitDy=0;entryX=0.5;entryY=0;entryDx=0;entryDy=0;fontSize=18;fontColor=#FFFFFF;strokeColor=#990000;strokeWidth=5;" parent="1" source="91" target="12" edge="1">
                    <mxGeometry relative="1" as="geometry"/>
                </mxCell>
                <mxCell id="94" style="edgeStyle=none;html=1;exitX=0.5;exitY=1;exitDx=0;exitDy=0;entryX=0.5;entryY=0;entryDx=0;entryDy=0;strokeColor=#990000;strokeWidth=5;fontSize=18;fontColor=#FFFFFF;" parent="1" source="91" target="19" edge="1">
                    <mxGeometry relative="1" as="geometry"/>
                </mxCell>
                <mxCell id="95" style="edgeStyle=none;html=1;exitX=0.5;exitY=1;exitDx=0;exitDy=0;entryX=0.5;entryY=0;entryDx=0;entryDy=0;strokeColor=#990000;strokeWidth=5;fontSize=18;fontColor=#FFFFFF;" parent="1" source="91" target="58" edge="1">
                    <mxGeometry relative="1" as="geometry"/>
                </mxCell>
                <mxCell id="91" value="&lt;font style=&quot;font-size: 18px;&quot;&gt;Main Loop&lt;/font&gt;" style="rounded=1;whiteSpace=wrap;html=1;arcSize=40;fontColor=#000000;fillColor=#ffffc0;strokeColor=#ff0000;" parent="1" vertex="1">
                    <mxGeometry x="560" y="-958" width="170" height="70" as="geometry"/>
                </mxCell>
                <mxCell id="106" style="edgeStyle=none;html=1;exitX=1;exitY=0.5;exitDx=0;exitDy=0;entryX=0;entryY=0.5;entryDx=0;entryDy=0;strokeColor=#FFFFFF;strokeWidth=2;fontSize=18;fontColor=#FFFFFF;" parent="1" source="96" target="98" edge="1">
                    <mxGeometry relative="1" as="geometry"/>
                </mxCell>
                <mxCell id="96" value="Bind&lt;br&gt;to slider" style="ellipse;whiteSpace=wrap;html=1;fillColor=#1ba1e2;fontColor=#ffffff;strokeColor=#006EAF;" parent="1" vertex="1">
                    <mxGeometry x="-570" y="-610" width="120" height="80" as="geometry"/>
                </mxCell>
                <mxCell id="98" value="Slider Set&lt;br&gt;Binding&lt;br&gt;Callback" style="ellipse;whiteSpace=wrap;html=1;fillColor=#1ba1e2;fontColor=#ffffff;strokeColor=#006EAF;" parent="1" vertex="1">
                    <mxGeometry x="-380" y="-606" width="120" height="80" as="geometry"/>
                </mxCell>
                <mxCell id="100" style="edgeStyle=none;html=1;exitX=0.5;exitY=1;exitDx=0;exitDy=0;entryX=0.5;entryY=0;entryDx=0;entryDy=0;fontColor=#FFFFFF;strokeWidth=2;" parent="1" edge="1">
                    <mxGeometry relative="1" as="geometry">
                        <mxPoint x="290" y="-670" as="sourcePoint"/>
                        <mxPoint x="210" y="-620" as="targetPoint"/>
                    </mxGeometry>
                </mxCell>
                <mxCell id="101" style="edgeStyle=none;html=1;exitX=0.5;exitY=1;exitDx=0;exitDy=0;entryX=0.5;entryY=0;entryDx=0;entryDy=0;strokeWidth=2;" parent="1" edge="1">
                    <mxGeometry relative="1" as="geometry">
                        <mxPoint x="290" y="-670" as="sourcePoint"/>
                        <mxPoint x="390" y="-620" as="targetPoint"/>
                    </mxGeometry>
                </mxCell>
                <mxCell id="102" style="edgeStyle=none;html=1;exitX=0.5;exitY=1;exitDx=0;exitDy=0;entryX=0.5;entryY=0;entryDx=0;entryDy=0;strokeWidth=2;" parent="1" edge="1">
                    <mxGeometry relative="1" as="geometry">
                        <mxPoint x="680" y="-670" as="sourcePoint"/>
                        <mxPoint x="600" y="-450.0000000000002" as="targetPoint"/>
                    </mxGeometry>
                </mxCell>
                <mxCell id="103" style="edgeStyle=none;html=1;exitX=0.5;exitY=1;exitDx=0;exitDy=0;entryX=0.5;entryY=0;entryDx=0;entryDy=0;strokeWidth=2;" parent="1" edge="1">
                    <mxGeometry relative="1" as="geometry">
                        <mxPoint x="680" y="-670" as="sourcePoint"/>
                        <mxPoint x="780" y="-450.0000000000002" as="targetPoint"/>
                    </mxGeometry>
                </mxCell>
                <mxCell id="104" style="edgeStyle=none;html=1;exitX=1;exitY=0.5;exitDx=0;exitDy=0;entryX=0;entryY=0.5;entryDx=0;entryDy=0;strokeWidth=2;" parent="1" edge="1">
                    <mxGeometry relative="1" as="geometry">
                        <mxPoint x="450" y="-327.4999999999998" as="sourcePoint"/>
                        <mxPoint x="540" y="-410.0000000000002" as="targetPoint"/>
                    </mxGeometry>
                </mxCell>
                <mxCell id="105" value="" style="edgeStyle=none;html=1;exitX=1;exitY=0.5;exitDx=0;exitDy=0;entryX=0;entryY=0.5;entryDx=0;entryDy=0;fontColor=#FFFFFF;endArrow=none;strokeWidth=2;" parent="1" edge="1">
                    <mxGeometry relative="1" as="geometry">
                        <mxPoint x="840" y="-174.99999999999977" as="sourcePoint"/>
                        <mxPoint x="1030" y="-114.99999999999977" as="targetPoint"/>
                    </mxGeometry>
                </mxCell>
                <mxCell id="107" style="edgeStyle=none;html=1;exitX=0.5;exitY=1;exitDx=0;exitDy=0;entryX=0.5;entryY=0;entryDx=0;entryDy=0;" parent="1" source="109" target="110" edge="1">
                    <mxGeometry relative="1" as="geometry"/>
                </mxCell>
                <mxCell id="108" style="edgeStyle=none;html=1;exitX=0.5;exitY=1;exitDx=0;exitDy=0;entryX=0.5;entryY=0;entryDx=0;entryDy=0;fontColor=#FFFFFF;" parent="1" source="109" target="154" edge="1">
                    <mxGeometry relative="1" as="geometry"/>
                </mxCell>
                <mxCell id="109" value="EventListener" style="rounded=1;whiteSpace=wrap;html=1;fillColor=#008a00;fontColor=#ffffff;strokeColor=#005700;" parent="1" vertex="1">
                    <mxGeometry x="249" y="-2122" width="120" height="60" as="geometry"/>
                </mxCell>
                <mxCell id="110" value="Check Hover" style="ellipse;whiteSpace=wrap;html=1;fillColor=#1ba1e2;fontColor=#ffffff;strokeColor=#006EAF;" parent="1" vertex="1">
                    <mxGeometry x="349" y="-2012" width="120" height="80" as="geometry"/>
                </mxCell>
                <mxCell id="111" style="edgeStyle=none;html=1;exitX=0.5;exitY=1;exitDx=0;exitDy=0;entryX=0.5;entryY=0;entryDx=0;entryDy=0;fontColor=#FFFFFF;strokeWidth=3;endArrow=block;endFill=1;" parent="1" source="113" target="129" edge="1">
                    <mxGeometry relative="1" as="geometry"/>
                </mxCell>
                <mxCell id="216" style="edgeStyle=none;html=1;exitX=0.5;exitY=1;exitDx=0;exitDy=0;entryX=0.5;entryY=0;entryDx=0;entryDy=0;strokeWidth=3;endArrow=block;endFill=1;" parent="1" source="113" target="213" edge="1">
                    <mxGeometry relative="1" as="geometry"/>
                </mxCell>
                <mxCell id="113" value="Widget Slider" style="rounded=1;whiteSpace=wrap;html=1;fillColor=#008a00;fontColor=#ffffff;strokeColor=#005700;" parent="1" vertex="1">
                    <mxGeometry x="-191" y="-2122" width="120" height="60" as="geometry"/>
                </mxCell>
                <mxCell id="114" style="edgeStyle=none;html=1;exitX=1;exitY=0.5;exitDx=0;exitDy=0;entryX=0;entryY=0.5;entryDx=0;entryDy=0;" parent="1" source="115" target="124" edge="1">
                    <mxGeometry relative="1" as="geometry"/>
                </mxCell>
                <mxCell id="115" value="Create Hover event" style="shape=hexagon;perimeter=hexagonPerimeter2;whiteSpace=wrap;html=1;fixedSize=1;fillColor=#d80073;fontColor=#ffffff;strokeColor=#A50040;" parent="1" vertex="1">
                    <mxGeometry x="349" y="-1744.5" width="120" height="50" as="geometry"/>
                </mxCell>
                <mxCell id="116" style="edgeStyle=none;html=1;exitX=0.5;exitY=1;exitDx=0;exitDy=0;entryX=0.5;entryY=0;entryDx=0;entryDy=0;" parent="1" source="118" target="120" edge="1">
                    <mxGeometry relative="1" as="geometry"/>
                </mxCell>
                <mxCell id="117" style="edgeStyle=none;html=1;exitX=0.5;exitY=1;exitDx=0;exitDy=0;entryX=0.5;entryY=0;entryDx=0;entryDy=0;" parent="1" source="118" target="124" edge="1">
                    <mxGeometry relative="1" as="geometry"/>
                </mxCell>
                <mxCell id="118" value="Events" style="rounded=1;whiteSpace=wrap;html=1;fillColor=#008a00;fontColor=#ffffff;strokeColor=#005700;" parent="1" vertex="1">
                    <mxGeometry x="639" y="-2122" width="120" height="60" as="geometry"/>
                </mxCell>
                <mxCell id="119" style="edgeStyle=none;html=1;exitX=0.5;exitY=1;exitDx=0;exitDy=0;entryX=0.5;entryY=0;entryDx=0;entryDy=0;strokeWidth=3;endArrow=block;endFill=1;" parent="1" source="120" target="127" edge="1">
                    <mxGeometry relative="1" as="geometry"/>
                </mxCell>
                <mxCell id="120" value="Handle Events" style="ellipse;whiteSpace=wrap;html=1;fillColor=#1ba1e2;fontColor=#ffffff;strokeColor=#006EAF;" parent="1" vertex="1">
                    <mxGeometry x="739" y="-1842" width="120" height="80" as="geometry"/>
                </mxCell>
                <mxCell id="121" style="edgeStyle=none;html=1;exitX=0.5;exitY=1;exitDx=0;exitDy=0;entryX=0.5;entryY=0;entryDx=0;entryDy=0;strokeWidth=3;endArrow=block;endFill=1;" parent="1" source="122" target="125" edge="1">
                    <mxGeometry relative="1" as="geometry"/>
                </mxCell>
                <mxCell id="122" value="If Hover &lt;br&gt;and&lt;br&gt;clicked&amp;nbsp;" style="rhombus;whiteSpace=wrap;html=1;fillColor=#a20025;fontColor=#ffffff;strokeColor=#6F0000;" parent="1" vertex="1">
                    <mxGeometry x="579" y="-1732" width="80" height="80" as="geometry"/>
                </mxCell>
                <mxCell id="123" style="edgeStyle=none;html=1;exitX=0.5;exitY=1;exitDx=0;exitDy=0;entryX=0.5;entryY=0;entryDx=0;entryDy=0;strokeWidth=3;endArrow=block;endFill=1;" parent="1" source="124" target="122" edge="1">
                    <mxGeometry relative="1" as="geometry">
                        <mxPoint x="629" y="-1732" as="targetPoint"/>
                    </mxGeometry>
                </mxCell>
                <mxCell id="124" value="Register Events" style="ellipse;whiteSpace=wrap;html=1;fillColor=#1ba1e2;fontColor=#ffffff;strokeColor=#006EAF;" parent="1" vertex="1">
                    <mxGeometry x="559" y="-1842" width="120" height="80" as="geometry"/>
                </mxCell>
                <mxCell id="125" value="Create grab event" style="shape=hexagon;perimeter=hexagonPerimeter2;whiteSpace=wrap;html=1;fixedSize=1;fillColor=#d80073;fontColor=#ffffff;strokeColor=#A50040;" parent="1" vertex="1">
                    <mxGeometry x="559" y="-1632" width="120" height="50" as="geometry"/>
                </mxCell>
                <mxCell id="126" style="edgeStyle=none;html=1;exitX=0.5;exitY=1;exitDx=0;exitDy=0;entryX=1;entryY=0.5;entryDx=0;entryDy=0;fontColor=#FFFFFF;startArrow=none;" parent="1" source="152" edge="1">
                    <mxGeometry relative="1" as="geometry">
                        <mxPoint x="1069" y="-1519.5" as="targetPoint"/>
                    </mxGeometry>
                </mxCell>
                <mxCell id="127" value="Hande grab event" style="shape=hexagon;perimeter=hexagonPerimeter2;whiteSpace=wrap;html=1;fixedSize=1;fillColor=#d80073;fontColor=#ffffff;strokeColor=#A50040;" parent="1" vertex="1">
                    <mxGeometry x="739" y="-1712" width="120" height="50" as="geometry"/>
                </mxCell>
                <mxCell id="128" style="edgeStyle=none;html=1;exitX=0.5;exitY=1;exitDx=0;exitDy=0;fontColor=#FFFFFF;entryX=0.5;entryY=0;entryDx=0;entryDy=0;strokeWidth=2;" parent="1" source="113" target="131" edge="1">
                    <mxGeometry relative="1" as="geometry">
                        <mxPoint x="29" y="-1852" as="targetPoint"/>
                    </mxGeometry>
                </mxCell>
                <mxCell id="201" style="edgeStyle=none;html=1;exitX=1;exitY=0.5;exitDx=0;exitDy=0;entryX=0;entryY=0.5;entryDx=0;entryDy=0;strokeWidth=3;endArrow=block;endFill=1;" parent="1" source="129" target="154" edge="1">
                    <mxGeometry relative="1" as="geometry"/>
                </mxCell>
                <mxCell id="129" value="Set Event listener" style="ellipse;whiteSpace=wrap;html=1;fillColor=#1ba1e2;fontColor=#ffffff;strokeColor=#006EAF;" parent="1" vertex="1">
                    <mxGeometry x="-21" y="-2012" width="120" height="80" as="geometry"/>
                </mxCell>
                <mxCell id="130" style="edgeStyle=none;html=1;exitX=0.5;exitY=1;exitDx=0;exitDy=0;entryX=0.5;entryY=0;entryDx=0;entryDy=0;fontColor=#FFFFFF;startArrow=none;strokeWidth=3;endArrow=block;endFill=1;" parent="1" source="170" target="136" edge="1">
                    <mxGeometry relative="1" as="geometry"/>
                </mxCell>
                <mxCell id="131" value="&lt;div style=&quot;color: rgb(204, 204, 204); background-color: rgb(21, 21, 21); font-family: Consolas, &amp;quot;Courier New&amp;quot;, monospace; font-size: 14px; line-height: 19px;&quot;&gt;&lt;span style=&quot;color: #0582ff;&quot;&gt;Slider_on_update_handle&lt;/span&gt;&lt;/div&gt;" style="ellipse;whiteSpace=wrap;html=1;fillColor=#1ba1e2;fontColor=#ffffff;strokeColor=#006EAF;" parent="1" vertex="1">
                    <mxGeometry x="-241" y="-1892" width="210" height="80" as="geometry"/>
                </mxCell>
                <mxCell id="134" value="&lt;font color=&quot;#ffffff&quot;&gt;Bar&lt;br&gt;handle&lt;br&gt;value text&lt;br&gt;&lt;/font&gt;" style="shape=or;whiteSpace=wrap;html=1;fillColor=#f0a30a;fontColor=#000000;strokeColor=#BD7000;" parent="1" vertex="1">
                    <mxGeometry x="94" y="-2312" width="95" height="73" as="geometry"/>
                </mxCell>
                <mxCell id="136" value="Do stuf" style="swimlane;fontStyle=0;childLayout=stackLayout;horizontal=1;startSize=30;horizontalStack=0;resizeParent=1;resizeParentMax=0;resizeLast=0;collapsible=1;marginBottom=0;whiteSpace=wrap;html=1;fontColor=#000000;fillColor=#fa6800;strokeColor=#C73500;" parent="1" vertex="1">
                    <mxGeometry x="-246" y="-1558" width="220" height="180" as="geometry"/>
                </mxCell>
                <mxCell id="137" value="Item 1" style="text;strokeColor=#314354;fillColor=#647687;align=left;verticalAlign=middle;spacingLeft=4;spacingRight=4;overflow=hidden;points=[[0,0.5],[1,0.5]];portConstraint=eastwest;rotatable=0;whiteSpace=wrap;html=1;fontColor=#ffffff;" parent="136" vertex="1">
                    <mxGeometry y="30" width="220" height="50" as="geometry"/>
                </mxCell>
                <mxCell id="138" value="Item 2" style="text;strokeColor=#314354;fillColor=#647687;align=left;verticalAlign=middle;spacingLeft=4;spacingRight=4;overflow=hidden;points=[[0,0.5],[1,0.5]];portConstraint=eastwest;rotatable=0;whiteSpace=wrap;html=1;fontColor=#ffffff;" parent="136" vertex="1">
                    <mxGeometry y="80" width="220" height="50" as="geometry"/>
                </mxCell>
                <mxCell id="139" value="&lt;font style=&quot;text-align: center;&quot; color=&quot;#ffffff&quot;&gt;&lt;br&gt;&lt;/font&gt;&lt;div style=&quot;color: rgb(0, 0, 0); text-align: center; background-color: rgb(21, 21, 21); font-family: Consolas, &amp;quot;Courier New&amp;quot;, monospace; font-size: 14px; line-height: 19px;&quot;&gt;&lt;font color=&quot;#0582ff&quot;&gt;Connect_to_X_function&lt;/font&gt;&lt;/div&gt;" style="text;strokeColor=#314354;fillColor=#647687;align=left;verticalAlign=middle;spacingLeft=4;spacingRight=4;overflow=hidden;points=[[0,0.5],[1,0.5]];portConstraint=eastwest;rotatable=0;whiteSpace=wrap;html=1;fontColor=#ffffff;" parent="136" vertex="1">
                    <mxGeometry y="130" width="220" height="50" as="geometry"/>
                </mxCell>
                <mxCell id="140" style="edgeStyle=none;html=1;exitX=0.5;exitY=1;exitDx=0;exitDy=0;entryX=0.5;entryY=0;entryDx=0;entryDy=0;fontColor=#FFFFFF;strokeWidth=3;endArrow=block;endFill=1;" parent="1" source="142" target="144" edge="1">
                    <mxGeometry relative="1" as="geometry"/>
                </mxCell>
                <mxCell id="142" value="Widget Text Label" style="rounded=1;whiteSpace=wrap;html=1;fillColor=#008a00;fontColor=#ffffff;strokeColor=#005700;" parent="1" vertex="1">
                    <mxGeometry x="-671" y="-2132" width="120" height="60" as="geometry"/>
                </mxCell>
                <mxCell id="143" style="edgeStyle=none;html=1;exitX=0.5;exitY=1;exitDx=0;exitDy=0;entryX=0.5;entryY=0;entryDx=0;entryDy=0;fontColor=#FFFFFF;strokeWidth=3;endArrow=block;endFill=1;" parent="1" source="144" target="176" edge="1">
                    <mxGeometry relative="1" as="geometry"/>
                </mxCell>
                <mxCell id="144" value="SetColor()" style="ellipse;whiteSpace=wrap;html=1;fillColor=#1ba1e2;fontColor=#ffffff;strokeColor=#006EAF;" parent="1" vertex="1">
                    <mxGeometry x="-671" y="-1694.5" width="120" height="80" as="geometry"/>
                </mxCell>
                <mxCell id="145" style="edgeStyle=none;html=1;exitX=0;exitY=0.5;exitDx=0;exitDy=0;entryX=1;entryY=0.5;entryDx=0;entryDy=0;fontColor=#FFFFFF;strokeWidth=3;endArrow=block;endFill=1;" parent="1" source="139" target="144" edge="1">
                    <mxGeometry relative="1" as="geometry"/>
                </mxCell>
                <mxCell id="146" value="" style="edgeStyle=none;html=1;exitX=0.5;exitY=1;exitDx=0;exitDy=0;fontColor=#FFFFFF;endArrow=block;strokeWidth=3;endFill=1;entryX=0.5;entryY=0;entryDx=0;entryDy=0;" parent="1" source="127" target="212" edge="1">
                    <mxGeometry relative="1" as="geometry">
                        <mxPoint x="799" y="-1662" as="sourcePoint"/>
                        <mxPoint x="834" y="-1633" as="targetPoint"/>
                    </mxGeometry>
                </mxCell>
                <mxCell id="147" style="edgeStyle=none;html=1;exitX=1;exitY=0.5;exitDx=0;exitDy=0;entryX=0;entryY=0.5;entryDx=0;entryDy=0;fontColor=#FFFFFF;startArrow=none;" parent="1" target="152" edge="1">
                    <mxGeometry relative="1" as="geometry">
                        <mxPoint x="1069" y="-1519.5" as="sourcePoint"/>
                    </mxGeometry>
                </mxCell>
                <mxCell id="218" style="edgeStyle=none;html=1;exitX=0.5;exitY=1;exitDx=0;exitDy=0;entryX=0.5;entryY=0;entryDx=0;entryDy=0;strokeWidth=3;endArrow=block;endFill=1;" parent="1" source="148" target="217" edge="1">
                    <mxGeometry relative="1" as="geometry"/>
                </mxCell>
                <mxCell id="148" value="Create Interval" style="shape=hexagon;perimeter=hexagonPerimeter2;whiteSpace=wrap;html=1;fixedSize=1;fontColor=#ffffff;fillColor=#6a00ff;strokeColor=#3700CC;" parent="1" vertex="1">
                    <mxGeometry x="-400" y="-1888" width="120" height="80" as="geometry"/>
                </mxCell>
                <mxCell id="149" style="edgeStyle=none;html=1;exitX=0.5;exitY=1;exitDx=0;exitDy=0;entryX=0.5;entryY=0;entryDx=0;entryDy=0;fontColor=#FFFFFF;strokeWidth=3;endArrow=block;endFill=1;" parent="1" source="150" target="152" edge="1">
                    <mxGeometry relative="1" as="geometry"/>
                </mxCell>
                <mxCell id="150" value="Time Intervals" style="rounded=1;whiteSpace=wrap;html=1;fillColor=#008a00;fontColor=#ffffff;strokeColor=#005700;" parent="1" vertex="1">
                    <mxGeometry x="1039" y="-2112" width="120" height="60" as="geometry"/>
                </mxCell>
                <mxCell id="151" style="edgeStyle=none;html=1;exitX=0.5;exitY=1;exitDx=0;exitDy=0;entryX=0.5;entryY=1;entryDx=0;entryDy=0;fontColor=#FFFFFF;strokeWidth=3;" parent="1" source="152" target="131" edge="1">
                    <mxGeometry relative="1" as="geometry">
                        <Array as="points">
                            <mxPoint x="319" y="-1532"/>
                        </Array>
                    </mxGeometry>
                </mxCell>
                <mxCell id="152" value="Run Intervals" style="ellipse;whiteSpace=wrap;html=1;fillColor=#1ba1e2;fontColor=#ffffff;strokeColor=#006EAF;" parent="1" vertex="1">
                    <mxGeometry x="1049" y="-1547" width="120" height="80" as="geometry"/>
                </mxCell>
                <mxCell id="154" value="Create listener" style="ellipse;whiteSpace=wrap;html=1;fillColor=#1ba1e2;fontColor=#ffffff;strokeColor=#006EAF;" parent="1" vertex="1">
                    <mxGeometry x="169" y="-2012" width="120" height="80" as="geometry"/>
                </mxCell>
                <mxCell id="155" value="" style="edgeStyle=none;html=1;exitX=0.5;exitY=1;exitDx=0;exitDy=0;entryX=0.5;entryY=0;entryDx=0;entryDy=0;endArrow=block;strokeWidth=3;endFill=1;" parent="1" source="110" target="158" edge="1">
                    <mxGeometry relative="1" as="geometry">
                        <mxPoint x="409" y="-1942" as="sourcePoint"/>
                        <mxPoint x="409" y="-1827" as="targetPoint"/>
                    </mxGeometry>
                </mxCell>
                <mxCell id="156" style="edgeStyle=none;html=1;exitX=0;exitY=0.5;exitDx=0;exitDy=0;entryX=1;entryY=0.5;entryDx=0;entryDy=0;fontColor=#FFFFFF;strokeWidth=3;endArrow=block;endFill=1;" parent="1" source="158" target="162" edge="1">
                    <mxGeometry relative="1" as="geometry"/>
                </mxCell>
                <mxCell id="157" style="edgeStyle=none;html=1;fontColor=#FFFFFF;exitX=0.5;exitY=1;exitDx=0;exitDy=0;strokeWidth=3;endArrow=block;endFill=1;" parent="1" source="158" target="160" edge="1">
                    <mxGeometry relative="1" as="geometry">
                        <mxPoint x="449" y="-1882" as="sourcePoint"/>
                    </mxGeometry>
                </mxCell>
                <mxCell id="158" value="If Hover" style="rhombus;whiteSpace=wrap;html=1;fillColor=#a20025;fontColor=#ffffff;strokeColor=#6F0000;" parent="1" vertex="1">
                    <mxGeometry x="369" y="-1922" width="80" height="80" as="geometry"/>
                </mxCell>
                <mxCell id="159" style="edgeStyle=none;html=1;exitX=0.5;exitY=1;exitDx=0;exitDy=0;entryX=0.5;entryY=0;entryDx=0;entryDy=0;fontColor=#FFFFFF;strokeWidth=3;endArrow=block;endFill=1;" parent="1" source="160" target="115" edge="1">
                    <mxGeometry relative="1" as="geometry"/>
                </mxCell>
                <mxCell id="160" value="Yes" style="ellipse;whiteSpace=wrap;html=1;aspect=fixed;fontColor=#ffffff;fillColor=#a20025;strokeColor=#6F0000;" parent="1" vertex="1">
                    <mxGeometry x="384" y="-1812" width="50" height="50" as="geometry"/>
                </mxCell>
                <mxCell id="161" style="edgeStyle=none;html=1;exitX=0.5;exitY=1;exitDx=0;exitDy=0;entryX=0.5;entryY=0;entryDx=0;entryDy=0;fontColor=#FFFFFF;strokeWidth=3;endArrow=block;endFill=1;" parent="1" source="162" target="164" edge="1">
                    <mxGeometry relative="1" as="geometry"/>
                </mxCell>
                <mxCell id="162" value="No" style="ellipse;whiteSpace=wrap;html=1;aspect=fixed;fontColor=#ffffff;fillColor=#a20025;strokeColor=#6F0000;" parent="1" vertex="1">
                    <mxGeometry x="279" y="-1907" width="50" height="50" as="geometry"/>
                </mxCell>
                <mxCell id="163" style="edgeStyle=none;html=1;exitX=0.5;exitY=1;exitDx=0;exitDy=0;entryX=0.5;entryY=0;entryDx=0;entryDy=0;fontColor=#FFFFFF;strokeWidth=3;endArrow=block;endFill=1;" parent="1" source="164" target="168" edge="1">
                    <mxGeometry relative="1" as="geometry"/>
                </mxCell>
                <mxCell id="164" value="Set STATE &lt;br&gt;Hover false" style="shape=hexagon;perimeter=hexagonPerimeter2;whiteSpace=wrap;html=1;fixedSize=1;fillColor=#6a00ff;fontColor=#ffffff;strokeColor=#3700CC;" parent="1" vertex="1">
                    <mxGeometry x="244" y="-1827" width="120" height="50" as="geometry"/>
                </mxCell>
                <mxCell id="165" value="" style="edgeStyle=none;html=1;exitX=0.5;exitY=1;exitDx=0;exitDy=0;entryX=0.5;entryY=0;entryDx=0;entryDy=0;fontColor=#FFFFFF;endArrow=block;strokeWidth=3;endFill=1;" parent="1" source="131" target="167" edge="1">
                    <mxGeometry relative="1" as="geometry">
                        <mxPoint x="-156" y="-1807" as="sourcePoint"/>
                        <mxPoint x="-191" y="-1624.5" as="targetPoint"/>
                    </mxGeometry>
                </mxCell>
                <mxCell id="166" style="edgeStyle=none;html=1;exitX=1;exitY=0.5;exitDx=0;exitDy=0;entryX=0;entryY=0.5;entryDx=0;entryDy=0;fontColor=#FFFFFF;strokeWidth=3;" parent="1" source="167" target="172" edge="1">
                    <mxGeometry relative="1" as="geometry"/>
                </mxCell>
                <mxCell id="167" value="If STATE Hovered" style="rhombus;whiteSpace=wrap;html=1;fillColor=#a20025;fontColor=#ffffff;strokeColor=#6F0000;" parent="1" vertex="1">
                    <mxGeometry x="-176" y="-1763" width="80" height="80" as="geometry"/>
                </mxCell>
                <mxCell id="168" value="" style="ellipse;html=1;shape=endState;fillColor=#000000;strokeColor=#ff0000;fontColor=#FFFFFF;" parent="1" vertex="1">
                    <mxGeometry x="276.5" y="-1705.75" width="55" height="53.75" as="geometry"/>
                </mxCell>
                <mxCell id="169" value="" style="edgeStyle=none;html=1;exitX=0.5;exitY=1;exitDx=0;exitDy=0;entryX=0.5;entryY=0;entryDx=0;entryDy=0;fontColor=#FFFFFF;startArrow=none;endArrow=block;strokeWidth=3;endFill=1;" parent="1" source="167" target="170" edge="1">
                    <mxGeometry relative="1" as="geometry">
                        <mxPoint x="-136" y="-1683" as="sourcePoint"/>
                        <mxPoint x="-136" y="-1615.5" as="targetPoint"/>
                    </mxGeometry>
                </mxCell>
                <mxCell id="170" value="Yes" style="ellipse;whiteSpace=wrap;html=1;aspect=fixed;fontColor=#ffffff;fillColor=#a20025;strokeColor=#6F0000;" parent="1" vertex="1">
                    <mxGeometry x="-161" y="-1663" width="50" height="50" as="geometry"/>
                </mxCell>
                <mxCell id="171" style="edgeStyle=none;html=1;exitX=0.5;exitY=1;exitDx=0;exitDy=0;entryX=0.5;entryY=0;entryDx=0;entryDy=0;fontColor=#FFFFFF;strokeWidth=3;endArrow=block;endFill=1;" parent="1" source="172" target="174" edge="1">
                    <mxGeometry relative="1" as="geometry"/>
                </mxCell>
                <mxCell id="172" value="No" style="ellipse;whiteSpace=wrap;html=1;aspect=fixed;fontColor=#ffffff;fillColor=#a20025;strokeColor=#6F0000;" parent="1" vertex="1">
                    <mxGeometry x="99" y="-1748" width="50" height="50" as="geometry"/>
                </mxCell>
                <mxCell id="173" style="edgeStyle=none;html=1;exitX=0.5;exitY=1;exitDx=0;exitDy=0;entryX=0.5;entryY=0;entryDx=0;entryDy=0;fontColor=#FFFFFF;strokeWidth=3;endArrow=block;endFill=1;" parent="1" source="174" target="175" edge="1">
                    <mxGeometry relative="1" as="geometry"/>
                </mxCell>
                <mxCell id="174" value="Remove timeInterval" style="ellipse;whiteSpace=wrap;html=1;fillColor=#1ba1e2;fontColor=#ffffff;strokeColor=#006EAF;" parent="1" vertex="1">
                    <mxGeometry x="64" y="-1548" width="120" height="80" as="geometry"/>
                </mxCell>
                <mxCell id="175" value="" style="ellipse;html=1;shape=endState;fillColor=#000000;strokeColor=#ff0000;fontColor=#FFFFFF;" parent="1" vertex="1">
                    <mxGeometry x="97" y="-1431.75" width="55" height="53.75" as="geometry"/>
                </mxCell>
                <mxCell id="176" value="" style="ellipse;html=1;shape=endState;fillColor=#000000;strokeColor=#ff0000;fontColor=#FFFFFF;" parent="1" vertex="1">
                    <mxGeometry x="-638.5" y="-1533.87" width="55" height="53.75" as="geometry"/>
                </mxCell>
                <mxCell id="177" style="edgeStyle=none;html=1;exitX=0.5;exitY=1;exitDx=0;exitDy=0;entryX=0.5;entryY=0;entryDx=0;entryDy=0;fontSize=18;fontColor=#FFFFFF;strokeColor=#990000;strokeWidth=5;" parent="1" source="180" target="110" edge="1">
                    <mxGeometry relative="1" as="geometry"/>
                </mxCell>
                <mxCell id="221" value="&lt;font style=&quot;font-size: 30px;&quot;&gt;1&lt;/font&gt;" style="edgeLabel;html=1;align=center;verticalAlign=middle;resizable=0;points=[];" parent="177" vertex="1" connectable="0">
                    <mxGeometry x="0.0925" y="1" relative="1" as="geometry">
                        <mxPoint x="-1" as="offset"/>
                    </mxGeometry>
                </mxCell>
                <mxCell id="178" style="edgeStyle=none;html=1;exitX=0.5;exitY=1;exitDx=0;exitDy=0;entryX=0.5;entryY=0;entryDx=0;entryDy=0;strokeColor=#990000;strokeWidth=5;fontSize=18;fontColor=#FFFFFF;" parent="1" source="180" target="120" edge="1">
                    <mxGeometry relative="1" as="geometry">
                        <Array as="points">
                            <mxPoint x="785" y="-2118"/>
                        </Array>
                    </mxGeometry>
                </mxCell>
                <mxCell id="222" value="2" style="edgeLabel;html=1;align=center;verticalAlign=middle;resizable=0;points=[];fontSize=30;" parent="178" vertex="1" connectable="0">
                    <mxGeometry x="-0.481" y="-4" relative="1" as="geometry">
                        <mxPoint as="offset"/>
                    </mxGeometry>
                </mxCell>
                <mxCell id="179" style="edgeStyle=none;html=1;exitX=0.5;exitY=1;exitDx=0;exitDy=0;entryX=0.5;entryY=0;entryDx=0;entryDy=0;strokeColor=#990000;strokeWidth=5;fontSize=18;fontColor=#FFFFFF;" parent="1" source="180" target="152" edge="1">
                    <mxGeometry relative="1" as="geometry">
                        <Array as="points">
                            <mxPoint x="970" y="-2045"/>
                        </Array>
                    </mxGeometry>
                </mxCell>
                <mxCell id="223" value="3" style="edgeLabel;html=1;align=center;verticalAlign=middle;resizable=0;points=[];fontSize=30;" parent="179" vertex="1" connectable="0">
                    <mxGeometry x="-0.3402" y="5" relative="1" as="geometry">
                        <mxPoint as="offset"/>
                    </mxGeometry>
                </mxCell>
                <mxCell id="180" value="&lt;font style=&quot;font-size: 18px;&quot;&gt;Main Loop&lt;/font&gt;" style="rounded=1;whiteSpace=wrap;html=1;arcSize=40;fontColor=#000000;fillColor=#ffffc0;strokeColor=#ff0000;" parent="1" vertex="1">
                    <mxGeometry x="579" y="-2350" width="170" height="70" as="geometry"/>
                </mxCell>
                <mxCell id="184" style="edgeStyle=none;html=1;exitX=0.5;exitY=1;exitDx=0;exitDy=0;entryX=0.5;entryY=0;entryDx=0;entryDy=0;fontColor=#FFFFFF;strokeWidth=2;" parent="1" edge="1">
                    <mxGeometry relative="1" as="geometry">
                        <mxPoint x="309" y="-2062" as="sourcePoint"/>
                        <mxPoint x="229" y="-2012" as="targetPoint"/>
                    </mxGeometry>
                </mxCell>
                <mxCell id="185" style="edgeStyle=none;html=1;exitX=0.5;exitY=1;exitDx=0;exitDy=0;entryX=0.5;entryY=0;entryDx=0;entryDy=0;strokeWidth=2;" parent="1" edge="1">
                    <mxGeometry relative="1" as="geometry">
                        <mxPoint x="309" y="-2062" as="sourcePoint"/>
                        <mxPoint x="409" y="-2012" as="targetPoint"/>
                    </mxGeometry>
                </mxCell>
                <mxCell id="186" style="edgeStyle=none;html=1;exitX=0.5;exitY=1;exitDx=0;exitDy=0;entryX=0.5;entryY=0;entryDx=0;entryDy=0;strokeWidth=2;" parent="1" edge="1">
                    <mxGeometry relative="1" as="geometry">
                        <mxPoint x="699" y="-2062" as="sourcePoint"/>
                        <mxPoint x="619" y="-1842" as="targetPoint"/>
                    </mxGeometry>
                </mxCell>
                <mxCell id="187" style="edgeStyle=none;html=1;exitX=0.5;exitY=1;exitDx=0;exitDy=0;entryX=0.5;entryY=0;entryDx=0;entryDy=0;strokeWidth=2;" parent="1" edge="1">
                    <mxGeometry relative="1" as="geometry">
                        <mxPoint x="699" y="-2062" as="sourcePoint"/>
                        <mxPoint x="799" y="-1842" as="targetPoint"/>
                    </mxGeometry>
                </mxCell>
                <mxCell id="188" style="edgeStyle=none;html=1;exitX=1;exitY=0.5;exitDx=0;exitDy=0;entryX=0;entryY=0.5;entryDx=0;entryDy=0;strokeWidth=3;" parent="1" edge="1">
                    <mxGeometry relative="1" as="geometry">
                        <mxPoint x="469" y="-1719.5" as="sourcePoint"/>
                        <mxPoint x="559" y="-1802" as="targetPoint"/>
                    </mxGeometry>
                </mxCell>
                <mxCell id="196" style="edgeStyle=none;html=1;exitX=0.5;exitY=1;exitDx=0;exitDy=0;entryX=0.5;entryY=0;entryDx=0;entryDy=0;strokeWidth=3;endArrow=block;endFill=1;" parent="1" source="190" target="192" edge="1">
                    <mxGeometry relative="1" as="geometry"/>
                </mxCell>
                <mxCell id="190" value="Application Start" style="ellipse;whiteSpace=wrap;html=1;fillColor=#1ba1e2;fontColor=#ffffff;strokeColor=#006EAF;" parent="1" vertex="1">
                    <mxGeometry x="-1471.5" y="-2239" width="120" height="80" as="geometry"/>
                </mxCell>
                <mxCell id="198" style="edgeStyle=none;html=1;exitX=0.5;exitY=1;exitDx=0;exitDy=0;entryX=0.5;entryY=0;entryDx=0;entryDy=0;strokeWidth=3;endArrow=block;endFill=1;" parent="1" source="191" target="195" edge="1">
                    <mxGeometry relative="1" as="geometry"/>
                </mxCell>
                <mxCell id="191" value="Create Slider" style="ellipse;whiteSpace=wrap;html=1;fillColor=#1ba1e2;fontColor=#ffffff;strokeColor=#006EAF;" parent="1" vertex="1">
                    <mxGeometry x="-1471.5" y="-1994" width="120" height="80" as="geometry"/>
                </mxCell>
                <mxCell id="197" style="edgeStyle=none;html=1;exitX=0.5;exitY=1;exitDx=0;exitDy=0;entryX=0.5;entryY=0;entryDx=0;entryDy=0;strokeWidth=3;endArrow=block;endFill=1;" parent="1" source="192" target="191" edge="1">
                    <mxGeometry relative="1" as="geometry"/>
                </mxCell>
                <mxCell id="192" value="Create TextLabel" style="ellipse;whiteSpace=wrap;html=1;fillColor=#1ba1e2;fontColor=#ffffff;strokeColor=#006EAF;" parent="1" vertex="1">
                    <mxGeometry x="-1471.5" y="-2114" width="120" height="80" as="geometry"/>
                </mxCell>
                <mxCell id="200" style="edgeStyle=none;html=1;exitX=1;exitY=0.5;exitDx=0;exitDy=0;entryX=0;entryY=0.5;entryDx=0;entryDy=0;" parent="1" source="195" target="199" edge="1">
                    <mxGeometry relative="1" as="geometry"/>
                </mxCell>
                <mxCell id="195" value="&lt;div style=&quot;color: rgb(204, 204, 204); background-color: rgb(21, 21, 21); font-family: Consolas, &amp;quot;Courier New&amp;quot;, monospace; font-size: 14px; line-height: 19px;&quot;&gt;&lt;span style=&quot;color: #0582ff;&quot;&gt;Slider_bind_on_value_change&lt;/span&gt;&lt;/div&gt;" style="ellipse;whiteSpace=wrap;html=1;fillColor=#1ba1e2;fontColor=#ffffff;strokeColor=#006EAF;" parent="1" vertex="1">
                    <mxGeometry x="-1544" y="-1857" width="265" height="80" as="geometry"/>
                </mxCell>
                <mxCell id="220" style="edgeStyle=none;html=1;exitX=1;exitY=0.5;exitDx=0;exitDy=0;entryX=0;entryY=0.5;entryDx=0;entryDy=0;strokeWidth=3;endArrow=block;endFill=1;" parent="1" source="199" target="219" edge="1">
                    <mxGeometry relative="1" as="geometry"/>
                </mxCell>
                <mxCell id="199" value="&lt;div style=&quot;color: rgb(204, 204, 204); background-color: rgb(21, 21, 21); font-family: Consolas, &amp;quot;Courier New&amp;quot;, monospace; font-size: 14px; line-height: 19px;&quot;&gt;&lt;div style=&quot;line-height: 19px;&quot;&gt;&lt;span style=&quot;color: #dbb20f;&quot;&gt;bar&lt;/span&gt;.&lt;span style=&quot;color: #0582ff;&quot;&gt;CreateEvent&lt;/span&gt;(&lt;span style=&quot;color: #0582ff;&quot;&gt;Slider_on_value_change&lt;/span&gt;, &lt;span style=&quot;color: #aff0ff;&quot;&gt;meshToBind&lt;/span&gt;)&lt;/div&gt;&lt;/div&gt;" style="ellipse;whiteSpace=wrap;html=1;fillColor=#1ba1e2;fontColor=#ffffff;strokeColor=#006EAF;" parent="1" vertex="1">
                    <mxGeometry x="-1243.5" y="-1854" width="319" height="80" as="geometry"/>
                </mxCell>
                <mxCell id="203" style="edgeStyle=none;html=1;exitX=0.5;exitY=1;exitDx=0;exitDy=0;fontColor=#FFFFFF;entryX=0.5;entryY=0;entryDx=0;entryDy=0;strokeWidth=3;endArrow=block;endFill=1;" parent="1" edge="1">
                    <mxGeometry relative="1" as="geometry">
                        <mxPoint x="-135" y="-1892" as="targetPoint"/>
                        <mxPoint x="-130" y="-2062" as="sourcePoint"/>
                    </mxGeometry>
                </mxCell>
                <mxCell id="204" style="edgeStyle=none;html=1;exitX=0.5;exitY=1;exitDx=0;exitDy=0;entryX=0.5;entryY=0;entryDx=0;entryDy=0;fontColor=#FFFFFF;strokeWidth=3;" parent="1" edge="1">
                    <mxGeometry relative="1" as="geometry">
                        <mxPoint x="310" y="-2062" as="sourcePoint"/>
                        <mxPoint x="230" y="-2012" as="targetPoint"/>
                    </mxGeometry>
                </mxCell>
                <mxCell id="205" style="edgeStyle=none;html=1;exitX=0.5;exitY=1;exitDx=0;exitDy=0;entryX=0.5;entryY=0;entryDx=0;entryDy=0;strokeWidth=3;" parent="1" edge="1">
                    <mxGeometry relative="1" as="geometry">
                        <mxPoint x="310" y="-2062" as="sourcePoint"/>
                        <mxPoint x="410" y="-2012" as="targetPoint"/>
                    </mxGeometry>
                </mxCell>
                <mxCell id="206" style="edgeStyle=none;html=1;exitX=0.5;exitY=1;exitDx=0;exitDy=0;entryX=0.5;entryY=0;entryDx=0;entryDy=0;strokeWidth=3;" parent="1" edge="1">
                    <mxGeometry relative="1" as="geometry">
                        <mxPoint x="700" y="-2062" as="sourcePoint"/>
                        <mxPoint x="620" y="-1842" as="targetPoint"/>
                    </mxGeometry>
                </mxCell>
                <mxCell id="207" style="edgeStyle=none;html=1;exitX=0.5;exitY=1;exitDx=0;exitDy=0;entryX=0.5;entryY=0;entryDx=0;entryDy=0;strokeWidth=3;" parent="1" edge="1">
                    <mxGeometry relative="1" as="geometry">
                        <mxPoint x="700" y="-2062" as="sourcePoint"/>
                        <mxPoint x="800" y="-1842" as="targetPoint"/>
                    </mxGeometry>
                </mxCell>
                <mxCell id="215" style="edgeStyle=none;html=1;exitX=0;exitY=0.5;exitDx=0;exitDy=0;entryX=1;entryY=0.5;entryDx=0;entryDy=0;strokeWidth=3;endArrow=block;endFill=1;" parent="1" source="212" target="213" edge="1">
                    <mxGeometry relative="1" as="geometry">
                        <Array as="points">
                            <mxPoint x="295" y="-1637"/>
                        </Array>
                    </mxGeometry>
                </mxCell>
                <mxCell id="212" value="&lt;div style=&quot;color: rgb(204, 204, 204); background-color: rgb(21, 21, 21); font-family: Consolas, &amp;quot;Courier New&amp;quot;, monospace; font-size: 14px; line-height: 19px;&quot;&gt;&lt;span style=&quot;color: #0582ff;&quot;&gt;Slider_create_dispatch_event&lt;/span&gt;&lt;/div&gt;" style="ellipse;whiteSpace=wrap;html=1;fillColor=#1ba1e2;fontColor=#ffffff;strokeColor=#006EAF;" parent="1" vertex="1">
                    <mxGeometry x="682" y="-1606" width="239" height="80" as="geometry"/>
                </mxCell>
                <mxCell id="214" style="edgeStyle=none;html=1;exitX=0.5;exitY=1;exitDx=0;exitDy=0;entryX=0.5;entryY=0;entryDx=0;entryDy=0;strokeWidth=3;endArrow=block;endFill=1;" parent="1" source="213" target="148" edge="1">
                    <mxGeometry relative="1" as="geometry"/>
                </mxCell>
                <mxCell id="213" value="&lt;div style=&quot;color: rgb(204, 204, 204); background-color: rgb(21, 21, 21); font-family: Consolas, &amp;quot;Courier New&amp;quot;, monospace; font-size: 14px; line-height: 19px;&quot;&gt;&lt;span style=&quot;color: #0582ff;&quot;&gt;Slider_create_dispatch_event&lt;/span&gt;&lt;/div&gt;" style="ellipse;whiteSpace=wrap;html=1;fillColor=#1ba1e2;fontColor=#ffffff;strokeColor=#006EAF;" parent="1" vertex="1">
                    <mxGeometry x="-457" y="-2055" width="239" height="80" as="geometry"/>
                </mxCell>
                <mxCell id="217" value="" style="ellipse;html=1;shape=endState;fillColor=#000000;strokeColor=#ff0000;fontColor=#FFFFFF;" parent="1" vertex="1">
                    <mxGeometry x="-367.5" y="-1765.75" width="55" height="53.75" as="geometry"/>
                </mxCell>
                <mxCell id="219" value="" style="ellipse;html=1;shape=endState;fillColor=#000000;strokeColor=#ff0000;fontColor=#FFFFFF;" parent="1" vertex="1">
                    <mxGeometry x="-877" y="-1839" width="55" height="53.75" as="geometry"/>
                </mxCell>
                <mxCell id="225" value="&lt;div style=&quot;color: rgb(204, 204, 204); background-color: rgb(21, 21, 21); font-family: Consolas, &amp;quot;Courier New&amp;quot;, monospace; font-size: 14px; line-height: 19px;&quot;&gt;&lt;span style=&quot;color: #00bbff;&quot;&gt;function&lt;/span&gt; &lt;span style=&quot;color: #0582ff;&quot;&gt;Slider_move_handle&lt;/span&gt;(&lt;span style=&quot;color: #aff0ff;&quot;&gt;bar&lt;/span&gt;, &lt;span style=&quot;color: #aff0ff;&quot;&gt;handle&lt;/span&gt;)&lt;/div&gt;" style="rounded=1;whiteSpace=wrap;html=1;fillColor=#0050ef;fontColor=#ffffff;strokeColor=#001DBC;" parent="1" vertex="1">
                    <mxGeometry x="239" y="-2264" width="321" height="60" as="geometry"/>
                </mxCell>
                <mxCell id="227" value="&lt;font style=&quot;font-size: 27px;&quot;&gt;&lt;span style=&quot;font-family: Consolas, &amp;quot;Courier New&amp;quot;, monospace; color: rgb(0, 187, 255);&quot;&gt;function&lt;/span&gt;&lt;span style=&quot;color: rgb(204, 204, 204); font-family: Consolas, &amp;quot;Courier New&amp;quot;, monospace;&quot;&gt;&amp;nbsp;&lt;/span&gt;&lt;span style=&quot;font-family: Consolas, &amp;quot;Courier New&amp;quot;, monospace; color: rgb(5, 130, 255);&quot;&gt;Slider_move_handle&lt;/span&gt;&lt;span style=&quot;color: rgb(204, 204, 204); font-family: Consolas, &amp;quot;Courier New&amp;quot;, monospace;&quot;&gt;(&lt;/span&gt;&lt;span style=&quot;font-family: Consolas, &amp;quot;Courier New&amp;quot;, monospace; color: rgb(175, 240, 255);&quot;&gt;bar&lt;/span&gt;&lt;span style=&quot;color: rgb(204, 204, 204); font-family: Consolas, &amp;quot;Courier New&amp;quot;, monospace;&quot;&gt;,&amp;nbsp;&lt;/span&gt;&lt;span style=&quot;font-family: Consolas, &amp;quot;Courier New&amp;quot;, monospace; color: rgb(175, 240, 255);&quot;&gt;handle&lt;/span&gt;&lt;span style=&quot;color: rgb(204, 204, 204); font-family: Consolas, &amp;quot;Courier New&amp;quot;, monospace;&quot;&gt;)&lt;/span&gt;&lt;/font&gt;" style="rounded=0;whiteSpace=wrap;html=1;fillColor=#0050ef;fontColor=#ffffff;strokeColor=#001DBC;align=center;perimeterSpacing=0;glass=0;shadow=0;perimeter=rectanglePerimeter;container=1;dropTarget=1;recursiveResize=0;fontSize=21;verticalAlign=top;labelPosition=center;verticalLabelPosition=middle;labelBackgroundColor=default;labelBorderColor=default;spacingTop=12;" parent="1" vertex="1" collapsed="1">
                    <mxGeometry x="-300" y="-2608" width="623" height="68" as="geometry">
                        <mxRectangle x="1009" y="-3409" width="635" height="695" as="alternateBounds"/>
                    </mxGeometry>
                </mxCell>
                <mxCell id="226" value="&lt;div style=&quot;color: rgb(204, 204, 204); background-color: rgb(21, 21, 21); font-family: Consolas, &amp;quot;Courier New&amp;quot;, monospace; font-size: 14px; line-height: 19px;&quot;&gt;&lt;div style=&quot;line-height: 19px;&quot;&gt;&lt;div&gt;&lt;span style=&quot;color: rgb(0, 187, 255);&quot;&gt;function&lt;/span&gt;&amp;nbsp;&lt;span style=&quot;color: rgb(5, 130, 255);&quot;&gt;Slider_move_handle&lt;/span&gt;(&lt;span style=&quot;color: rgb(175, 240, 255);&quot;&gt;bar&lt;/span&gt;,&amp;nbsp;&lt;span style=&quot;color: rgb(175, 240, 255);&quot;&gt;handle&lt;/span&gt;) {&lt;/div&gt;&lt;br&gt;&lt;div&gt;&amp;nbsp; &amp;nbsp;&lt;span style=&quot;color: rgb(74, 97, 64);&quot;&gt;/**&lt;/span&gt;&lt;/div&gt;&lt;div&gt;&lt;span style=&quot;color: rgb(74, 97, 64);&quot;&gt;&amp;nbsp; &amp;nbsp; * Callback from Event.js for slider handle move&lt;/span&gt;&lt;/div&gt;&lt;div&gt;&lt;span style=&quot;color: rgb(74, 97, 64);&quot;&gt;&amp;nbsp; &amp;nbsp;*/&lt;/span&gt;&lt;/div&gt;&lt;div&gt;&amp;nbsp; &amp;nbsp;&lt;span style=&quot;color: rgb(74, 97, 64);&quot;&gt;// const bar = params;&lt;/span&gt;&lt;/div&gt;&lt;div&gt;&amp;nbsp; &amp;nbsp;&lt;span style=&quot;color: rgb(74, 97, 64);&quot;&gt;// const handle = bar.children.buffer[0];&lt;/span&gt;&lt;/div&gt;&lt;div&gt;&amp;nbsp; &amp;nbsp;&lt;span style=&quot;color: rgb(0, 187, 255);&quot;&gt;const&lt;/span&gt;&amp;nbsp;&lt;span style=&quot;color: rgb(219, 178, 15);&quot;&gt;x&lt;/span&gt;&amp;nbsp;&lt;span style=&quot;color: rgb(212, 212, 212);&quot;&gt;=&lt;/span&gt;&amp;nbsp;&lt;span style=&quot;color: rgb(5, 130, 255);&quot;&gt;MouseGetPos&lt;/span&gt;().&lt;span style=&quot;color: rgb(255, 255, 255);&quot;&gt;x&lt;/span&gt;;&lt;/div&gt;&lt;br&gt;&lt;div&gt;&amp;nbsp; &amp;nbsp;&lt;span style=&quot;color: rgb(219, 178, 15);&quot;&gt;MESH_STATE&lt;/span&gt;.&lt;span style=&quot;color: rgb(23, 218, 240);&quot;&gt;Print&lt;/span&gt;(&lt;span style=&quot;color: rgb(175, 240, 255);&quot;&gt;bar&lt;/span&gt;.&lt;span style=&quot;color: rgb(255, 255, 255);&quot;&gt;state2&lt;/span&gt;.&lt;span style=&quot;color: rgb(255, 255, 255);&quot;&gt;mask&lt;/span&gt;)&lt;/div&gt;&lt;div&gt;&amp;nbsp; &amp;nbsp;&lt;span style=&quot;color: rgb(202, 56, 255);&quot;&gt;if&lt;/span&gt;&amp;nbsp;((&lt;span style=&quot;color: rgb(175, 240, 255);&quot;&gt;bar&lt;/span&gt;.&lt;span style=&quot;color: rgb(255, 255, 255);&quot;&gt;state2&lt;/span&gt;.&lt;span style=&quot;color: rgb(255, 255, 255);&quot;&gt;mask&lt;/span&gt;&amp;nbsp;&lt;span style=&quot;color: rgb(212, 212, 212);&quot;&gt;&amp;amp;&lt;/span&gt;&amp;nbsp;&lt;span style=&quot;color: rgb(219, 178, 15);&quot;&gt;MESH_STATE&lt;/span&gt;.&lt;span style=&quot;color: rgb(255, 255, 255);&quot;&gt;IN_MOVE&lt;/span&gt;)&amp;nbsp;&lt;span style=&quot;color: rgb(212, 212, 212);&quot;&gt;===&lt;/span&gt;&amp;nbsp;&lt;span style=&quot;color: rgb(219, 205, 15);&quot;&gt;0&lt;/span&gt;) {&lt;/div&gt;&lt;br&gt;&lt;div&gt;&amp;nbsp; &amp;nbsp; &amp;nbsp;&amp;nbsp;&lt;span style=&quot;color: rgb(74, 97, 64);&quot;&gt;// If bar out of hover, delete the timeInterval for moving the handle&lt;/span&gt;&lt;/div&gt;&lt;div&gt;&amp;nbsp; &amp;nbsp; &amp;nbsp;&amp;nbsp;&lt;span style=&quot;color: rgb(0, 187, 255);&quot;&gt;const&lt;/span&gt;&amp;nbsp;&lt;span style=&quot;color: rgb(219, 178, 15);&quot;&gt;intervalIdx&lt;/span&gt;&amp;nbsp;&lt;span style=&quot;color: rgb(212, 212, 212);&quot;&gt;=&lt;/span&gt;&amp;nbsp;&lt;span style=&quot;color: rgb(175, 240, 255);&quot;&gt;bar&lt;/span&gt;.&lt;span style=&quot;color: rgb(255, 255, 255);&quot;&gt;timeIntervalsIdxBuffer&lt;/span&gt;.&lt;span style=&quot;color: rgb(255, 255, 255);&quot;&gt;buffer&lt;/span&gt;[&lt;span style=&quot;color: rgb(219, 205, 15);&quot;&gt;0&lt;/span&gt;];&lt;/div&gt;&lt;div&gt;&amp;nbsp; &amp;nbsp; &amp;nbsp;&amp;nbsp;&lt;span style=&quot;color: rgb(5, 130, 255);&quot;&gt;TimeIntervalsDestroyByIdx&lt;/span&gt;(&lt;span style=&quot;color: rgb(219, 178, 15);&quot;&gt;intervalIdx&lt;/span&gt;);&lt;/div&gt;&lt;div&gt;&amp;nbsp; &amp;nbsp; &amp;nbsp;&amp;nbsp;&lt;span style=&quot;color: rgb(175, 240, 255);&quot;&gt;bar&lt;/span&gt;.&lt;span style=&quot;color: rgb(255, 255, 255);&quot;&gt;timeIntervalsIdxBuffer&lt;/span&gt;.&lt;span style=&quot;color: rgb(5, 130, 255);&quot;&gt;RemoveByIdx&lt;/span&gt;(&lt;span style=&quot;color: rgb(219, 205, 15);&quot;&gt;0&lt;/span&gt;);&amp;nbsp;&lt;span style=&quot;color: rgb(74, 97, 64);&quot;&gt;// HACK&lt;/span&gt;&lt;/div&gt;&lt;br&gt;&lt;div&gt;&amp;nbsp; &amp;nbsp; &amp;nbsp;&amp;nbsp;&lt;span style=&quot;color: rgb(202, 56, 255);&quot;&gt;return&lt;/span&gt;;&lt;/div&gt;&lt;div&gt;&amp;nbsp; &amp;nbsp;}&lt;/div&gt;&lt;br&gt;&lt;div&gt;&amp;nbsp; &amp;nbsp;&lt;span style=&quot;color: rgb(0, 187, 255);&quot;&gt;const&lt;/span&gt;&amp;nbsp;&lt;span style=&quot;color: rgb(219, 178, 15);&quot;&gt;barLeft&lt;/span&gt;&amp;nbsp;&lt;span style=&quot;color: rgb(212, 212, 212);&quot;&gt;=&lt;/span&gt;&amp;nbsp;&lt;span style=&quot;color: rgb(175, 240, 255);&quot;&gt;bar&lt;/span&gt;.&lt;span style=&quot;color: rgb(255, 255, 255);&quot;&gt;geom&lt;/span&gt;.&lt;span style=&quot;color: rgb(255, 255, 255);&quot;&gt;pos&lt;/span&gt;[&lt;span style=&quot;color: rgb(219, 205, 15);&quot;&gt;0&lt;/span&gt;]&amp;nbsp;&lt;span style=&quot;color: rgb(212, 212, 212);&quot;&gt;-&lt;/span&gt;&amp;nbsp;&lt;span style=&quot;color: rgb(175, 240, 255);&quot;&gt;bar&lt;/span&gt;.&lt;span style=&quot;color: rgb(255, 255, 255);&quot;&gt;geom&lt;/span&gt;.&lt;span style=&quot;color: rgb(255, 255, 255);&quot;&gt;dim&lt;/span&gt;[&lt;span style=&quot;color: rgb(219, 205, 15);&quot;&gt;0&lt;/span&gt;];&lt;/div&gt;&lt;div&gt;&amp;nbsp; &amp;nbsp;&lt;span style=&quot;color: rgb(0, 187, 255);&quot;&gt;const&lt;/span&gt;&amp;nbsp;&lt;span style=&quot;color: rgb(219, 178, 15);&quot;&gt;barRight&lt;/span&gt;&amp;nbsp;&lt;span style=&quot;color: rgb(212, 212, 212);&quot;&gt;=&lt;/span&gt;&amp;nbsp;&lt;span style=&quot;color: rgb(175, 240, 255);&quot;&gt;bar&lt;/span&gt;.&lt;span style=&quot;color: rgb(255, 255, 255);&quot;&gt;geom&lt;/span&gt;.&lt;span style=&quot;color: rgb(255, 255, 255);&quot;&gt;pos&lt;/span&gt;[&lt;span style=&quot;color: rgb(219, 205, 15);&quot;&gt;0&lt;/span&gt;]&amp;nbsp;&lt;span style=&quot;color: rgb(212, 212, 212);&quot;&gt;+&lt;/span&gt;&amp;nbsp;&lt;span style=&quot;color: rgb(175, 240, 255);&quot;&gt;bar&lt;/span&gt;.&lt;span style=&quot;color: rgb(255, 255, 255);&quot;&gt;geom&lt;/span&gt;.&lt;span style=&quot;color: rgb(255, 255, 255);&quot;&gt;dim&lt;/span&gt;[&lt;span style=&quot;color: rgb(219, 205, 15);&quot;&gt;0&lt;/span&gt;];&lt;/div&gt;&lt;br&gt;&lt;div&gt;&amp;nbsp; &amp;nbsp;&lt;span style=&quot;color: rgb(202, 56, 255);&quot;&gt;if&lt;/span&gt;&amp;nbsp;(&lt;span style=&quot;color: rgb(219, 178, 15);&quot;&gt;x&lt;/span&gt;&amp;nbsp;&lt;span style=&quot;color: rgb(212, 212, 212);&quot;&gt;&amp;gt;&lt;/span&gt;&amp;nbsp;&lt;span style=&quot;color: rgb(219, 178, 15);&quot;&gt;barLeft&lt;/span&gt;&amp;nbsp;&lt;span style=&quot;color: rgb(212, 212, 212);&quot;&gt;&amp;amp;&amp;amp;&lt;/span&gt;&amp;nbsp;&lt;span style=&quot;color: rgb(219, 178, 15);&quot;&gt;x&lt;/span&gt;&amp;nbsp;&amp;nbsp;&lt;span style=&quot;color: rgb(212, 212, 212);&quot;&gt;&amp;lt;&lt;/span&gt;&amp;nbsp;&lt;span style=&quot;color: rgb(219, 178, 15);&quot;&gt;barRight&lt;/span&gt;)&lt;/div&gt;&lt;div&gt;&amp;nbsp; &amp;nbsp; &amp;nbsp;&amp;nbsp;&lt;span style=&quot;color: rgb(175, 240, 255);&quot;&gt;handle&lt;/span&gt;.&lt;span style=&quot;color: rgb(255, 255, 255);&quot;&gt;geom&lt;/span&gt;.&lt;span style=&quot;color: rgb(5, 130, 255);&quot;&gt;SetPosX&lt;/span&gt;(&lt;span style=&quot;color: rgb(219, 178, 15);&quot;&gt;x&lt;/span&gt;,&amp;nbsp;&lt;span style=&quot;color: rgb(175, 240, 255);&quot;&gt;handle&lt;/span&gt;.&lt;span style=&quot;color: rgb(255, 255, 255);&quot;&gt;gfx&lt;/span&gt;)&lt;/div&gt;&lt;br&gt;&lt;div&gt;&amp;nbsp; &amp;nbsp;&lt;span style=&quot;color: rgb(202, 56, 255);&quot;&gt;else&lt;/span&gt;&amp;nbsp;&lt;span style=&quot;color: rgb(202, 56, 255);&quot;&gt;if&lt;/span&gt;&amp;nbsp;(&lt;span style=&quot;color: rgb(219, 178, 15);&quot;&gt;x&lt;/span&gt;&amp;nbsp;&lt;span style=&quot;color: rgb(212, 212, 212);&quot;&gt;&amp;gt;&lt;/span&gt;&amp;nbsp;&lt;span style=&quot;color: rgb(219, 178, 15);&quot;&gt;barRight&lt;/span&gt;)&lt;/div&gt;&lt;div&gt;&amp;nbsp; &amp;nbsp; &amp;nbsp;&amp;nbsp;&lt;span style=&quot;color: rgb(175, 240, 255);&quot;&gt;handle&lt;/span&gt;.&lt;span style=&quot;color: rgb(255, 255, 255);&quot;&gt;geom&lt;/span&gt;.&lt;span style=&quot;color: rgb(5, 130, 255);&quot;&gt;SetPosX&lt;/span&gt;(&lt;span style=&quot;color: rgb(219, 178, 15);&quot;&gt;barRight&lt;/span&gt;,&amp;nbsp;&lt;span style=&quot;color: rgb(175, 240, 255);&quot;&gt;handle&lt;/span&gt;.&lt;span style=&quot;color: rgb(255, 255, 255);&quot;&gt;gfx&lt;/span&gt;)&lt;/div&gt;&lt;br&gt;&lt;div&gt;&amp;nbsp; &amp;nbsp;&lt;span style=&quot;color: rgb(202, 56, 255);&quot;&gt;else&lt;/span&gt;&amp;nbsp;&lt;span style=&quot;color: rgb(202, 56, 255);&quot;&gt;if&lt;/span&gt;&amp;nbsp;(&lt;span style=&quot;color: rgb(219, 178, 15);&quot;&gt;x&lt;/span&gt;&amp;nbsp;&lt;span style=&quot;color: rgb(212, 212, 212);&quot;&gt;&amp;lt;&lt;/span&gt;&amp;nbsp;&lt;span style=&quot;color: rgb(219, 178, 15);&quot;&gt;barLeft&lt;/span&gt;)&lt;/div&gt;&lt;div&gt;&amp;nbsp; &amp;nbsp; &amp;nbsp;&amp;nbsp;&lt;span style=&quot;color: rgb(175, 240, 255);&quot;&gt;handle&lt;/span&gt;.&lt;span style=&quot;color: rgb(255, 255, 255);&quot;&gt;geom&lt;/span&gt;.&lt;span style=&quot;color: rgb(5, 130, 255);&quot;&gt;SetPosX&lt;/span&gt;(&lt;span style=&quot;color: rgb(219, 178, 15);&quot;&gt;barLeft&lt;/span&gt;,&amp;nbsp;&lt;span style=&quot;color: rgb(175, 240, 255);&quot;&gt;handle&lt;/span&gt;.&lt;span style=&quot;color: rgb(255, 255, 255);&quot;&gt;gfx&lt;/span&gt;)&lt;/div&gt;&lt;div&gt;}&lt;/div&gt;&lt;/div&gt;&lt;/div&gt;" style="rounded=0;whiteSpace=wrap;html=1;fillColor=default;fontColor=#ffffff;strokeColor=default;align=left;gradientColor=none;perimeterSpacing=0;glass=0;shadow=0;perimeter=rectanglePerimeter;container=1;collapsible=0;autosize=0;recursiveResize=0;movable=1;comic=0;verticalAlign=top;" parent="227" vertex="1">
                    <mxGeometry x="24.5" y="62" width="586" height="608" as="geometry">
                        <mxRectangle x="1454" y="-2812" width="140" height="25" as="alternateBounds"/>
                    </mxGeometry>
                </mxCell>
                <mxCell id="232" style="edgeStyle=none;html=1;exitX=1;exitY=0.5;exitDx=0;exitDy=0;entryX=0;entryY=0.5;entryDx=0;entryDy=0;startArrow=none;" parent="1" source="233" target="229" edge="1">
                    <mxGeometry relative="1" as="geometry"/>
                </mxCell>
                <mxCell id="228" value="slider" style="rounded=1;whiteSpace=wrap;html=1;fillColor=#008a00;fontColor=#ffffff;strokeColor=#005700;" parent="1" vertex="1">
                    <mxGeometry x="1396" y="-3881" width="66" height="37" as="geometry"/>
                </mxCell>
                <mxCell id="231" style="edgeStyle=none;html=1;exitX=1;exitY=0.5;exitDx=0;exitDy=0;entryX=0;entryY=0.5;entryDx=0;entryDy=0;startArrow=none;" parent="1" source="243" target="230" edge="1">
                    <mxGeometry relative="1" as="geometry"/>
                </mxCell>
                <mxCell id="229" value="popup" style="rounded=1;whiteSpace=wrap;html=1;fillColor=#008a00;fontColor=#ffffff;strokeColor=#005700;" parent="1" vertex="1">
                    <mxGeometry x="1598" y="-4010" width="66" height="37" as="geometry"/>
                </mxCell>
                <mxCell id="236" style="edgeStyle=none;html=1;exitX=0.5;exitY=1;exitDx=0;exitDy=0;entryX=0.5;entryY=0;entryDx=0;entryDy=0;" parent="1" source="230" target="235" edge="1">
                    <mxGeometry relative="1" as="geometry"/>
                </mxCell>
                <mxCell id="230" value="mesh 1&lt;br&gt;mesh 2&lt;br&gt;'''" style="rounded=1;whiteSpace=wrap;html=1;fillColor=#008a00;fontColor=#ffffff;strokeColor=#005700;" parent="1" vertex="1">
                    <mxGeometry x="1818" y="-4021" width="66" height="59" as="geometry"/>
                </mxCell>
                <mxCell id="234" value="" style="edgeStyle=none;html=1;exitX=1;exitY=0.5;exitDx=0;exitDy=0;entryX=0;entryY=0.5;entryDx=0;entryDy=0;endArrow=none;" parent="1" source="228" target="233" edge="1">
                    <mxGeometry relative="1" as="geometry">
                        <mxPoint x="1559.0000000000005" y="-3895.5" as="sourcePoint"/>
                        <mxPoint x="1652" y="-3980.5" as="targetPoint"/>
                    </mxGeometry>
                </mxCell>
                <mxCell id="233" value="onClick" style="ellipse;whiteSpace=wrap;html=1;fillColor=#1ba1e2;fontColor=#ffffff;strokeColor=#006EAF;" parent="1" vertex="1">
                    <mxGeometry x="1467" y="-3980" width="96" height="60" as="geometry"/>
                </mxCell>
                <mxCell id="239" style="edgeStyle=none;html=1;exitX=0;exitY=1;exitDx=0;exitDy=0;entryX=1;entryY=0.5;entryDx=0;entryDy=0;" parent="1" source="235" target="237" edge="1">
                    <mxGeometry relative="1" as="geometry"/>
                </mxCell>
                <mxCell id="235" value="onClick" style="ellipse;whiteSpace=wrap;html=1;fillColor=#1ba1e2;fontColor=#ffffff;strokeColor=#006EAF;" parent="1" vertex="1">
                    <mxGeometry x="1811" y="-3865" width="96" height="60" as="geometry"/>
                </mxCell>
                <mxCell id="240" style="edgeStyle=none;html=1;exitX=0.5;exitY=0;exitDx=0;exitDy=0;entryX=1;entryY=0.5;entryDx=0;entryDy=0;" parent="1" source="237" target="238" edge="1">
                    <mxGeometry relative="1" as="geometry"/>
                </mxCell>
                <mxCell id="245" value="&lt;font style=&quot;font-size: 15px;&quot;&gt;Has&lt;/font&gt;" style="edgeLabel;html=1;align=center;verticalAlign=middle;resizable=0;points=[];" parent="240" vertex="1" connectable="0">
                    <mxGeometry x="-0.4183" y="-1" relative="1" as="geometry">
                        <mxPoint as="offset"/>
                    </mxGeometry>
                </mxCell>
                <mxCell id="241" style="edgeStyle=none;html=1;exitX=0;exitY=0.5;exitDx=0;exitDy=0;entryX=1;entryY=0.5;entryDx=0;entryDy=0;" parent="1" source="237" target="228" edge="1">
                    <mxGeometry relative="1" as="geometry"/>
                </mxCell>
                <mxCell id="237" value="Callback&lt;br&gt;Function to&lt;br&gt;Connect" style="ellipse;whiteSpace=wrap;html=1;fillColor=#1ba1e2;fontColor=#ffffff;strokeColor=#006EAF;" parent="1" vertex="1">
                    <mxGeometry x="1628" y="-3817" width="96" height="60" as="geometry"/>
                </mxCell>
                <mxCell id="238" value="mesh 1" style="rounded=1;whiteSpace=wrap;html=1;fillColor=#008a00;fontColor=#ffffff;strokeColor=#005700;" parent="1" vertex="1">
                    <mxGeometry x="1563" y="-3894" width="66" height="37" as="geometry"/>
                </mxCell>
                <mxCell id="244" value="" style="edgeStyle=none;html=1;exitX=1;exitY=0.5;exitDx=0;exitDy=0;entryX=0;entryY=0.5;entryDx=0;entryDy=0;endArrow=none;" parent="1" source="229" target="243" edge="1">
                    <mxGeometry relative="1" as="geometry">
                        <mxPoint x="1672" y="-3980.5" as="sourcePoint"/>
                        <mxPoint x="1783" y="-3980.5" as="targetPoint"/>
                    </mxGeometry>
                </mxCell>
                <mxCell id="243" value="Create options &lt;br&gt;menu" style="ellipse;whiteSpace=wrap;html=1;fillColor=#1ba1e2;fontColor=#ffffff;strokeColor=#006EAF;" parent="1" vertex="1">
                    <mxGeometry x="1689" y="-4062" width="96" height="60" as="geometry"/>
                </mxCell>
                <mxCell id="246" value="Slider connection with arbitary mesh specific's function" style="rounded=1;whiteSpace=wrap;html=1;" parent="1" vertex="1">
                    <mxGeometry x="1471" y="-4191" width="380" height="45" as="geometry"/>
                </mxCell>
                <mxCell id="247" value="Event Implementation" style="rounded=1;whiteSpace=wrap;html=1;strokeWidth=2;fontSize=35;" parent="1" vertex="1">
                    <mxGeometry x="-956" y="-6003" width="380" height="131" as="geometry"/>
                </mxCell>
                <mxCell id="265" style="edgeStyle=none;html=1;exitX=0;exitY=0.5;exitDx=0;exitDy=0;strokeWidth=2;fontSize=15;entryX=1;entryY=0;entryDx=0;entryDy=0;" parent="1" source="299" target="266" edge="1">
                    <mxGeometry relative="1" as="geometry">
                        <mxPoint x="427.5" y="-5088" as="sourcePoint"/>
                        <mxPoint x="-387.5" y="-5551" as="targetPoint"/>
                    </mxGeometry>
                </mxCell>
                <mxCell id="322" style="edgeStyle=orthogonalEdgeStyle;html=1;exitX=0.5;exitY=1;exitDx=0;exitDy=0;entryX=0.5;entryY=1;entryDx=0;entryDy=0;strokeWidth=2;fontSize=20;fontColor=#FFFFFF;" parent="1" source="266" target="314" edge="1">
                    <mxGeometry relative="1" as="geometry">
                        <Array as="points">
                            <mxPoint x="37" y="-4728"/>
                            <mxPoint x="-975" y="-4728"/>
                        </Array>
                    </mxGeometry>
                </mxCell>
                <mxCell id="266" value="&lt;div style=&quot;color: rgb(204, 204, 204); background-color: rgb(21, 21, 21); font-family: Consolas, &amp;quot;Courier New&amp;quot;, monospace; font-size: 14px; line-height: 19px;&quot;&gt;&lt;div style=&quot;line-height: 19px;&quot;&gt;&lt;div&gt;&amp;nbsp; &amp;nbsp; &lt;span style=&quot;color: #00bbff;&quot;&gt;function&lt;/span&gt; &lt;span style=&quot;color: #0582ff;&quot;&gt;HndleImmidiate&lt;/span&gt;(&lt;span style=&quot;color: #aff0ff;&quot;&gt;event_type, params&lt;/span&gt;){&lt;/div&gt;&lt;br&gt;&lt;div&gt;&amp;nbsp; &amp;nbsp; &amp;nbsp; &amp;nbsp; &lt;span style=&quot;color: #00bbff;&quot;&gt;const&lt;/span&gt; &lt;span style=&quot;color: #dbb20f;&quot;&gt;listeners&lt;/span&gt; &lt;span style=&quot;color: #d4d4d4;&quot;&gt;=&lt;/span&gt; &lt;span style=&quot;color: #0582ff;&quot;&gt;GetListeners&lt;/span&gt;();&lt;/div&gt;&lt;br&gt;&lt;div&gt;&amp;nbsp; &amp;nbsp; &amp;nbsp; &amp;nbsp; &lt;span style=&quot;color: #ca38ff;&quot;&gt;for&lt;/span&gt;(&lt;span style=&quot;color: #ebebeb;&quot;&gt;i&lt;/span&gt; &lt;span style=&quot;color: #569cd6;&quot;&gt;in&lt;/span&gt; &lt;span style=&quot;color: #dbb20f;&quot;&gt;listeners&lt;/span&gt;.&lt;span style=&quot;color: #ffffff;&quot;&gt;buffer&lt;/span&gt;[&lt;span style=&quot;color: #aff0ff;&quot;&gt;event_type&lt;/span&gt;]){&lt;/div&gt;&lt;div&gt;&amp;nbsp; &amp;nbsp; &amp;nbsp; &amp;nbsp; &amp;nbsp; &amp;nbsp; &lt;/div&gt;&lt;div&gt;&amp;nbsp; &amp;nbsp; &amp;nbsp; &amp;nbsp; &amp;nbsp; &amp;nbsp; &lt;span style=&quot;color: #dbb20f;&quot;&gt;listeners&lt;/span&gt;.&lt;span style=&quot;color: #ffffff;&quot;&gt;buffer&lt;/span&gt;[&lt;span style=&quot;color: #aff0ff;&quot;&gt;event_type&lt;/span&gt;].&lt;span style=&quot;color: #ffffff;&quot;&gt;events&lt;/span&gt;[&lt;span style=&quot;color: #ebebeb;&quot;&gt;i&lt;/span&gt;].&lt;span style=&quot;color: #0582ff;&quot;&gt;Clbk&lt;/span&gt;(params);&lt;/div&gt;&lt;div&gt;&amp;nbsp; &amp;nbsp; &amp;nbsp; &amp;nbsp; }&lt;/div&gt;&lt;div style=&quot;&quot;&gt;&amp;nbsp; &amp;nbsp; }&lt;/div&gt;&lt;/div&gt;&lt;/div&gt;" style="rounded=1;whiteSpace=wrap;html=1;fontSize=15;fillColor=#d80073;fontColor=#ffffff;strokeColor=#A50040;align=left;" parent="1" vertex="1">
                    <mxGeometry x="-189.5" y="-5017" width="454" height="213" as="geometry"/>
                </mxCell>
                <mxCell id="287" style="edgeStyle=none;html=1;exitX=1;exitY=0.5;exitDx=0;exitDy=0;entryX=0;entryY=0.5;entryDx=0;entryDy=0;strokeWidth=2;fontSize=20;fontColor=#FFFFFF;" parent="1" source="268" target="275" edge="1">
                    <mxGeometry relative="1" as="geometry"/>
                </mxCell>
                <mxCell id="317" style="edgeStyle=none;html=1;exitX=1;exitY=0.5;exitDx=0;exitDy=0;entryX=0.5;entryY=0;entryDx=0;entryDy=0;strokeWidth=2;fontSize=20;fontColor=#FFFFFF;" parent="1" source="268" target="314" edge="1">
                    <mxGeometry relative="1" as="geometry"/>
                </mxCell>
                <mxCell id="268" value="&lt;font color=&quot;#ffffff&quot;&gt;Mesh&lt;/font&gt;" style="rounded=1;whiteSpace=wrap;html=1;fontSize=15;fillColor=#fa6800;fontColor=#000000;strokeColor=#C73500;" parent="1" vertex="1">
                    <mxGeometry x="-1320" y="-5446" width="120" height="60" as="geometry"/>
                </mxCell>
                <mxCell id="288" style="edgeStyle=none;html=1;exitX=1;exitY=0.5;exitDx=0;exitDy=0;entryX=0;entryY=0.5;entryDx=0;entryDy=0;strokeWidth=2;fontSize=20;fontColor=#FFFFFF;" parent="1" source="271" target="273" edge="1">
                    <mxGeometry relative="1" as="geometry"/>
                </mxCell>
                <mxCell id="271" value="&lt;font color=&quot;#ffffff&quot;&gt;App&lt;/font&gt;" style="rounded=1;whiteSpace=wrap;html=1;fontSize=15;fillColor=#fa6800;fontColor=#000000;strokeColor=#C73500;" parent="1" vertex="1">
                    <mxGeometry x="-887" y="-5682" width="120" height="60" as="geometry"/>
                </mxCell>
                <mxCell id="284" style="edgeStyle=none;html=1;exitX=0.5;exitY=1;exitDx=0;exitDy=0;entryX=0.5;entryY=0;entryDx=0;entryDy=0;strokeWidth=2;fontSize=20;fontColor=#FFFFFF;" parent="1" source="273" target="275" edge="1">
                    <mxGeometry relative="1" as="geometry"/>
                </mxCell>
                <mxCell id="273" value="&lt;div style=&quot;color: rgb(204, 204, 204); background-color: rgb(21, 21, 21); font-family: Consolas, &amp;quot;Courier New&amp;quot;, monospace; font-size: 14px; line-height: 19px;&quot;&gt;&lt;div style=&quot;line-height: 19px;&quot;&gt;&lt;div style=&quot;line-height: 19px;&quot;&gt;&lt;div&gt;&amp;nbsp; &amp;nbsp; &lt;span style=&quot;color: #ebebeb;&quot;&gt;mesh&lt;/span&gt; &lt;span style=&quot;color: #d4d4d4;&quot;&gt;=&lt;/span&gt; &lt;span style=&quot;color: #ff00ae;&quot;&gt;new&lt;/span&gt; &lt;span style=&quot;color: #0582ff;&quot;&gt;Mesh&lt;/span&gt;();&lt;/div&gt;&lt;div&gt;&amp;nbsp; &amp;nbsp; &lt;span style=&quot;color: #ebebeb;&quot;&gt;mesh&lt;/span&gt;.&lt;span style=&quot;color: #0582ff;&quot;&gt;CreateListenEvent&lt;/span&gt;(&lt;span style=&quot;color: #e13036;&quot;&gt;'TYPE'&lt;/span&gt;, &lt;span style=&quot;color: #ebebeb;&quot;&gt;Clbk&lt;/span&gt;);&lt;/div&gt;&lt;/div&gt;&lt;/div&gt;&lt;/div&gt;" style="rounded=1;whiteSpace=wrap;html=1;fontSize=15;fillColor=#1ba1e2;fontColor=#ffffff;strokeColor=#006EAF;align=left;" parent="1" vertex="1">
                    <mxGeometry x="-698.5" y="-5680" width="335" height="58" as="geometry"/>
                </mxCell>
                <mxCell id="275" value="&lt;div style=&quot;color: rgb(204, 204, 204); background-color: rgb(21, 21, 21); font-family: Consolas, &amp;quot;Courier New&amp;quot;, monospace; font-size: 14px; line-height: 19px;&quot;&gt;&lt;div style=&quot;line-height: 19px;&quot;&gt;&lt;div style=&quot;line-height: 19px;&quot;&gt;&lt;div style=&quot;line-height: 19px;&quot;&gt;&lt;div&gt;&amp;nbsp; &amp;nbsp; &lt;span style=&quot;color: #0582ff;&quot;&gt;CreateListenEvent&lt;/span&gt;(&lt;span style=&quot;color: #e13036;&quot;&gt;'TYPE'&lt;/span&gt;, &lt;span style=&quot;color: #ebebeb;&quot;&gt;Clbk&lt;/span&gt;){&lt;/div&gt;&lt;br&gt;&lt;div&gt;&amp;nbsp; &amp;nbsp; &amp;nbsp; &amp;nbsp; &lt;span style=&quot;color: #0582ff;&quot;&gt;Listeners_add_event&lt;/span&gt;(&lt;span style=&quot;color: #e13036;&quot;&gt;'TYPE'&lt;/span&gt;, &lt;span style=&quot;color: #ebebeb;&quot;&gt;Clbk&lt;/span&gt;);&lt;/div&gt;&lt;div&gt;&amp;nbsp; &amp;nbsp; }&lt;/div&gt;&lt;/div&gt;&lt;/div&gt;&lt;/div&gt;&lt;/div&gt;" style="rounded=1;whiteSpace=wrap;html=1;fontSize=15;fillColor=#1ba1e2;fontColor=#ffffff;strokeColor=#006EAF;align=left;" parent="1" vertex="1">
                    <mxGeometry x="-693.5" y="-5465" width="330" height="98" as="geometry"/>
                </mxCell>
                <mxCell id="286" style="edgeStyle=none;html=1;exitX=1;exitY=0.5;exitDx=0;exitDy=0;entryX=0;entryY=0.5;entryDx=0;entryDy=0;strokeWidth=2;fontSize=20;fontColor=#FFFFFF;" parent="1" source="278" target="279" edge="1">
                    <mxGeometry relative="1" as="geometry"/>
                </mxCell>
                <mxCell id="278" value="&lt;font color=&quot;#ffffff&quot;&gt;Listeners&lt;/font&gt;" style="rounded=1;whiteSpace=wrap;html=1;fontSize=15;fillColor=#fa6800;fontColor=#000000;strokeColor=#C73500;" parent="1" vertex="1">
                    <mxGeometry x="-871" y="-4940.5" width="120" height="60" as="geometry"/>
                </mxCell>
                <mxCell id="308" style="edgeStyle=none;html=1;exitX=1;exitY=0.5;exitDx=0;exitDy=0;entryX=0;entryY=0.5;entryDx=0;entryDy=0;strokeWidth=2;fontSize=20;fontColor=#FFFFFF;" parent="1" source="279" target="266" edge="1">
                    <mxGeometry relative="1" as="geometry"/>
                </mxCell>
                <mxCell id="279" value="&lt;div style=&quot;color: rgb(204, 204, 204); background-color: rgb(21, 21, 21); font-family: Consolas, &amp;quot;Courier New&amp;quot;, monospace; font-size: 14px; line-height: 19px;&quot;&gt;&lt;div style=&quot;line-height: 19px;&quot;&gt;&lt;div style=&quot;line-height: 19px;&quot;&gt;&lt;div style=&quot;line-height: 19px;&quot;&gt;&lt;div style=&quot;line-height: 19px;&quot;&gt;&lt;div&gt;&amp;nbsp; &amp;nbsp; &lt;span style=&quot;color: #0582ff;&quot;&gt;Listeners_add_event&lt;/span&gt;(&lt;span style=&quot;color: #e13036;&quot;&gt;'TYPE'&lt;/span&gt;, &lt;span style=&quot;color: #ebebeb;&quot;&gt;Clbk&lt;/span&gt;){&lt;/div&gt;&lt;br&gt;&lt;div&gt;&amp;nbsp; &amp;nbsp; &amp;nbsp; &amp;nbsp; &lt;span style=&quot;color: #569cd6;&quot;&gt;this&lt;/span&gt;.&lt;span style=&quot;color: #ffffff;&quot;&gt;buffer&lt;/span&gt;[&lt;span style=&quot;color: #e13036;&quot;&gt;'TYPE'&lt;/span&gt;].&lt;span style=&quot;color: #0582ff;&quot;&gt;Add&lt;/span&gt;(&lt;span style=&quot;color: #ebebeb;&quot;&gt;Clbk&lt;/span&gt;);&lt;/div&gt;&lt;div&gt;&amp;nbsp; &amp;nbsp; }&lt;/div&gt;&lt;/div&gt;&lt;/div&gt;&lt;/div&gt;&lt;/div&gt;&lt;/div&gt;" style="rounded=1;whiteSpace=wrap;html=1;fontSize=15;fillColor=#1ba1e2;fontColor=#ffffff;strokeColor=#006EAF;align=left;" parent="1" vertex="1">
                    <mxGeometry x="-679.5" y="-4959.5" width="302" height="98" as="geometry"/>
                </mxCell>
                <mxCell id="283" style="edgeStyle=none;html=1;exitX=0.5;exitY=1;exitDx=0;exitDy=0;entryX=0.5;entryY=0;entryDx=0;entryDy=0;strokeWidth=2;fontSize=20;fontColor=#FFFFFF;" parent="1" source="282" target="266" edge="1">
                    <mxGeometry relative="1" as="geometry"/>
                </mxCell>
                <mxCell id="282" value="&lt;font color=&quot;#ffffff&quot;&gt;Event Handler&lt;/font&gt;" style="rounded=1;whiteSpace=wrap;html=1;fontSize=15;fillColor=#fa6800;fontColor=#000000;strokeColor=#C73500;" parent="1" vertex="1">
                    <mxGeometry x="-22.5" y="-5161" width="120" height="60" as="geometry"/>
                </mxCell>
                <mxCell id="292" value="&lt;div style=&quot;color: rgb(204, 204, 204); background-color: rgb(21, 21, 21); font-family: Consolas, &amp;quot;Courier New&amp;quot;, monospace; font-size: 14px; line-height: 19px;&quot;&gt;&lt;div style=&quot;line-height: 19px;&quot;&gt;&lt;div style=&quot;line-height: 19px;&quot;&gt;&lt;div style=&quot;line-height: 19px;&quot;&gt;&lt;div&gt;&amp;nbsp; &amp;nbsp; &lt;span style=&quot;color: #17daf0;&quot;&gt;CreateEvent&lt;/span&gt;(&lt;span style=&quot;color: #aff0ff;&quot;&gt;params&lt;/span&gt; &lt;span style=&quot;color: #d4d4d4;&quot;&gt;=&lt;/span&gt; {}) {&lt;/div&gt;&lt;br&gt;&lt;div&gt;&amp;nbsp; &amp;nbsp; &amp;nbsp; &amp;nbsp; &lt;span style=&quot;color: #00bbff;&quot;&gt;const&lt;/span&gt; &lt;span style=&quot;color: #dbb20f;&quot;&gt;eventIdx&lt;/span&gt; &lt;span style=&quot;color: #d4d4d4;&quot;&gt;=&lt;/span&gt; &lt;span style=&quot;color: #569cd6;&quot;&gt;this&lt;/span&gt;.&lt;span style=&quot;color: #ffffff;&quot;&gt;eventCallbacks&lt;/span&gt;.&lt;span style=&quot;color: #17daf0;&quot;&gt;Add&lt;/span&gt;(&lt;span style=&quot;color: #aff0ff;&quot;&gt;params&lt;/span&gt;);&lt;/div&gt;&lt;div&gt;&amp;nbsp; &amp;nbsp; &amp;nbsp; &amp;nbsp; &lt;span style=&quot;color: #ca38ff;&quot;&gt;return&lt;/span&gt; &lt;span style=&quot;color: #dbb20f;&quot;&gt;eventIdx&lt;/span&gt;;&lt;/div&gt;&lt;div&gt;&amp;nbsp; &amp;nbsp; }&lt;/div&gt;&lt;/div&gt;&lt;/div&gt;&lt;/div&gt;&lt;/div&gt;" style="rounded=1;whiteSpace=wrap;html=1;fontSize=15;align=left;fillColor=#1ba1e2;fontColor=#ffffff;strokeColor=#006EAF;" parent="1" vertex="1">
                    <mxGeometry x="1318" y="-5991" width="460" height="136" as="geometry"/>
                </mxCell>
                <mxCell id="309" style="edgeStyle=none;html=1;exitX=1;exitY=0.5;exitDx=0;exitDy=0;entryX=0;entryY=0.5;entryDx=0;entryDy=0;strokeWidth=2;fontSize=20;fontColor=#FFFFFF;" parent="1" source="293" target="292" edge="1">
                    <mxGeometry relative="1" as="geometry"/>
                </mxCell>
                <mxCell id="293" value="&lt;font color=&quot;#ffffff&quot;&gt;Mesh&lt;/font&gt;" style="rounded=1;whiteSpace=wrap;html=1;fontSize=15;fillColor=#fa6800;fontColor=#000000;strokeColor=#C73500;" parent="1" vertex="1">
                    <mxGeometry x="1074" y="-5953" width="120" height="60" as="geometry"/>
                </mxCell>
                <mxCell id="294" value="&lt;div style=&quot;color: rgb(204, 204, 204); background-color: rgb(21, 21, 21); font-family: Consolas, &amp;quot;Courier New&amp;quot;, monospace; font-size: 14px; line-height: 19px;&quot;&gt;&lt;div style=&quot;line-height: 19px;&quot;&gt;&lt;div style=&quot;line-height: 19px;&quot;&gt;&lt;div style=&quot;line-height: 19px;&quot;&gt;&lt;div style=&quot;line-height: 19px;&quot;&gt;&lt;div&gt;&lt;span style=&quot;color: #ca38ff;&quot;&gt;export&lt;/span&gt; &lt;span style=&quot;color: #00bbff;&quot;&gt;function&lt;/span&gt; &lt;span style=&quot;color: #0582ff;&quot;&gt;Slider_bind_on_value_change&lt;/span&gt;(&lt;span style=&quot;color: #aff0ff;&quot;&gt;sliderBar&lt;/span&gt;, &lt;span style=&quot;color: #aff0ff;&quot;&gt;targetToBind&lt;/span&gt;, &lt;span style=&quot;color: #aff0ff;&quot;&gt;Clbk&lt;/span&gt;) {&lt;/div&gt;&lt;br&gt;&lt;div&gt;&amp;nbsp; &amp;nbsp;&lt;span style=&quot;color: #aff0ff;&quot;&gt;sliderBar&lt;/span&gt;.&lt;span style=&quot;color: #0582ff;&quot;&gt;CreateEvent&lt;/span&gt;({&lt;/div&gt;&lt;div&gt;&amp;nbsp; &amp;nbsp; &amp;nbsp; &lt;span style=&quot;color: #ffffff;&quot;&gt;params&lt;/span&gt;&lt;span style=&quot;color: #9cdcfe;&quot;&gt;:&lt;/span&gt;{&lt;/div&gt;&lt;div&gt;&amp;nbsp; &amp;nbsp; &amp;nbsp; &amp;nbsp; &amp;nbsp;&lt;span style=&quot;color: #17daf0;&quot;&gt;EventClbk&lt;/span&gt;&lt;span style=&quot;color: #9cdcfe;&quot;&gt;:&lt;/span&gt; &lt;span style=&quot;color: #0582ff;&quot;&gt;Slider_on_value_change&lt;/span&gt;,&lt;/div&gt;&lt;div&gt;&amp;nbsp; &amp;nbsp; &amp;nbsp; &amp;nbsp; &amp;nbsp;&lt;span style=&quot;color: #ffffff;&quot;&gt;target&lt;/span&gt;&lt;span style=&quot;color: #9cdcfe;&quot;&gt;:&lt;/span&gt; &amp;nbsp;&lt;span style=&quot;color: #aff0ff;&quot;&gt;targetToBind&lt;/span&gt;,&lt;/div&gt;&lt;div&gt;&amp;nbsp; &amp;nbsp; &amp;nbsp; &amp;nbsp; &amp;nbsp;&lt;span style=&quot;color: #ffffff;&quot;&gt;Clbk&lt;/span&gt;&lt;span style=&quot;color: #9cdcfe;&quot;&gt;:&lt;/span&gt; &lt;span style=&quot;color: #aff0ff;&quot;&gt;Clbk&lt;/span&gt;,&lt;/div&gt;&lt;div&gt;&amp;nbsp; &amp;nbsp; &amp;nbsp; }&lt;/div&gt;&lt;div&gt;&amp;nbsp; &amp;nbsp;});&lt;/div&gt;&lt;div&gt;&amp;nbsp; &amp;nbsp;&lt;/div&gt;&lt;div&gt;}&lt;/div&gt;&lt;/div&gt;&lt;/div&gt;&lt;/div&gt;&lt;/div&gt;&lt;/div&gt;" style="rounded=1;whiteSpace=wrap;html=1;fontSize=15;align=left;fillColor=#1ba1e2;fontColor=#ffffff;strokeColor=#006EAF;" parent="1" vertex="1">
                    <mxGeometry x="1272" y="-5527" width="654" height="247" as="geometry"/>
                </mxCell>
                <mxCell id="310" style="edgeStyle=none;html=1;exitX=1;exitY=0.5;exitDx=0;exitDy=0;entryX=0;entryY=0.5;entryDx=0;entryDy=0;strokeWidth=2;fontSize=20;fontColor=#FFFFFF;" parent="1" source="295" target="294" edge="1">
                    <mxGeometry relative="1" as="geometry"/>
                </mxCell>
                <mxCell id="311" style="edgeStyle=none;html=1;exitX=1;exitY=0.5;exitDx=0;exitDy=0;entryX=0;entryY=0.5;entryDx=0;entryDy=0;strokeWidth=2;fontSize=20;fontColor=#FFFFFF;" parent="1" source="295" target="296" edge="1">
                    <mxGeometry relative="1" as="geometry"/>
                </mxCell>
                <mxCell id="295" value="&lt;font color=&quot;#ffffff&quot;&gt;Slider&lt;/font&gt;" style="rounded=1;whiteSpace=wrap;html=1;fontSize=15;fillColor=#fa6800;fontColor=#000000;strokeColor=#C73500;" parent="1" vertex="1">
                    <mxGeometry x="1024" y="-5301" width="120" height="60" as="geometry"/>
                </mxCell>
                <mxCell id="296" value="&lt;div style=&quot;color: rgb(204, 204, 204); background-color: rgb(21, 21, 21); font-family: Consolas, &amp;quot;Courier New&amp;quot;, monospace; font-size: 14px; line-height: 19px;&quot;&gt;&lt;div style=&quot;line-height: 19px;&quot;&gt;&lt;div style=&quot;line-height: 19px;&quot;&gt;&lt;div style=&quot;line-height: 19px;&quot;&gt;&lt;div style=&quot;line-height: 19px;&quot;&gt;&lt;div style=&quot;line-height: 19px;&quot;&gt;&lt;div&gt;&lt;span style=&quot;color: #ca38ff;&quot;&gt;export&lt;/span&gt; &lt;span style=&quot;color: #00bbff;&quot;&gt;function&lt;/span&gt; &lt;span style=&quot;color: #0582ff;&quot;&gt;Slider_create_on_click_event&lt;/span&gt;(&lt;span style=&quot;color: #aff0ff;&quot;&gt;slidermesh&lt;/span&gt;, &lt;span style=&quot;color: #aff0ff;&quot;&gt;targetToBind&lt;/span&gt;, &lt;span style=&quot;color: #aff0ff;&quot;&gt;Clbk&lt;/span&gt;) {&lt;/div&gt;&lt;br&gt;&lt;div&gt;&amp;nbsp; &amp;nbsp;&lt;span style=&quot;color: #4a6140;&quot;&gt;// We need slider's bar, not slider widget.&lt;/span&gt;&lt;/div&gt;&lt;div&gt;&amp;nbsp; &amp;nbsp;&lt;span style=&quot;color: #00bbff;&quot;&gt;const&lt;/span&gt; &lt;span style=&quot;color: #dbb20f;&quot;&gt;bar&lt;/span&gt; &lt;span style=&quot;color: #d4d4d4;&quot;&gt;=&lt;/span&gt; &lt;span style=&quot;color: #aff0ff;&quot;&gt;slidermesh&lt;/span&gt;.&lt;span style=&quot;color: #ffffff;&quot;&gt;children&lt;/span&gt;.&lt;span style=&quot;color: #ffffff;&quot;&gt;buffer&lt;/span&gt;[&lt;span style=&quot;color: #ebebeb;&quot;&gt;BAR_IDX&lt;/span&gt;];&lt;/div&gt;&lt;div&gt;&amp;nbsp; &amp;nbsp;&lt;span style=&quot;color: #4a6140;&quot;&gt;// bar.CreateEvent(_Slider_create_on_click_event, bar, null);&lt;/span&gt;&lt;/div&gt;&lt;div&gt;&amp;nbsp; &amp;nbsp;&lt;span style=&quot;color: #dbb20f;&quot;&gt;bar&lt;/span&gt;.&lt;span style=&quot;color: #0582ff;&quot;&gt;CreateEvent&lt;/span&gt;({&lt;/div&gt;&lt;div&gt;&amp;nbsp; &amp;nbsp; &amp;nbsp; &lt;span style=&quot;color: #ffffff;&quot;&gt;params&lt;/span&gt;&lt;span style=&quot;color: #9cdcfe;&quot;&gt;:&lt;/span&gt;{&lt;/div&gt;&lt;div&gt;&amp;nbsp; &amp;nbsp; &amp;nbsp; &amp;nbsp; &amp;nbsp;&lt;span style=&quot;color: #17daf0;&quot;&gt;EventClbk&lt;/span&gt;&lt;span style=&quot;color: #9cdcfe;&quot;&gt;:&lt;/span&gt; &lt;span style=&quot;color: #0582ff;&quot;&gt;_Slider_create_on_click_event&lt;/span&gt;,&lt;/div&gt;&lt;div&gt;&amp;nbsp; &amp;nbsp; &amp;nbsp; &amp;nbsp; &amp;nbsp;&lt;span style=&quot;color: #ffffff;&quot;&gt;target&lt;/span&gt;&lt;span style=&quot;color: #9cdcfe;&quot;&gt;:&lt;/span&gt; &amp;nbsp;&lt;span style=&quot;color: #dbb20f;&quot;&gt;bar&lt;/span&gt;,&lt;/div&gt;&lt;div&gt;&amp;nbsp; &amp;nbsp; &amp;nbsp; &amp;nbsp; &amp;nbsp;&lt;span style=&quot;color: #ffffff;&quot;&gt;Clbk&lt;/span&gt;&lt;span style=&quot;color: #9cdcfe;&quot;&gt;:&lt;/span&gt; &lt;span style=&quot;color: #00bbff;&quot;&gt;null&lt;/span&gt;,&lt;/div&gt;&lt;div&gt;&amp;nbsp; &amp;nbsp; &amp;nbsp; }&lt;/div&gt;&lt;div&gt;&amp;nbsp; &amp;nbsp;});&lt;/div&gt;&lt;div&gt;&amp;nbsp; &amp;nbsp;&lt;/div&gt;&lt;div&gt;}&lt;/div&gt;&lt;/div&gt;&lt;/div&gt;&lt;/div&gt;&lt;/div&gt;&lt;/div&gt;&lt;/div&gt;" style="rounded=1;whiteSpace=wrap;html=1;fontSize=15;align=left;fillColor=#1ba1e2;fontColor=#ffffff;strokeColor=#006EAF;" parent="1" vertex="1">
                    <mxGeometry x="1272" y="-5245" width="672" height="294" as="geometry"/>
                </mxCell>
                <mxCell id="297" value="&lt;font color=&quot;#ffffff&quot;&gt;Event Handler&lt;/font&gt;" style="rounded=1;whiteSpace=wrap;html=1;fontSize=15;fillColor=#fa6800;fontColor=#000000;strokeColor=#C73500;" parent="1" vertex="1">
                    <mxGeometry x="2559" y="-5983" width="120" height="60" as="geometry"/>
                </mxCell>
                <mxCell id="305" style="edgeStyle=none;html=1;exitX=0.5;exitY=1;exitDx=0;exitDy=0;entryX=0.5;entryY=0;entryDx=0;entryDy=0;strokeWidth=2;fontSize=20;fontColor=#FFFFFF;" parent="1" source="298" target="304" edge="1">
                    <mxGeometry relative="1" as="geometry"/>
                </mxCell>
                <mxCell id="298" value="&lt;div style=&quot;color: rgb(204, 204, 204); background-color: rgb(21, 21, 21); font-family: Consolas, &amp;quot;Courier New&amp;quot;, monospace; font-size: 14px; line-height: 19px;&quot;&gt;&lt;div style=&quot;line-height: 19px;&quot;&gt;&lt;div style=&quot;line-height: 19px;&quot;&gt;&lt;div style=&quot;line-height: 19px;&quot;&gt;&lt;div style=&quot;line-height: 19px;&quot;&gt;&lt;div style=&quot;line-height: 19px;&quot;&gt;&lt;div&gt;&amp;nbsp; &amp;nbsp; &amp;nbsp; &amp;nbsp; &lt;span style=&quot;color: #ca38ff;&quot;&gt;else&lt;/span&gt; &lt;span style=&quot;color: #ca38ff;&quot;&gt;if&lt;/span&gt; (&lt;span style=&quot;color: #dbb20f;&quot;&gt;e&lt;/span&gt;.&lt;span style=&quot;color: #ffffff;&quot;&gt;type&lt;/span&gt; &lt;span style=&quot;color: #d4d4d4;&quot;&gt;===&lt;/span&gt; &lt;span style=&quot;color: #e13036;&quot;&gt;'mouse-click-down-hover'&lt;/span&gt;) {&lt;/div&gt;&lt;div&gt;&amp;nbsp; &amp;nbsp; &amp;nbsp; &amp;nbsp; &amp;nbsp; &amp;nbsp; &lt;span style=&quot;color: #4a6140;&quot;&gt;// console.debug('mouse-click-down-hover')&lt;/span&gt;&lt;/div&gt;&lt;br&gt;&lt;div&gt;&amp;nbsp; &amp;nbsp; &amp;nbsp; &amp;nbsp; &amp;nbsp; &amp;nbsp; &lt;span style=&quot;color: #00bbff;&quot;&gt;const&lt;/span&gt; &lt;span style=&quot;color: #dbb20f;&quot;&gt;mesh&lt;/span&gt; &lt;span style=&quot;color: #d4d4d4;&quot;&gt;=&lt;/span&gt; &lt;span style=&quot;color: #dbb20f;&quot;&gt;STATE&lt;/span&gt;.&lt;span style=&quot;color: #ffffff;&quot;&gt;mesh&lt;/span&gt;.&lt;span style=&quot;color: #ffffff;&quot;&gt;hovered&lt;/span&gt;;&lt;/div&gt;&lt;br&gt;&lt;div&gt;&amp;nbsp; &amp;nbsp; &amp;nbsp; &amp;nbsp; &amp;nbsp; &amp;nbsp; &lt;span style=&quot;color: #ebebeb;&quot;&gt;console&lt;/span&gt;.&lt;span style=&quot;color: #17daf0;&quot;&gt;debug&lt;/span&gt;(&lt;span style=&quot;color: #e13036;&quot;&gt;'meshId'&lt;/span&gt;, &lt;span style=&quot;color: #dbb20f;&quot;&gt;mesh&lt;/span&gt;.&lt;span style=&quot;color: #ffffff;&quot;&gt;id&lt;/span&gt;)&lt;/div&gt;&lt;br&gt;&lt;div&gt;&amp;nbsp; &amp;nbsp; &amp;nbsp; &amp;nbsp; &amp;nbsp; &amp;nbsp; &lt;span style=&quot;color: #ca38ff;&quot;&gt;if&lt;/span&gt; (&lt;span style=&quot;color: #dbb20f;&quot;&gt;mesh&lt;/span&gt;.&lt;span style=&quot;color: #0582ff;&quot;&gt;StateCheck&lt;/span&gt;(&lt;span style=&quot;color: #dbb20f;&quot;&gt;MESH_STATE&lt;/span&gt;.&lt;span style=&quot;color: #ffffff;&quot;&gt;IS_MOVABLE&lt;/span&gt;) &lt;span style=&quot;color: #d4d4d4;&quot;&gt;&amp;amp;&amp;amp;&lt;/span&gt; &lt;span style=&quot;color: #dbb20f;&quot;&gt;mesh&lt;/span&gt;.&lt;span style=&quot;color: #0582ff;&quot;&gt;StateCheck&lt;/span&gt;(&lt;span style=&quot;color: #dbb20f;&quot;&gt;MESH_STATE&lt;/span&gt;.&lt;span style=&quot;color: #ffffff;&quot;&gt;IN_MOVE&lt;/span&gt;) &lt;span style=&quot;color: #d4d4d4;&quot;&gt;===&lt;/span&gt; &lt;span style=&quot;color: #dbcd0f;&quot;&gt;0&lt;/span&gt;) {&lt;/div&gt;&lt;div&gt;&amp;nbsp; &amp;nbsp; &amp;nbsp; &amp;nbsp; &amp;nbsp; &amp;nbsp; &amp;nbsp; &amp;nbsp; &lt;span style=&quot;color: #dbb20f;&quot;&gt;mesh&lt;/span&gt;.&lt;span style=&quot;color: #0582ff;&quot;&gt;StateEnable&lt;/span&gt;(&lt;span style=&quot;color: #dbb20f;&quot;&gt;MESH_STATE&lt;/span&gt;.&lt;span style=&quot;color: #ffffff;&quot;&gt;IN_MOVE&lt;/span&gt;);&lt;/div&gt;&lt;div&gt;&amp;nbsp; &amp;nbsp; &amp;nbsp; &amp;nbsp; &amp;nbsp; &amp;nbsp; &amp;nbsp; &amp;nbsp; &lt;span style=&quot;color: #0582ff;&quot;&gt;RegisterEvent&lt;/span&gt;(&lt;span style=&quot;color: #e13036;&quot;&gt;'Move'&lt;/span&gt;, &lt;span style=&quot;color: #dbb20f;&quot;&gt;mesh&lt;/span&gt;)&lt;/div&gt;&lt;div&gt;&amp;nbsp; &amp;nbsp; &amp;nbsp; &amp;nbsp; &amp;nbsp; &amp;nbsp; }&lt;/div&gt;&lt;div&gt;&amp;nbsp; &amp;nbsp; &amp;nbsp; &amp;nbsp; &amp;nbsp; &amp;nbsp; &lt;/div&gt;&lt;div&gt;&amp;nbsp; &amp;nbsp; &amp;nbsp; &amp;nbsp; &amp;nbsp; &amp;nbsp; &lt;span style=&quot;color: #ca38ff;&quot;&gt;if&lt;/span&gt; (&lt;span style=&quot;color: #dbb20f;&quot;&gt;mesh&lt;/span&gt;.&lt;span style=&quot;color: #0582ff;&quot;&gt;StateCheck&lt;/span&gt;(&lt;span style=&quot;color: #dbb20f;&quot;&gt;MESH_STATE&lt;/span&gt;.&lt;span style=&quot;color: #ffffff;&quot;&gt;IS_GRABABLE&lt;/span&gt;)) {&lt;/div&gt;&lt;div&gt;&amp;nbsp; &amp;nbsp; &amp;nbsp; &amp;nbsp; &amp;nbsp; &amp;nbsp; &amp;nbsp; &amp;nbsp; &lt;/div&gt;&lt;div&gt;&amp;nbsp; &amp;nbsp; &amp;nbsp; &amp;nbsp; &amp;nbsp; &amp;nbsp; &amp;nbsp; &amp;nbsp; &lt;span style=&quot;color: #ebebeb;&quot;&gt;console&lt;/span&gt;.&lt;span style=&quot;color: #0582ff;&quot;&gt;log&lt;/span&gt;(&lt;span style=&quot;color: #e13036;&quot;&gt;'mouse-click-down-hover mesh grabed: '&lt;/span&gt;, &lt;span style=&quot;color: #ebebeb;&quot;&gt;mesh&lt;/span&gt;.&lt;span style=&quot;color: #ffffff;&quot;&gt;name&lt;/span&gt;)&lt;/div&gt;&lt;div&gt;&amp;nbsp; &amp;nbsp; &amp;nbsp; &amp;nbsp; &amp;nbsp; &amp;nbsp; &amp;nbsp; &amp;nbsp; &lt;span style=&quot;color: #dbb20f;&quot;&gt;STATE&lt;/span&gt;.&lt;span style=&quot;color: #ffffff;&quot;&gt;mesh&lt;/span&gt;.&lt;span style=&quot;color: #ffffff;&quot;&gt;grabed&lt;/span&gt; &lt;span style=&quot;color: #d4d4d4;&quot;&gt;=&lt;/span&gt; &lt;span style=&quot;color: #dbb20f;&quot;&gt;mesh&lt;/span&gt;;&lt;/div&gt;&lt;div&gt;&amp;nbsp; &amp;nbsp; &amp;nbsp; &amp;nbsp; &amp;nbsp; &amp;nbsp; &amp;nbsp; &amp;nbsp; &lt;span style=&quot;color: #dbb20f;&quot;&gt;STATE&lt;/span&gt;.&lt;span style=&quot;color: #ffffff;&quot;&gt;mesh&lt;/span&gt;.&lt;span style=&quot;color: #17daf0;&quot;&gt;SetGrabed&lt;/span&gt;(&lt;span style=&quot;color: #dbb20f;&quot;&gt;mesh&lt;/span&gt;);&lt;/div&gt;&lt;div&gt;&amp;nbsp; &amp;nbsp; &amp;nbsp; &amp;nbsp; &amp;nbsp; &amp;nbsp; &amp;nbsp; &amp;nbsp; &lt;span style=&quot;color: #dbb20f;&quot;&gt;mesh&lt;/span&gt;.&lt;span style=&quot;color: #0582ff;&quot;&gt;StateEnable&lt;/span&gt;(&lt;span style=&quot;color: #dbb20f;&quot;&gt;MESH_STATE&lt;/span&gt;.&lt;span style=&quot;color: #ffffff;&quot;&gt;IN_GRAB&lt;/span&gt;);&lt;/div&gt;&lt;div&gt;&amp;nbsp; &amp;nbsp; &amp;nbsp; &amp;nbsp; &amp;nbsp; &amp;nbsp; }&lt;/div&gt;&lt;br&gt;&lt;div&gt;&amp;nbsp; &amp;nbsp; &amp;nbsp; &amp;nbsp; &amp;nbsp; &amp;nbsp; &lt;span style=&quot;color: #ca38ff;&quot;&gt;if&lt;/span&gt; (&lt;span style=&quot;color: #dbb20f;&quot;&gt;mesh&lt;/span&gt;.&lt;span style=&quot;color: #ffffff;&quot;&gt;eventCallbacks&lt;/span&gt;.&lt;span style=&quot;color: #ffffff;&quot;&gt;count&lt;/span&gt;) {&lt;/div&gt;&lt;br&gt;&lt;div&gt;&amp;nbsp; &amp;nbsp; &amp;nbsp; &amp;nbsp; &amp;nbsp; &amp;nbsp; &amp;nbsp; &amp;nbsp; &lt;span style=&quot;color: #00bbff;&quot;&gt;const&lt;/span&gt; &lt;span style=&quot;color: #dbb20f;&quot;&gt;params&lt;/span&gt; &lt;span style=&quot;color: #d4d4d4;&quot;&gt;=&lt;/span&gt; &lt;span style=&quot;color: #dbb20f;&quot;&gt;mesh&lt;/span&gt;.&lt;span style=&quot;color: #ffffff;&quot;&gt;eventCallbacks&lt;/span&gt;.&lt;span style=&quot;color: #ffffff;&quot;&gt;buffer&lt;/span&gt;[&lt;span style=&quot;color: #dbcd0f;&quot;&gt;0&lt;/span&gt;];&lt;/div&gt;&lt;div&gt;&amp;nbsp; &amp;nbsp; &amp;nbsp; &amp;nbsp; &amp;nbsp; &amp;nbsp; &amp;nbsp; &amp;nbsp; &lt;span style=&quot;color: #dbb20f;&quot;&gt;mesh&lt;/span&gt;.&lt;span style=&quot;color: #ffffff;&quot;&gt;eventCallbacks&lt;/span&gt;.&lt;span style=&quot;color: #ffffff;&quot;&gt;buffer&lt;/span&gt;[&lt;span style=&quot;color: #dbb20f;&quot;&gt;Rename_evtClbk_elem0&lt;/span&gt;].&lt;span style=&quot;color: #ffffff;&quot;&gt;params&lt;/span&gt;.&lt;span style=&quot;color: #0582ff;&quot;&gt;EventClbk&lt;/span&gt;(&lt;span style=&quot;color: #dbb20f;&quot;&gt;params&lt;/span&gt;);&lt;/div&gt;&lt;div&gt;&amp;nbsp; &amp;nbsp; &amp;nbsp; &amp;nbsp; &amp;nbsp; &amp;nbsp; &amp;nbsp; &amp;nbsp;&amp;nbsp;&lt;/div&gt;&lt;div&gt;&amp;nbsp; &amp;nbsp; &amp;nbsp; &amp;nbsp; &amp;nbsp; &amp;nbsp; }&lt;/div&gt;&lt;br&gt;&lt;div&gt;&amp;nbsp; &amp;nbsp; &amp;nbsp; &amp;nbsp; }&lt;/div&gt;&lt;/div&gt;&lt;/div&gt;&lt;/div&gt;&lt;/div&gt;&lt;/div&gt;&lt;/div&gt;" style="rounded=1;whiteSpace=wrap;html=1;fontSize=15;align=left;fillColor=#1ba1e2;fontColor=#ffffff;strokeColor=#006EAF;" parent="1" vertex="1">
                    <mxGeometry x="2274" y="-5827" width="796" height="586" as="geometry"/>
                </mxCell>
                <mxCell id="299" value="&lt;div style=&quot;color: rgb(204, 204, 204); background-color: rgb(21, 21, 21); font-family: Consolas, &amp;quot;Courier New&amp;quot;, monospace; font-size: 14px; line-height: 19px;&quot;&gt;&lt;div style=&quot;line-height: 19px;&quot;&gt;&lt;div style=&quot;line-height: 19px;&quot;&gt;&lt;div style=&quot;line-height: 19px;&quot;&gt;&lt;div style=&quot;line-height: 19px;&quot;&gt;&lt;div&gt;&lt;span style=&quot;color: #ca38ff;&quot;&gt;export&lt;/span&gt; &lt;span style=&quot;color: #00bbff;&quot;&gt;function&lt;/span&gt; &lt;span style=&quot;color: #0582ff;&quot;&gt;OnMouseDown&lt;/span&gt;(&lt;span style=&quot;color: #aff0ff;&quot;&gt;e&lt;/span&gt;) {&lt;/div&gt;&lt;div&gt;&amp;nbsp; &amp;nbsp;&lt;/div&gt;&lt;div&gt;&amp;nbsp; &amp;nbsp;&lt;span style=&quot;color: #aff0ff;&quot;&gt;e&lt;/span&gt;.&lt;span style=&quot;color: #0582ff;&quot;&gt;stopPropagation&lt;/span&gt;();&lt;/div&gt;&lt;div&gt;&amp;nbsp; &amp;nbsp;&lt;span style=&quot;color: #aff0ff;&quot;&gt;e&lt;/span&gt;.&lt;span style=&quot;color: #0582ff;&quot;&gt;preventDefault&lt;/span&gt;(); &lt;/div&gt;&lt;div&gt;&amp;nbsp; &amp;nbsp;&lt;/div&gt;&lt;div&gt;&amp;nbsp; &amp;nbsp;&lt;span style=&quot;color: #dbb20f;&quot;&gt;mouse&lt;/span&gt;.&lt;span style=&quot;color: #ffffff;&quot;&gt;click&lt;/span&gt;.&lt;span style=&quot;color: #ffffff;&quot;&gt;down&lt;/span&gt;.&lt;span style=&quot;color: #17daf0;&quot;&gt;Set&lt;/span&gt;(&lt;span style=&quot;color: #aff0ff;&quot;&gt;e&lt;/span&gt;.&lt;span style=&quot;color: #ffffff;&quot;&gt;which&lt;/span&gt;&lt;span style=&quot;color: #d4d4d4;&quot;&gt;-&lt;/span&gt;&lt;span style=&quot;color: #dbcd0f;&quot;&gt;1&lt;/span&gt;);&lt;/div&gt;&lt;div&gt;&amp;nbsp; &amp;nbsp;&lt;/div&gt;&lt;div&gt;&amp;nbsp; &amp;nbsp;&lt;span style=&quot;color: #00bbff;&quot;&gt;const&lt;/span&gt; &lt;span style=&quot;color: #dbb20f;&quot;&gt;params&lt;/span&gt; &lt;span style=&quot;color: #d4d4d4;&quot;&gt;=&lt;/span&gt; {&lt;/div&gt;&lt;div&gt;&amp;nbsp; &amp;nbsp; &amp;nbsp; &lt;span style=&quot;color: #ffffff;&quot;&gt;mouseButton&lt;/span&gt;&lt;span style=&quot;color: #9cdcfe;&quot;&gt;:&lt;/span&gt; &lt;span style=&quot;color: #aff0ff;&quot;&gt;e&lt;/span&gt;.&lt;span style=&quot;color: #ffffff;&quot;&gt;which&lt;/span&gt;&lt;span style=&quot;color: #d4d4d4;&quot;&gt;-&lt;/span&gt;&lt;span style=&quot;color: #dbcd0f;&quot;&gt;1&lt;/span&gt;&lt;/div&gt;&lt;div&gt;&amp;nbsp; &amp;nbsp;};&lt;/div&gt;&lt;div&gt;&amp;nbsp; &amp;nbsp;&lt;/div&gt;&lt;div&gt;&amp;nbsp; &amp;nbsp;&lt;span style=&quot;color: #0582ff;&quot;&gt;HandleImmidiate&lt;/span&gt;(&lt;span style=&quot;color: #e13036;&quot;&gt;'mouse-click-down'&lt;/span&gt;, &lt;span style=&quot;color: #dbb20f;&quot;&gt;params&lt;/span&gt;)&lt;/div&gt;&lt;div&gt;&amp;nbsp; &amp;nbsp;&lt;span style=&quot;color: #4a6140;&quot;&gt;// console.log(`MOUSE pos: ${e.x} ${e.y}`)&lt;/span&gt;&lt;/div&gt;&lt;div&gt;}&lt;/div&gt;&lt;/div&gt;&lt;/div&gt;&lt;/div&gt;&lt;/div&gt;&lt;/div&gt;" style="rounded=1;whiteSpace=wrap;html=1;fontSize=15;fillColor=#1ba1e2;fontColor=#ffffff;strokeColor=#006EAF;align=left;" parent="1" vertex="1">
                    <mxGeometry x="382.5" y="-5156" width="357" height="278" as="geometry"/>
                </mxCell>
                <mxCell id="300" value="&lt;font color=&quot;#ffffff&quot;&gt;Mouse Input&lt;/font&gt;" style="rounded=1;whiteSpace=wrap;html=1;fontSize=15;fillColor=#fa6800;fontColor=#000000;strokeColor=#C73500;" parent="1" vertex="1">
                    <mxGeometry x="487.5" y="-5251" width="120" height="60" as="geometry"/>
                </mxCell>
                <mxCell id="303" style="edgeStyle=none;html=1;exitX=0;exitY=0.5;exitDx=0;exitDy=0;entryX=1;entryY=0;entryDx=0;entryDy=0;strokeWidth=2;fontSize=20;fontColor=#FFFFFF;" parent="1" source="301" target="298" edge="1">
                    <mxGeometry relative="1" as="geometry"/>
                </mxCell>
                <mxCell id="301" value="&lt;div style=&quot;color: rgb(204, 204, 204); background-color: rgb(21, 21, 21); font-family: Consolas, &amp;quot;Courier New&amp;quot;, monospace; font-size: 14px; line-height: 19px;&quot;&gt;&lt;div style=&quot;line-height: 19px;&quot;&gt;&lt;div style=&quot;line-height: 19px;&quot;&gt;&lt;div style=&quot;line-height: 19px;&quot;&gt;&lt;div style=&quot;line-height: 19px;&quot;&gt;&lt;div&gt;&lt;span style=&quot;color: #ca38ff;&quot;&gt;export&lt;/span&gt; &lt;span style=&quot;color: #00bbff;&quot;&gt;function&lt;/span&gt; &lt;span style=&quot;color: #0582ff;&quot;&gt;OnMouseDown&lt;/span&gt;(&lt;span style=&quot;color: #aff0ff;&quot;&gt;e&lt;/span&gt;) {&lt;/div&gt;&lt;div&gt;&amp;nbsp; &amp;nbsp;&lt;/div&gt;&lt;div&gt;&amp;nbsp; &amp;nbsp;&lt;span style=&quot;color: #aff0ff;&quot;&gt;e&lt;/span&gt;.&lt;span style=&quot;color: #0582ff;&quot;&gt;stopPropagation&lt;/span&gt;();&lt;/div&gt;&lt;div&gt;&amp;nbsp; &amp;nbsp;&lt;span style=&quot;color: #aff0ff;&quot;&gt;e&lt;/span&gt;.&lt;span style=&quot;color: #0582ff;&quot;&gt;preventDefault&lt;/span&gt;(); &lt;/div&gt;&lt;div&gt;&amp;nbsp; &amp;nbsp;&lt;/div&gt;&lt;div&gt;&amp;nbsp; &amp;nbsp;&lt;span style=&quot;color: #dbb20f;&quot;&gt;mouse&lt;/span&gt;.&lt;span style=&quot;color: #ffffff;&quot;&gt;click&lt;/span&gt;.&lt;span style=&quot;color: #ffffff;&quot;&gt;down&lt;/span&gt;.&lt;span style=&quot;color: #17daf0;&quot;&gt;Set&lt;/span&gt;(&lt;span style=&quot;color: #aff0ff;&quot;&gt;e&lt;/span&gt;.&lt;span style=&quot;color: #ffffff;&quot;&gt;which&lt;/span&gt;&lt;span style=&quot;color: #d4d4d4;&quot;&gt;-&lt;/span&gt;&lt;span style=&quot;color: #dbcd0f;&quot;&gt;1&lt;/span&gt;);&lt;/div&gt;&lt;div&gt;&amp;nbsp; &amp;nbsp;&lt;/div&gt;&lt;div&gt;&amp;nbsp; &amp;nbsp;&lt;span style=&quot;color: #00bbff;&quot;&gt;const&lt;/span&gt; &lt;span style=&quot;color: #dbb20f;&quot;&gt;params&lt;/span&gt; &lt;span style=&quot;color: #d4d4d4;&quot;&gt;=&lt;/span&gt; {&lt;/div&gt;&lt;div&gt;&amp;nbsp; &amp;nbsp; &amp;nbsp; &lt;span style=&quot;color: #ffffff;&quot;&gt;mouseButton&lt;/span&gt;&lt;span style=&quot;color: #9cdcfe;&quot;&gt;:&lt;/span&gt; &lt;span style=&quot;color: #aff0ff;&quot;&gt;e&lt;/span&gt;.&lt;span style=&quot;color: #ffffff;&quot;&gt;which&lt;/span&gt;&lt;span style=&quot;color: #d4d4d4;&quot;&gt;-&lt;/span&gt;&lt;span style=&quot;color: #dbcd0f;&quot;&gt;1&lt;/span&gt;&lt;/div&gt;&lt;div&gt;&amp;nbsp; &amp;nbsp;};&lt;/div&gt;&lt;div&gt;&amp;nbsp; &amp;nbsp;&lt;/div&gt;&lt;div&gt;&amp;nbsp; &amp;nbsp;&lt;span style=&quot;color: #0582ff;&quot;&gt;RegisterEvent&lt;/span&gt;(&lt;span style=&quot;color: #e13036;&quot;&gt;'mouse-click-down'&lt;/span&gt;, &lt;span style=&quot;color: #dbb20f;&quot;&gt;params&lt;/span&gt;)&lt;/div&gt;&lt;div&gt;&amp;nbsp; &amp;nbsp;&lt;span style=&quot;color: #4a6140;&quot;&gt;// console.log(`MOUSE pos: ${e.x} ${e.y}`)&lt;/span&gt;&lt;/div&gt;&lt;div&gt;}&lt;/div&gt;&lt;/div&gt;&lt;/div&gt;&lt;/div&gt;&lt;/div&gt;&lt;/div&gt;" style="rounded=1;whiteSpace=wrap;html=1;fontSize=15;fillColor=#1ba1e2;fontColor=#ffffff;strokeColor=#006EAF;align=left;" parent="1" vertex="1">
                    <mxGeometry x="3270.5" y="-5966" width="357" height="278" as="geometry"/>
                </mxCell>
                <mxCell id="302" value="&lt;font color=&quot;#ffffff&quot;&gt;Mouse Input&lt;/font&gt;" style="rounded=1;whiteSpace=wrap;html=1;fontSize=15;fillColor=#fa6800;fontColor=#000000;strokeColor=#C73500;" parent="1" vertex="1">
                    <mxGeometry x="3389" y="-6088" width="120" height="60" as="geometry"/>
                </mxCell>
                <mxCell id="304" value="&lt;div style=&quot;color: rgb(204, 204, 204); background-color: rgb(21, 21, 21); font-family: Consolas, &amp;quot;Courier New&amp;quot;, monospace; font-size: 14px; line-height: 19px;&quot;&gt;&lt;div style=&quot;line-height: 19px;&quot;&gt;&lt;div style=&quot;line-height: 19px;&quot;&gt;&lt;div style=&quot;line-height: 19px;&quot;&gt;&lt;div&gt;&lt;div style=&quot;line-height: 19px;&quot;&gt;&lt;div&gt;&amp;nbsp; &amp;nbsp; &lt;span style=&quot;color: #0582ff;&quot;&gt;Clbk&lt;/span&gt;(){&lt;/div&gt;&lt;br&gt;&lt;div&gt;&amp;nbsp; &amp;nbsp; &amp;nbsp; &amp;nbsp; &lt;span style=&quot;color: #ca38ff;&quot;&gt;do&lt;/span&gt;{&lt;/div&gt;&lt;div&gt;&amp;nbsp; &amp;nbsp; &amp;nbsp; &amp;nbsp; &amp;nbsp; &amp;nbsp; &lt;span style=&quot;color: #ebebeb;&quot;&gt;stuff&lt;/span&gt;&lt;/div&gt;&lt;div&gt;&amp;nbsp; &amp;nbsp; &amp;nbsp; &amp;nbsp; }&lt;/div&gt;&lt;div&gt;&amp;nbsp; &amp;nbsp; }&lt;/div&gt;&lt;/div&gt;&lt;/div&gt;&lt;/div&gt;&lt;/div&gt;&lt;/div&gt;&lt;/div&gt;" style="rounded=1;whiteSpace=wrap;html=1;fontSize=15;fillColor=#1ba1e2;fontColor=#ffffff;strokeColor=#006EAF;align=left;" parent="1" vertex="1">
                    <mxGeometry x="2601.5" y="-5029" width="141" height="136" as="geometry"/>
                </mxCell>
                <mxCell id="315" value="&lt;div style=&quot;background-color: rgb(21, 21, 21); font-family: Consolas, &amp;quot;Courier New&amp;quot;, monospace; font-size: 14px; line-height: 19px;&quot;&gt;&lt;div style=&quot;line-height: 19px;&quot;&gt;&lt;div style=&quot;line-height: 19px;&quot;&gt;&lt;div style=&quot;line-height: 19px;&quot;&gt;&lt;div style=&quot;&quot;&gt;&lt;div style=&quot;color: rgb(204, 204, 204); line-height: 19px;&quot;&gt;&lt;div&gt;&lt;span style=&quot;color: #ca38ff;&quot;&gt;export&lt;/span&gt; &lt;span style=&quot;color: #00bbff;&quot;&gt;function&lt;/span&gt; &lt;span style=&quot;color: #0582ff;&quot;&gt;Intersection_point_rect&lt;/span&gt;(&lt;span style=&quot;color: #aff0ff;&quot;&gt;p&lt;/span&gt;, &lt;span style=&quot;color: #aff0ff;&quot;&gt;r&lt;/span&gt;){&lt;/div&gt;&lt;div&gt;&amp;nbsp; &amp;nbsp;&lt;span style=&quot;color: #ca38ff;&quot;&gt;if&lt;/span&gt;(&lt;span style=&quot;color: #aff0ff;&quot;&gt;p&lt;/span&gt;[&lt;span style=&quot;color: #dbcd0f;&quot;&gt;0&lt;/span&gt;] &lt;span style=&quot;color: #d4d4d4;&quot;&gt;&amp;gt;&lt;/span&gt; &lt;span style=&quot;color: #aff0ff;&quot;&gt;r&lt;/span&gt;[&lt;span style=&quot;color: #dbcd0f;&quot;&gt;0&lt;/span&gt;][&lt;span style=&quot;color: #dbcd0f;&quot;&gt;0&lt;/span&gt;] &lt;span style=&quot;color: #d4d4d4;&quot;&gt;&amp;amp;&amp;amp;&lt;/span&gt; &lt;span style=&quot;color: #aff0ff;&quot;&gt;p&lt;/span&gt;[&lt;span style=&quot;color: #dbcd0f;&quot;&gt;0&lt;/span&gt;] &lt;span style=&quot;color: #d4d4d4;&quot;&gt;&amp;lt;&lt;/span&gt; &lt;span style=&quot;color: #aff0ff;&quot;&gt;r&lt;/span&gt;[&lt;span style=&quot;color: #dbcd0f;&quot;&gt;0&lt;/span&gt;][&lt;span style=&quot;color: #dbcd0f;&quot;&gt;1&lt;/span&gt;] &lt;span style=&quot;color: #d4d4d4;&quot;&gt;&amp;amp;&amp;amp;&lt;/span&gt; &lt;span style=&quot;color: #aff0ff;&quot;&gt;p&lt;/span&gt;[&lt;span style=&quot;color: #dbcd0f;&quot;&gt;1&lt;/span&gt;] &lt;span style=&quot;color: #d4d4d4;&quot;&gt;&amp;gt;&lt;/span&gt; &lt;span style=&quot;color: #aff0ff;&quot;&gt;r&lt;/span&gt;[&lt;span style=&quot;color: #dbcd0f;&quot;&gt;1&lt;/span&gt;][&lt;span style=&quot;color: #dbcd0f;&quot;&gt;0&lt;/span&gt;] &lt;span style=&quot;color: #d4d4d4;&quot;&gt;&amp;amp;&amp;amp;&lt;/span&gt; &lt;span style=&quot;color: #aff0ff;&quot;&gt;p&lt;/span&gt;[&lt;span style=&quot;color: #dbcd0f;&quot;&gt;1&lt;/span&gt;] &lt;span style=&quot;color: #d4d4d4;&quot;&gt;&amp;lt;&lt;/span&gt; &lt;span style=&quot;color: #aff0ff;&quot;&gt;r&lt;/span&gt;[&lt;span style=&quot;color: #dbcd0f;&quot;&gt;1&lt;/span&gt;][&lt;span style=&quot;color: #dbcd0f;&quot;&gt;1&lt;/span&gt;]){&lt;/div&gt;&lt;div&gt;&amp;nbsp; &amp;nbsp; &amp;nbsp; &lt;span style=&quot;color: #4a6140;&quot;&gt;// console.log('Collision!')&lt;/span&gt;&lt;/div&gt;&lt;div&gt;&amp;nbsp; &amp;nbsp; &amp;nbsp; &lt;span style=&quot;color: #ca38ff;&quot;&gt;return&lt;/span&gt; &lt;span style=&quot;color: #00bbff;&quot;&gt;true&lt;/span&gt;;&lt;/div&gt;&lt;div&gt;&amp;nbsp; &amp;nbsp;}&lt;/div&gt;&lt;div&gt;&amp;nbsp; &amp;nbsp;&lt;span style=&quot;color: #ca38ff;&quot;&gt;return&lt;/span&gt; &lt;span style=&quot;color: #00bbff;&quot;&gt;false&lt;/span&gt;;&lt;/div&gt;&lt;div&gt;}&lt;/div&gt;&lt;/div&gt;&lt;/div&gt;&lt;/div&gt;&lt;/div&gt;&lt;/div&gt;&lt;/div&gt;" style="rounded=1;whiteSpace=wrap;html=1;fontSize=15;fillColor=#1ba1e2;fontColor=#ffffff;strokeColor=#006EAF;align=left;" parent="1" vertex="1">
                    <mxGeometry x="-2116" y="-5437" width="601" height="157" as="geometry"/>
                </mxCell>
                <mxCell id="316" value="" style="edgeStyle=none;html=1;exitX=0.5;exitY=1;exitDx=0;exitDy=0;entryX=0.5;entryY=0;entryDx=0;entryDy=0;strokeWidth=2;fontSize=20;fontColor=#FFFFFF;endArrow=none;" parent="1" source="275" target="279" edge="1">
                    <mxGeometry relative="1" as="geometry">
                        <mxPoint x="-531" y="-5469" as="sourcePoint"/>
                        <mxPoint x="-538.5000000000009" y="-4539" as="targetPoint"/>
                    </mxGeometry>
                </mxCell>
                <mxCell id="319" style="edgeStyle=none;html=1;exitX=0;exitY=0.5;exitDx=0;exitDy=0;entryX=1;entryY=1;entryDx=0;entryDy=0;strokeWidth=2;fontSize=20;fontColor=#FFFFFF;" parent="1" source="314" target="315" edge="1">
                    <mxGeometry relative="1" as="geometry"/>
                </mxCell>
                <mxCell id="314" value="&lt;div style=&quot;background-color: rgb(21, 21, 21); font-family: Consolas, &amp;quot;Courier New&amp;quot;, monospace; font-size: 14px; line-height: 19px;&quot;&gt;&lt;div style=&quot;line-height: 19px;&quot;&gt;&lt;div style=&quot;line-height: 19px;&quot;&gt;&lt;div style=&quot;line-height: 19px;&quot;&gt;&lt;div style=&quot;&quot;&gt;&lt;div style=&quot;color: rgb(204, 204, 204); line-height: 19px;&quot;&gt;&lt;div&gt;&amp;nbsp; &amp;nbsp; &lt;span style=&quot;color: #00bbff;&quot;&gt;function&lt;/span&gt; &lt;span style=&quot;color: #0582ff;&quot;&gt;HandleClickEvent&lt;/span&gt;(&lt;span style=&quot;color: #aff0ff;&quot;&gt;clickPos&lt;/span&gt;){&lt;/div&gt;&lt;br&gt;&lt;div&gt;&amp;nbsp; &amp;nbsp; &amp;nbsp; &amp;nbsp; &lt;span style=&quot;color: #ca38ff;&quot;&gt;if&lt;/span&gt;(&lt;span style=&quot;color: #0582ff;&quot;&gt;Intersection_point_rect&lt;/span&gt;(&lt;span style=&quot;color: #aff0ff;&quot;&gt;clickPos&lt;/span&gt;, &lt;span style=&quot;color: #569cd6;&quot;&gt;this&lt;/span&gt;.&lt;span style=&quot;color: #ffffff;&quot;&gt;pos&lt;/span&gt;)){&lt;/div&gt;&lt;div&gt;&amp;nbsp; &amp;nbsp; &amp;nbsp; &amp;nbsp; &amp;nbsp; &amp;nbsp; &lt;span style=&quot;color: #ca38ff;&quot;&gt;do&lt;/span&gt; {&lt;/div&gt;&lt;div&gt;&amp;nbsp; &amp;nbsp; &amp;nbsp; &amp;nbsp; &amp;nbsp; &amp;nbsp; &amp;nbsp; &amp;nbsp; &lt;span style=&quot;color: #4a6140;&quot;&gt;// do stuff for click&lt;/span&gt;&lt;/div&gt;&lt;div&gt;&amp;nbsp; &amp;nbsp; &amp;nbsp; &amp;nbsp; &amp;nbsp; &amp;nbsp; }&lt;/div&gt;&lt;div&gt;&amp;nbsp; &amp;nbsp; &amp;nbsp; &amp;nbsp; }&lt;/div&gt;&lt;div&gt;&amp;nbsp; &amp;nbsp; }&lt;/div&gt;&lt;/div&gt;&lt;/div&gt;&lt;/div&gt;&lt;/div&gt;&lt;/div&gt;&lt;/div&gt;" style="rounded=1;whiteSpace=wrap;html=1;fontSize=15;fillColor=#1ba1e2;fontColor=#ffffff;strokeColor=#006EAF;align=left;" parent="1" vertex="1">
                    <mxGeometry x="-1180" y="-5309" width="410" height="176" as="geometry"/>
                </mxCell>
                <mxCell id="324" style="html=1;exitX=0;exitY=0.5;exitDx=0;exitDy=0;entryX=1;entryY=0.5;entryDx=0;entryDy=0;strokeWidth=2;fontSize=35;fontColor=#FFFFFF;" parent="1" source="323" target="266" edge="1">
                    <mxGeometry relative="1" as="geometry"/>
                </mxCell>
                <mxCell id="323" value="&lt;div style=&quot;background-color: rgb(21, 21, 21); font-family: Consolas, &amp;quot;Courier New&amp;quot;, monospace; font-size: 14px; line-height: 19px;&quot;&gt;&lt;div style=&quot;line-height: 19px;&quot;&gt;&lt;div style=&quot;line-height: 19px;&quot;&gt;&lt;div style=&quot;line-height: 19px;&quot;&gt;&lt;div style=&quot;line-height: 19px;&quot;&gt;&lt;div style=&quot;&quot;&gt;&lt;font color=&quot;#ca38ff&quot;&gt;MouseMove&lt;/font&gt;&lt;/div&gt;&lt;/div&gt;&lt;/div&gt;&lt;/div&gt;&lt;/div&gt;&lt;/div&gt;" style="rounded=1;whiteSpace=wrap;html=1;fontSize=15;fillColor=#1ba1e2;fontColor=#ffffff;strokeColor=#006EAF;align=left;" parent="1" vertex="1">
                    <mxGeometry x="513" y="-4731" width="86" height="56" as="geometry"/>
                </mxCell>
                <mxCell id="325" value="Global Gfx Handler&lt;br&gt;Implementation" style="rounded=1;whiteSpace=wrap;html=1;strokeWidth=2;fontSize=35;" parent="1" vertex="1">
                    <mxGeometry x="-3745" y="-8059" width="380" height="131" as="geometry"/>
                </mxCell>
                <mxCell id="326" value="&lt;div style=&quot;background-color: rgb(21, 21, 21); font-family: Consolas, &amp;quot;Courier New&amp;quot;, monospace; font-size: 14px; line-height: 19px;&quot;&gt;&lt;div style=&quot;line-height: 19px;&quot;&gt;&lt;div style=&quot;line-height: 19px;&quot;&gt;&lt;div style=&quot;line-height: 19px;&quot;&gt;&lt;div style=&quot;&quot;&gt;&lt;div style=&quot;color: rgb(204, 204, 204); line-height: 19px;&quot;&gt;Gfx Info buffer&lt;/div&gt;&lt;div style=&quot;color: rgb(204, 204, 204); line-height: 19px;&quot;&gt;&lt;br&gt;&lt;/div&gt;&lt;div style=&quot;color: rgb(204, 204, 204); line-height: 19px;&quot;&gt;&lt;div style=&quot;line-height: 19px;&quot;&gt;&lt;div style=&quot;text-align: justify;&quot;&gt;&lt;span style=&quot;color: #ffffff;&quot;&gt;sid&lt;/span&gt;&lt;span style=&quot;color: #d4d4d4;&quot;&gt;:&lt;/span&gt; &lt;span style=&quot;color: #4ec9b0;&quot;&gt;int&lt;/span&gt;&lt;/div&gt;&lt;div style=&quot;text-align: justify;&quot;&gt;&lt;span style=&quot;color: #ffffff;&quot;&gt;sceneIdx&lt;/span&gt;&lt;span style=&quot;color: #d4d4d4;&quot;&gt;:&lt;/span&gt; &lt;span style=&quot;color: #4ec9b0;&quot;&gt;int&lt;/span&gt;&lt;/div&gt;&lt;div style=&quot;text-align: justify;&quot;&gt;&lt;span style=&quot;color: #ffffff;&quot;&gt;numFaces&lt;/span&gt;&lt;span style=&quot;color: #d4d4d4;&quot;&gt;:&lt;/span&gt; &lt;span style=&quot;color: #4ec9b0;&quot;&gt;int&lt;/span&gt;&lt;/div&gt;&lt;div style=&quot;text-align: justify;&quot;&gt;&lt;span style=&quot;color: #ffffff;&quot;&gt;vertsPerRect&lt;/span&gt;&lt;span style=&quot;color: #d4d4d4;&quot;&gt;:&lt;/span&gt; &lt;span style=&quot;color: #4ec9b0;&quot;&gt;int&lt;/span&gt;&lt;/div&gt;&lt;div style=&quot;text-align: justify;&quot;&gt;&lt;span style=&quot;color: #ffffff;&quot;&gt;attribsPerVertex&lt;/span&gt;&lt;span style=&quot;color: #d4d4d4;&quot;&gt;:&lt;/span&gt; &lt;span style=&quot;color: #4ec9b0;&quot;&gt;int&lt;/span&gt;&lt;/div&gt;&lt;div style=&quot;text-align: justify;&quot;&gt;&lt;span style=&quot;color: #ffffff;&quot;&gt;meshIdx&lt;/span&gt;&lt;span style=&quot;color: #d4d4d4;&quot;&gt;:&lt;/span&gt; &lt;span style=&quot;color: #4ec9b0;&quot;&gt;int&lt;/span&gt;&lt;/div&gt;&lt;div style=&quot;text-align: justify;&quot;&gt;&lt;span style=&quot;color: #ffffff;&quot;&gt;prog&lt;/span&gt; &lt;span style=&quot;color: #d4d4d4;&quot;&gt;=&lt;/span&gt; {&lt;/div&gt;&lt;div style=&quot;text-align: justify;&quot;&gt;&amp;nbsp; &amp;nbsp;&lt;span style=&quot;color: #ffffff;&quot;&gt;idx&lt;/span&gt;&lt;span style=&quot;color: #9cdcfe;&quot;&gt;:&lt;/span&gt; &lt;span style=&quot;color: #ebebeb;&quot;&gt;int&lt;/span&gt;,&lt;/div&gt;&lt;div style=&quot;text-align: justify;&quot;&gt;}&lt;/div&gt;&lt;div style=&quot;text-align: justify;&quot;&gt;&lt;span style=&quot;color: #ffffff;&quot;&gt;vb&lt;/span&gt; &lt;span style=&quot;color: #d4d4d4;&quot;&gt;=&lt;/span&gt; { &lt;/div&gt;&lt;div style=&quot;text-align: justify;&quot;&gt;&amp;nbsp; &amp;nbsp;&lt;span style=&quot;color: #ffffff;&quot;&gt;idx&lt;/span&gt;&lt;span style=&quot;color: #9cdcfe;&quot;&gt;:&lt;/span&gt; &lt;span style=&quot;color: #dbb20f;&quot;&gt;INT_NULL&lt;/span&gt;&lt;/div&gt;&lt;div style=&quot;text-align: justify;&quot;&gt;&amp;nbsp; &amp;nbsp;&lt;span style=&quot;color: #ffffff;&quot;&gt;start&lt;/span&gt;: &lt;span style=&quot;color: #ebebeb;&quot;&gt;int&lt;/span&gt;&lt;/div&gt;&lt;div style=&quot;text-align: justify;&quot;&gt;&amp;nbsp; &amp;nbsp;&lt;span style=&quot;color: #ffffff;&quot;&gt;count&lt;/span&gt;: &lt;span style=&quot;color: #ebebeb;&quot;&gt;int&lt;/span&gt;&lt;/div&gt;&lt;div style=&quot;text-align: justify;&quot;&gt;};&lt;/div&gt;&lt;div style=&quot;text-align: justify;&quot;&gt;&lt;span style=&quot;color: #ffffff;&quot;&gt;ib&lt;/span&gt; &lt;span style=&quot;color: #d4d4d4;&quot;&gt;=&lt;/span&gt; {&lt;/div&gt;&lt;div style=&quot;text-align: justify;&quot;&gt;&amp;nbsp; &amp;nbsp;&lt;span style=&quot;color: #ffffff;&quot;&gt;idx&lt;/span&gt;&lt;span style=&quot;color: #9cdcfe;&quot;&gt;:&lt;/span&gt; &lt;span style=&quot;color: #ebebeb;&quot;&gt;int&lt;/span&gt;&lt;/div&gt;&lt;div style=&quot;text-align: justify;&quot;&gt;&amp;nbsp; &amp;nbsp;&lt;span style=&quot;color: #ffffff;&quot;&gt;start&lt;/span&gt;: &lt;span style=&quot;color: #ebebeb;&quot;&gt;int&lt;/span&gt;&lt;/div&gt;&lt;div style=&quot;text-align: justify;&quot;&gt;&amp;nbsp; &amp;nbsp;&lt;span style=&quot;color: #ffffff;&quot;&gt;count&lt;/span&gt;: &lt;span style=&quot;color: #ebebeb;&quot;&gt;int&lt;/span&gt;&lt;/div&gt;&lt;div style=&quot;text-align: justify;&quot;&gt;};&lt;/div&gt;&lt;div style=&quot;text-align: justify;&quot;&gt;&lt;span style=&quot;color: #ffffff;&quot;&gt;tb&lt;/span&gt; &lt;span style=&quot;color: #d4d4d4;&quot;&gt;=&lt;/span&gt; {&lt;/div&gt;&lt;div style=&quot;text-align: justify;&quot;&gt;&amp;nbsp; &amp;nbsp;&lt;span style=&quot;color: #ffffff;&quot;&gt;id&lt;/span&gt;&lt;span style=&quot;color: #9cdcfe;&quot;&gt;:&lt;/span&gt; &lt;span style=&quot;color: #ebebeb;&quot;&gt;int&lt;/span&gt;&lt;/div&gt;&lt;div style=&quot;text-align: justify;&quot;&gt;&amp;nbsp; &amp;nbsp;&lt;span style=&quot;color: #ffffff;&quot;&gt;idx&lt;/span&gt;: &lt;span style=&quot;color: #ebebeb;&quot;&gt;int&lt;/span&gt;&lt;/div&gt;&lt;div style=&quot;text-align: justify;&quot;&gt;};&lt;/div&gt;&lt;div style=&quot;text-align: justify;&quot;&gt;&lt;span style=&quot;color: #ffffff;&quot;&gt;vao&lt;/span&gt; &lt;span style=&quot;color: #d4d4d4;&quot;&gt;=&lt;/span&gt; &lt;span style=&quot;color: #ebebeb;&quot;&gt;int&lt;/span&gt;;&lt;/div&gt;&lt;/div&gt;&lt;/div&gt;&lt;/div&gt;&lt;/div&gt;&lt;/div&gt;&lt;/div&gt;&lt;/div&gt;" style="rounded=1;whiteSpace=wrap;html=1;fontSize=15;fillColor=#1ba1e2;fontColor=#ffffff;strokeColor=#006EAF;align=center;verticalAlign=top;" parent="1" vertex="1">
                    <mxGeometry x="-4114" y="-7275" width="195" height="519" as="geometry"/>
                </mxCell>
                <mxCell id="351" style="edgeStyle=none;html=1;exitX=0;exitY=0;exitDx=0;exitDy=0;entryX=0.5;entryY=1;entryDx=0;entryDy=0;" parent="1" source="327" target="341" edge="1">
                    <mxGeometry relative="1" as="geometry"/>
                </mxCell>
                <mxCell id="357" style="edgeStyle=none;html=1;exitX=0;exitY=0.5;exitDx=0;exitDy=0;entryX=1;entryY=0;entryDx=0;entryDy=0;" parent="1" source="327" target="334" edge="1">
                    <mxGeometry relative="1" as="geometry"/>
                </mxCell>
                <mxCell id="358" style="html=1;exitX=1;exitY=0.5;exitDx=0;exitDy=0;entryX=0;entryY=0.5;entryDx=0;entryDy=0;endArrow=none;endFill=0;strokeWidth=3;" parent="1" source="327" target="330" edge="1">
                    <mxGeometry relative="1" as="geometry"/>
                </mxCell>
                <mxCell id="327" value="Add to gfx" style="ellipse;whiteSpace=wrap;html=1;fillColor=#1ba1e2;fontColor=#ffffff;strokeColor=#006EAF;" parent="1" vertex="1">
                    <mxGeometry x="-3360" y="-7433.5" width="96" height="60" as="geometry"/>
                </mxCell>
                <mxCell id="328" value="&lt;div style=&quot;background-color: rgb(21, 21, 21); font-family: Consolas, &amp;quot;Courier New&amp;quot;, monospace; font-size: 14px; line-height: 19px;&quot;&gt;&lt;div style=&quot;line-height: 19px;&quot;&gt;&lt;div style=&quot;line-height: 19px;&quot;&gt;&lt;div style=&quot;line-height: 19px;&quot;&gt;&lt;div style=&quot;&quot;&gt;&lt;div style=&quot;color: rgb(204, 204, 204); line-height: 19px;&quot;&gt;&lt;br&gt;&lt;/div&gt;&lt;/div&gt;&lt;/div&gt;&lt;/div&gt;&lt;/div&gt;&lt;/div&gt;" style="rounded=1;whiteSpace=wrap;html=1;fontSize=15;fillColor=#1ba1e2;fontColor=#ffffff;strokeColor=#006EAF;align=left;" parent="1" vertex="1">
                    <mxGeometry x="-6918" y="-8042" width="192.5" height="101" as="geometry"/>
                </mxCell>
                <mxCell id="362" style="edgeStyle=none;html=1;entryX=0;entryY=0.5;entryDx=0;entryDy=0;strokeWidth=3;endArrow=classicThin;endFill=1;startArrow=none;startFill=0;exitX=1;exitY=0.5;exitDx=0;exitDy=0;" parent="1" source="329" target="361" edge="1">
                    <mxGeometry relative="1" as="geometry">
                        <mxPoint x="-6142" y="-7808" as="sourcePoint"/>
                    </mxGeometry>
                </mxCell>
                <mxCell id="375" value="" style="edgeStyle=none;html=1;strokeWidth=3;startArrow=none;startFill=0;endArrow=classicThin;endFill=1;" parent="1" source="329" target="372" edge="1">
                    <mxGeometry relative="1" as="geometry"/>
                </mxCell>
                <mxCell id="329" value="Create options &lt;br&gt;menu" style="ellipse;whiteSpace=wrap;html=1;fillColor=#1ba1e2;fontColor=#ffffff;strokeColor=#006EAF;" parent="1" vertex="1">
                    <mxGeometry x="-6291" y="-7758" width="96" height="60" as="geometry"/>
                </mxCell>
                <mxCell id="338" style="edgeStyle=none;html=1;entryX=0.5;entryY=0;entryDx=0;entryDy=0;exitX=0.5;exitY=1;exitDx=0;exitDy=0;" parent="1" source="330" target="335" edge="1">
                    <mxGeometry relative="1" as="geometry">
                        <mxPoint x="-3085.25" y="-7338" as="sourcePoint"/>
                    </mxGeometry>
                </mxCell>
                <mxCell id="348" style="edgeStyle=none;html=1;exitX=0;exitY=1;exitDx=0;exitDy=0;entryX=1;entryY=0.5;entryDx=0;entryDy=0;" parent="1" source="330" target="347" edge="1">
                    <mxGeometry relative="1" as="geometry"/>
                </mxCell>
                <mxCell id="330" value="&lt;div style=&quot;background-color: rgb(21, 21, 21); font-family: Consolas, &amp;quot;Courier New&amp;quot;, monospace; font-size: 14px; line-height: 19px;&quot;&gt;&lt;div style=&quot;line-height: 19px;&quot;&gt;&lt;div style=&quot;line-height: 19px;&quot;&gt;&lt;div style=&quot;line-height: 19px;&quot;&gt;&lt;div style=&quot;&quot;&gt;&lt;div style=&quot;color: rgb(204, 204, 204); line-height: 19px;&quot;&gt;Popup&lt;/div&gt;&lt;/div&gt;&lt;/div&gt;&lt;/div&gt;&lt;/div&gt;&lt;/div&gt;" style="rounded=1;whiteSpace=wrap;html=1;fontSize=15;fillColor=#f0a30a;fontColor=#000000;strokeColor=#BD7000;align=center;verticalAlign=middle;" parent="1" vertex="1">
                    <mxGeometry x="-3176.25" y="-7445" width="91.5" height="83" as="geometry"/>
                </mxCell>
                <mxCell id="331" value="&lt;div style=&quot;background-color: rgb(21, 21, 21); font-family: Consolas, &amp;quot;Courier New&amp;quot;, monospace; font-size: 14px; line-height: 19px;&quot;&gt;&lt;div style=&quot;line-height: 19px;&quot;&gt;&lt;div style=&quot;line-height: 19px;&quot;&gt;&lt;div style=&quot;line-height: 19px;&quot;&gt;&lt;div style=&quot;&quot;&gt;&lt;div style=&quot;color: rgb(204, 204, 204); line-height: 19px;&quot;&gt;Scene Gfx buffer&lt;/div&gt;&lt;div style=&quot;color: rgb(204, 204, 204); line-height: 19px;&quot;&gt;&lt;br&gt;&lt;/div&gt;&lt;div style=&quot;text-align: justify; color: rgb(204, 204, 204); line-height: 19px;&quot;&gt;&lt;div&gt;&lt;span style=&quot;color: rgb(255, 255, 255);&quot;&gt;isActive&lt;/span&gt;&lt;span style=&quot;color: rgb(156, 220, 254);&quot;&gt;:&lt;/span&gt;&amp;nbsp;bool&lt;/div&gt;&lt;div&gt;&lt;span style=&quot;color: rgb(255, 255, 255);&quot;&gt;progidx&lt;/span&gt;&lt;span style=&quot;color: rgb(156, 220, 254);&quot;&gt;:&lt;/span&gt;&amp;nbsp;int&lt;/div&gt;&lt;div style=&quot;color: rgb(255, 255, 255);&quot;&gt;vbidx&lt;span style=&quot;color: rgb(156, 220, 254);&quot;&gt;:&lt;/span&gt;&lt;font color=&quot;#cccccc&quot;&gt;&amp;nbsp;&lt;/font&gt;&lt;font color=&quot;#569cd6&quot;&gt;int&lt;/font&gt;&lt;/div&gt;&lt;/div&gt;&lt;/div&gt;&lt;/div&gt;&lt;/div&gt;&lt;/div&gt;&lt;/div&gt;" style="rounded=1;whiteSpace=wrap;html=1;fontSize=15;fillColor=#1ba1e2;fontColor=#ffffff;strokeColor=#006EAF;align=center;verticalAlign=top;" parent="1" vertex="1">
                    <mxGeometry x="-3659" y="-7131" width="156" height="123" as="geometry"/>
                </mxCell>
                <mxCell id="333" style="edgeStyle=none;html=1;exitX=0.5;exitY=1;exitDx=0;exitDy=0;entryX=0.5;entryY=0;entryDx=0;entryDy=0;" parent="1" source="332" target="326" edge="1">
                    <mxGeometry relative="1" as="geometry"/>
                </mxCell>
                <mxCell id="345" style="edgeStyle=none;html=1;exitX=1;exitY=0.5;exitDx=0;exitDy=0;entryX=0;entryY=0.5;entryDx=0;entryDy=0;" parent="1" source="332" target="344" edge="1">
                    <mxGeometry relative="1" as="geometry"/>
                </mxCell>
                <mxCell id="332" value="&lt;div style=&quot;background-color: rgb(21, 21, 21); font-family: Consolas, &amp;quot;Courier New&amp;quot;, monospace; font-size: 14px; line-height: 19px;&quot;&gt;&lt;div style=&quot;line-height: 19px;&quot;&gt;&lt;div style=&quot;line-height: 19px;&quot;&gt;&lt;div style=&quot;line-height: 19px;&quot;&gt;&lt;div style=&quot;&quot;&gt;&lt;div style=&quot;color: rgb(204, 204, 204); line-height: 19px;&quot;&gt;Gfx Info Handler&lt;/div&gt;&lt;/div&gt;&lt;/div&gt;&lt;/div&gt;&lt;/div&gt;&lt;/div&gt;" style="rounded=1;whiteSpace=wrap;html=1;fontSize=15;fillColor=#f0a30a;fontColor=#000000;strokeColor=#BD7000;align=center;verticalAlign=middle;" parent="1" vertex="1">
                    <mxGeometry x="-4062.25" y="-7427" width="91.5" height="83" as="geometry"/>
                </mxCell>
                <mxCell id="339" style="edgeStyle=none;html=1;exitX=0.5;exitY=1;exitDx=0;exitDy=0;entryX=0.5;entryY=0;entryDx=0;entryDy=0;" parent="1" source="334" target="331" edge="1">
                    <mxGeometry relative="1" as="geometry"/>
                </mxCell>
                <mxCell id="334" value="&lt;div style=&quot;background-color: rgb(21, 21, 21); font-family: Consolas, &amp;quot;Courier New&amp;quot;, monospace; font-size: 14px; line-height: 19px;&quot;&gt;&lt;div style=&quot;line-height: 19px;&quot;&gt;&lt;div style=&quot;line-height: 19px;&quot;&gt;&lt;div style=&quot;line-height: 19px;&quot;&gt;&lt;div style=&quot;&quot;&gt;&lt;div style=&quot;color: rgb(204, 204, 204); line-height: 19px;&quot;&gt;Scenes&lt;/div&gt;&lt;/div&gt;&lt;/div&gt;&lt;/div&gt;&lt;/div&gt;&lt;/div&gt;" style="rounded=1;whiteSpace=wrap;html=1;fontSize=15;fillColor=#f0a30a;fontColor=#000000;strokeColor=#BD7000;align=center;verticalAlign=middle;" parent="1" vertex="1">
                    <mxGeometry x="-3626.75" y="-7283" width="91.5" height="83" as="geometry"/>
                </mxCell>
                <mxCell id="335" value="&lt;div style=&quot;background-color: rgb(21, 21, 21); font-family: Consolas, &amp;quot;Courier New&amp;quot;, monospace; font-size: 14px; line-height: 19px;&quot;&gt;&lt;div style=&quot;line-height: 19px;&quot;&gt;&lt;div style=&quot;line-height: 19px;&quot;&gt;&lt;div style=&quot;line-height: 19px;&quot;&gt;&lt;div style=&quot;&quot;&gt;&lt;div style=&quot;color: rgb(204, 204, 204); line-height: 19px;&quot;&gt;Gfx Info buffer&lt;/div&gt;&lt;div style=&quot;color: rgb(204, 204, 204); line-height: 19px;&quot;&gt;&lt;br&gt;&lt;/div&gt;&lt;div style=&quot;color: rgb(204, 204, 204); line-height: 19px;&quot;&gt;&lt;div style=&quot;text-align: justify;&quot;&gt;&lt;span style=&quot;color: rgb(255, 255, 255);&quot;&gt;isActive&lt;/span&gt;&lt;span style=&quot;color: rgb(156, 220, 254);&quot;&gt;:&lt;/span&gt;&amp;nbsp;bool&lt;/div&gt;&lt;div style=&quot;text-align: justify;&quot;&gt;&lt;span style=&quot;color: rgb(255, 255, 255);&quot;&gt;progidx&lt;/span&gt;&lt;span style=&quot;color: rgb(156, 220, 254);&quot;&gt;:&lt;/span&gt;&amp;nbsp;int&lt;/div&gt;&lt;div style=&quot;color: rgb(255, 255, 255); text-align: justify;&quot;&gt;vbidx&lt;span style=&quot;color: rgb(156, 220, 254);&quot;&gt;:&lt;/span&gt;&lt;font color=&quot;#cccccc&quot;&gt;&amp;nbsp;&lt;/font&gt;&lt;font color=&quot;#569cd6&quot;&gt;int&lt;/font&gt;&lt;/div&gt;&lt;/div&gt;&lt;/div&gt;&lt;/div&gt;&lt;/div&gt;&lt;/div&gt;&lt;/div&gt;" style="rounded=1;whiteSpace=wrap;html=1;fontSize=15;fillColor=#1ba1e2;fontColor=#ffffff;strokeColor=#006EAF;align=center;verticalAlign=top;" parent="1" vertex="1">
                    <mxGeometry x="-3215" y="-7293" width="169" height="109" as="geometry"/>
                </mxCell>
                <mxCell id="352" style="edgeStyle=none;html=1;exitX=0.5;exitY=1;exitDx=0;exitDy=0;entryX=0.5;entryY=0;entryDx=0;entryDy=0;" parent="1" source="341" target="332" edge="1">
                    <mxGeometry relative="1" as="geometry"/>
                </mxCell>
                <mxCell id="341" value="&lt;div style=&quot;background-color: rgb(21, 21, 21); font-family: Consolas, &amp;quot;Courier New&amp;quot;, monospace; font-size: 14px; line-height: 19px;&quot;&gt;&lt;div style=&quot;line-height: 19px;&quot;&gt;&lt;div style=&quot;line-height: 19px;&quot;&gt;&lt;div style=&quot;line-height: 19px;&quot;&gt;&lt;div style=&quot;&quot;&gt;&lt;div style=&quot;color: rgb(204, 204, 204); line-height: 19px;&quot;&gt;Gl Create&lt;/div&gt;&lt;div style=&quot;color: rgb(204, 204, 204); line-height: 19px;&quot;&gt;Program Handler&lt;/div&gt;&lt;/div&gt;&lt;/div&gt;&lt;/div&gt;&lt;/div&gt;&lt;/div&gt;" style="rounded=1;whiteSpace=wrap;html=1;fontSize=15;fillColor=#f0a30a;fontColor=#000000;strokeColor=#BD7000;align=center;verticalAlign=middle;" parent="1" vertex="1">
                    <mxGeometry x="-3616" y="-7727" width="143" height="83" as="geometry"/>
                </mxCell>
                <mxCell id="353" style="edgeStyle=none;html=1;exitX=1;exitY=0.5;exitDx=0;exitDy=0;entryX=0;entryY=0.5;entryDx=0;entryDy=0;" parent="1" source="344" target="327" edge="1">
                    <mxGeometry relative="1" as="geometry"/>
                </mxCell>
                <mxCell id="344" value="return gfx info" style="ellipse;whiteSpace=wrap;html=1;fillColor=#1ba1e2;fontColor=#ffffff;strokeColor=#006EAF;" parent="1" vertex="1">
                    <mxGeometry x="-3864" y="-7417" width="96" height="63" as="geometry"/>
                </mxCell>
                <mxCell id="349" style="edgeStyle=none;html=1;exitX=0;exitY=0.5;exitDx=0;exitDy=0;entryX=1;entryY=0.5;entryDx=0;entryDy=0;" parent="1" source="347" target="334" edge="1">
                    <mxGeometry relative="1" as="geometry"/>
                </mxCell>
                <mxCell id="347" value="Add to scene" style="ellipse;whiteSpace=wrap;html=1;fillColor=#1ba1e2;fontColor=#ffffff;strokeColor=#006EAF;" parent="1" vertex="1">
                    <mxGeometry x="-3360" y="-7277" width="96" height="60" as="geometry"/>
                </mxCell>
                <mxCell id="359" value="Popups&amp;nbsp;&lt;br&gt;Implementation" style="rounded=1;whiteSpace=wrap;html=1;strokeWidth=2;fontSize=35;" parent="1" vertex="1">
                    <mxGeometry x="-6260" y="-8042" width="380" height="131" as="geometry"/>
                </mxCell>
                <mxCell id="360" value="&lt;div style=&quot;background-color: rgb(21, 21, 21); font-family: Consolas, &amp;quot;Courier New&amp;quot;, monospace; font-size: 14px; line-height: 19px;&quot;&gt;&lt;div style=&quot;line-height: 19px;&quot;&gt;&lt;div style=&quot;line-height: 19px;&quot;&gt;&lt;div style=&quot;line-height: 19px;&quot;&gt;&lt;div style=&quot;&quot;&gt;&lt;div style=&quot;color: rgb(204, 204, 204); line-height: 19px;&quot;&gt;Widget&lt;/div&gt;&lt;/div&gt;&lt;/div&gt;&lt;/div&gt;&lt;/div&gt;&lt;/div&gt;" style="rounded=1;whiteSpace=wrap;html=1;fontSize=15;fillColor=#f0a30a;fontColor=#000000;strokeColor=#BD7000;align=center;" parent="1" vertex="1">
                    <mxGeometry x="-5872" y="-7854" width="90" height="74" as="geometry"/>
                </mxCell>
                <mxCell id="367" style="edgeStyle=none;html=1;exitX=0;exitY=1;exitDx=0;exitDy=0;entryX=1;entryY=1;entryDx=0;entryDy=0;strokeWidth=3;startArrow=none;startFill=0;endArrow=classicThin;endFill=1;" parent="1" source="361" target="364" edge="1">
                    <mxGeometry relative="1" as="geometry"/>
                </mxCell>
                <mxCell id="369" value="Return options mesh object" style="edgeLabel;html=1;align=center;verticalAlign=middle;resizable=0;points=[];" parent="367" vertex="1" connectable="0">
                    <mxGeometry x="0.232" y="1" relative="1" as="geometry">
                        <mxPoint x="64" y="12" as="offset"/>
                    </mxGeometry>
                </mxCell>
                <mxCell id="361" value="Options Creation" style="ellipse;whiteSpace=wrap;html=1;fillColor=#1ba1e2;fontColor=#ffffff;strokeColor=#006EAF;" parent="1" vertex="1">
                    <mxGeometry x="-5863" y="-7727" width="96" height="60" as="geometry"/>
                </mxCell>
                <mxCell id="365" style="edgeStyle=none;html=1;exitX=1;exitY=0.5;exitDx=0;exitDy=0;entryX=0;entryY=0.5;entryDx=0;entryDy=0;strokeWidth=3;startArrow=none;startFill=0;endArrow=classicThin;endFill=1;" parent="1" source="363" target="370" edge="1">
                    <mxGeometry relative="1" as="geometry"/>
                </mxCell>
                <mxCell id="363" value="&lt;div style=&quot;background-color: rgb(21, 21, 21); font-family: Consolas, &amp;quot;Courier New&amp;quot;, monospace; font-size: 14px; line-height: 19px;&quot;&gt;&lt;div style=&quot;line-height: 19px;&quot;&gt;&lt;div style=&quot;line-height: 19px;&quot;&gt;&lt;div style=&quot;line-height: 19px;&quot;&gt;&lt;div style=&quot;&quot;&gt;&lt;div style=&quot;color: rgb(204, 204, 204); line-height: 19px;&quot;&gt;Popup&lt;/div&gt;&lt;/div&gt;&lt;/div&gt;&lt;/div&gt;&lt;/div&gt;&lt;/div&gt;" style="rounded=1;whiteSpace=wrap;html=1;fontSize=15;fillColor=#f0a30a;fontColor=#000000;strokeColor=#BD7000;align=center;" parent="1" vertex="1">
                    <mxGeometry x="-6460" y="-7854" width="90" height="74" as="geometry"/>
                </mxCell>
                <mxCell id="364" value="&lt;div style=&quot;background-color: rgb(21, 21, 21); font-family: Consolas, &amp;quot;Courier New&amp;quot;, monospace; font-size: 14px; line-height: 19px;&quot;&gt;&lt;div style=&quot;line-height: 19px;&quot;&gt;&lt;div style=&quot;line-height: 19px;&quot;&gt;&lt;div style=&quot;line-height: 19px;&quot;&gt;&lt;div style=&quot;&quot;&gt;&lt;div style=&quot;color: rgb(204, 204, 204); line-height: 19px;&quot;&gt;Children buffer&lt;/div&gt;&lt;/div&gt;&lt;/div&gt;&lt;/div&gt;&lt;/div&gt;&lt;/div&gt;" style="rounded=1;whiteSpace=wrap;html=1;fontSize=15;fillColor=#f0a30a;fontColor=#000000;strokeColor=#BD7000;align=center;" parent="1" vertex="1">
                    <mxGeometry x="-6460" y="-7772" width="90" height="74" as="geometry"/>
                </mxCell>
                <mxCell id="368" value="Has state" style="text;html=1;strokeColor=none;fillColor=none;align=center;verticalAlign=middle;whiteSpace=wrap;rounded=0;" parent="1" vertex="1">
                    <mxGeometry x="-5782" y="-7732" width="60" height="30" as="geometry"/>
                </mxCell>
                <mxCell id="374" style="edgeStyle=none;html=1;exitX=0.5;exitY=1;exitDx=0;exitDy=0;entryX=0.5;entryY=0;entryDx=0;entryDy=0;strokeWidth=3;startArrow=none;startFill=0;endArrow=classicThin;endFill=1;" parent="1" source="370" target="329" edge="1">
                    <mxGeometry relative="1" as="geometry"/>
                </mxCell>
                <mxCell id="370" value="Create popup" style="ellipse;whiteSpace=wrap;html=1;fillColor=#1ba1e2;fontColor=#ffffff;strokeColor=#006EAF;" parent="1" vertex="1">
                    <mxGeometry x="-6291" y="-7847" width="96" height="60" as="geometry"/>
                </mxCell>
                <mxCell id="372" value="Find existing gfx buffers&lt;br&gt;OR&lt;br&gt;create ones" style="ellipse;whiteSpace=wrap;html=1;fillColor=#1ba1e2;fontColor=#ffffff;strokeColor=#006EAF;" parent="1" vertex="1">
                    <mxGeometry x="-6300.5" y="-7656" width="115" height="95" as="geometry"/>
                </mxCell>
                <mxCell id="376" value="&lt;div style=&quot;background-color: rgb(21, 21, 21); font-family: Consolas, &amp;quot;Courier New&amp;quot;, monospace; font-size: 14px; line-height: 19px;&quot;&gt;&lt;div style=&quot;line-height: 19px;&quot;&gt;&lt;div style=&quot;line-height: 19px;&quot;&gt;&lt;div style=&quot;line-height: 19px;&quot;&gt;&lt;div style=&quot;&quot;&gt;&lt;div style=&quot;color: rgb(204, 204, 204); line-height: 19px;&quot;&gt;Children buffer&lt;/div&gt;&lt;/div&gt;&lt;/div&gt;&lt;/div&gt;&lt;/div&gt;&lt;/div&gt;" style="rounded=1;whiteSpace=wrap;html=1;fontSize=15;fillColor=#f0a30a;fontColor=#000000;strokeColor=#BD7000;align=center;verticalAlign=top;" parent="1" vertex="1">
                    <mxGeometry x="-6516.75" y="-7078.25" width="415.5" height="124" as="geometry"/>
                </mxCell>
                <mxCell id="377" value="&lt;div style=&quot;background-color: rgb(21, 21, 21); font-family: Consolas, &amp;quot;Courier New&amp;quot;, monospace; font-size: 14px; line-height: 19px;&quot;&gt;&lt;div style=&quot;line-height: 19px;&quot;&gt;&lt;div style=&quot;line-height: 19px;&quot;&gt;&lt;div style=&quot;line-height: 19px;&quot;&gt;&lt;div style=&quot;&quot;&gt;&lt;div style=&quot;color: rgb(204, 204, 204); line-height: 19px;&quot;&gt;option 1&lt;/div&gt;&lt;/div&gt;&lt;/div&gt;&lt;/div&gt;&lt;/div&gt;&lt;/div&gt;" style="rounded=1;whiteSpace=wrap;html=1;fontSize=15;fillColor=#008a00;fontColor=#ffffff;strokeColor=#005700;align=center;" parent="1" vertex="1">
                    <mxGeometry x="-6507.5" y="-7040.25" width="88" height="46.5" as="geometry"/>
                </mxCell>
                <mxCell id="383" style="edgeStyle=none;html=1;exitX=0.5;exitY=1;exitDx=0;exitDy=0;entryX=0.5;entryY=0;entryDx=0;entryDy=0;strokeWidth=3;startArrow=none;startFill=0;endArrow=classicThin;endFill=1;" parent="1" source="378" target="382" edge="1">
                    <mxGeometry relative="1" as="geometry"/>
                </mxCell>
                <mxCell id="378" value="&lt;div style=&quot;background-color: rgb(21, 21, 21); font-family: Consolas, &amp;quot;Courier New&amp;quot;, monospace; font-size: 14px; line-height: 19px;&quot;&gt;&lt;div style=&quot;line-height: 19px;&quot;&gt;&lt;div style=&quot;line-height: 19px;&quot;&gt;&lt;div style=&quot;line-height: 19px;&quot;&gt;&lt;div style=&quot;&quot;&gt;&lt;div style=&quot;color: rgb(204, 204, 204); line-height: 19px;&quot;&gt;option 2&lt;br&gt;&lt;/div&gt;&lt;/div&gt;&lt;/div&gt;&lt;/div&gt;&lt;/div&gt;&lt;/div&gt;" style="rounded=1;whiteSpace=wrap;html=1;fontSize=15;fillColor=#008a00;fontColor=#ffffff;strokeColor=#005700;align=center;" parent="1" vertex="1">
                    <mxGeometry x="-6411.5" y="-7040.25" width="90" height="48" as="geometry"/>
                </mxCell>
                <mxCell id="397" style="edgeStyle=none;html=1;exitX=0.5;exitY=1;exitDx=0;exitDy=0;entryX=0.5;entryY=0;entryDx=0;entryDy=0;strokeWidth=3;startArrow=none;startFill=0;endArrow=classicThin;endFill=1;" parent="1" source="379" target="391" edge="1">
                    <mxGeometry relative="1" as="geometry"/>
                </mxCell>
                <mxCell id="379" value="&lt;div style=&quot;background-color: rgb(21, 21, 21); font-family: Consolas, &amp;quot;Courier New&amp;quot;, monospace; font-size: 14px; line-height: 19px;&quot;&gt;&lt;div style=&quot;line-height: 19px;&quot;&gt;&lt;div style=&quot;line-height: 19px;&quot;&gt;&lt;div style=&quot;line-height: 19px;&quot;&gt;&lt;div style=&quot;&quot;&gt;&lt;div style=&quot;color: rgb(204, 204, 204); line-height: 19px;&quot;&gt;option 3&lt;br&gt;&lt;/div&gt;&lt;/div&gt;&lt;/div&gt;&lt;/div&gt;&lt;/div&gt;&lt;/div&gt;" style="rounded=1;whiteSpace=wrap;html=1;fontSize=15;fillColor=#008a00;fontColor=#ffffff;strokeColor=#005700;align=center;" parent="1" vertex="1">
                    <mxGeometry x="-6312.5" y="-7040.25" width="90" height="48" as="geometry"/>
                </mxCell>
                <mxCell id="380" value="&lt;div style=&quot;background-color: rgb(21, 21, 21); font-family: Consolas, &amp;quot;Courier New&amp;quot;, monospace; font-size: 14px; line-height: 19px;&quot;&gt;&lt;div style=&quot;line-height: 19px;&quot;&gt;&lt;div style=&quot;line-height: 19px;&quot;&gt;&lt;div style=&quot;line-height: 19px;&quot;&gt;&lt;div style=&quot;&quot;&gt;&lt;div style=&quot;color: rgb(204, 204, 204); line-height: 19px;&quot;&gt;...&lt;/div&gt;&lt;/div&gt;&lt;/div&gt;&lt;/div&gt;&lt;/div&gt;&lt;/div&gt;" style="rounded=1;whiteSpace=wrap;html=1;fontSize=15;fillColor=#008a00;fontColor=#ffffff;strokeColor=#005700;align=center;" parent="1" vertex="1">
                    <mxGeometry x="-6206.5" y="-7040.25" width="90" height="48" as="geometry"/>
                </mxCell>
                <mxCell id="398" style="edgeStyle=none;html=1;entryX=0.5;entryY=0;entryDx=0;entryDy=0;strokeWidth=3;startArrow=none;startFill=0;endArrow=classicThin;endFill=1;" parent="1" source="400" target="376" edge="1">
                    <mxGeometry relative="1" as="geometry"/>
                </mxCell>
                <mxCell id="381" value="&lt;div style=&quot;background-color: rgb(21, 21, 21); font-family: Consolas, &amp;quot;Courier New&amp;quot;, monospace; font-size: 14px; line-height: 19px;&quot;&gt;&lt;div style=&quot;line-height: 19px;&quot;&gt;&lt;div style=&quot;line-height: 19px;&quot;&gt;&lt;div style=&quot;line-height: 19px;&quot;&gt;&lt;div style=&quot;&quot;&gt;&lt;div style=&quot;color: rgb(204, 204, 204); line-height: 19px;&quot;&gt;Main Popup&lt;/div&gt;&lt;/div&gt;&lt;/div&gt;&lt;/div&gt;&lt;/div&gt;&lt;/div&gt;" style="rounded=1;whiteSpace=wrap;html=1;fontSize=15;fillColor=#f0a30a;fontColor=#000000;strokeColor=#BD7000;align=center;" parent="1" vertex="1">
                    <mxGeometry x="-6357" y="-7474" width="90" height="74" as="geometry"/>
                </mxCell>
                <mxCell id="389" style="edgeStyle=none;html=1;exitX=0.5;exitY=1;exitDx=0;exitDy=0;entryX=0.5;entryY=0;entryDx=0;entryDy=0;strokeWidth=3;startArrow=none;startFill=0;endArrow=classicThin;endFill=1;" parent="1" source="415" target="384" edge="1">
                    <mxGeometry relative="1" as="geometry"/>
                </mxCell>
                <mxCell id="382" value="&lt;div style=&quot;background-color: rgb(21, 21, 21); font-family: Consolas, &amp;quot;Courier New&amp;quot;, monospace; font-size: 14px; line-height: 19px;&quot;&gt;&lt;div style=&quot;line-height: 19px;&quot;&gt;&lt;div style=&quot;line-height: 19px;&quot;&gt;&lt;div style=&quot;line-height: 19px;&quot;&gt;&lt;div style=&quot;&quot;&gt;&lt;div style=&quot;color: rgb(204, 204, 204); line-height: 19px;&quot;&gt;Popup lv1&lt;/div&gt;&lt;/div&gt;&lt;/div&gt;&lt;/div&gt;&lt;/div&gt;&lt;/div&gt;" style="rounded=1;whiteSpace=wrap;html=1;fontSize=15;fillColor=#f0a30a;fontColor=#000000;strokeColor=#BD7000;align=center;" parent="1" vertex="1">
                    <mxGeometry x="-6710.5" y="-6837" width="92" height="74.5" as="geometry"/>
                </mxCell>
                <mxCell id="384" value="&lt;div style=&quot;background-color: rgb(21, 21, 21); font-family: Consolas, &amp;quot;Courier New&amp;quot;, monospace; font-size: 14px; line-height: 19px;&quot;&gt;&lt;div style=&quot;line-height: 19px;&quot;&gt;&lt;div style=&quot;line-height: 19px;&quot;&gt;&lt;div style=&quot;line-height: 19px;&quot;&gt;&lt;div style=&quot;&quot;&gt;&lt;div style=&quot;color: rgb(204, 204, 204); line-height: 19px;&quot;&gt;Children buffer&lt;/div&gt;&lt;/div&gt;&lt;/div&gt;&lt;/div&gt;&lt;/div&gt;&lt;/div&gt;" style="rounded=1;whiteSpace=wrap;html=1;fontSize=15;fillColor=#f0a30a;fontColor=#000000;strokeColor=#BD7000;align=center;verticalAlign=top;recursiveResize=0;container=1;dropTarget=1;" parent="1" vertex="1">
                    <mxGeometry x="-6775" y="-6558" width="221" height="124" as="geometry"/>
                </mxCell>
                <mxCell id="385" value="&lt;div style=&quot;background-color: rgb(21, 21, 21); font-family: Consolas, &amp;quot;Courier New&amp;quot;, monospace; font-size: 14px; line-height: 19px;&quot;&gt;&lt;div style=&quot;line-height: 19px;&quot;&gt;&lt;div style=&quot;line-height: 19px;&quot;&gt;&lt;div style=&quot;line-height: 19px;&quot;&gt;&lt;div style=&quot;&quot;&gt;&lt;div style=&quot;color: rgb(204, 204, 204); line-height: 19px;&quot;&gt;option 1&lt;/div&gt;&lt;/div&gt;&lt;/div&gt;&lt;/div&gt;&lt;/div&gt;&lt;/div&gt;" style="rounded=1;whiteSpace=wrap;html=1;fontSize=15;fillColor=#008a00;fontColor=#ffffff;strokeColor=#005700;align=center;" parent="384" vertex="1">
                    <mxGeometry x="11" y="44.25" width="88" height="46.5" as="geometry"/>
                </mxCell>
                <mxCell id="388" value="&lt;div style=&quot;background-color: rgb(21, 21, 21); font-family: Consolas, &amp;quot;Courier New&amp;quot;, monospace; font-size: 14px; line-height: 19px;&quot;&gt;&lt;div style=&quot;line-height: 19px;&quot;&gt;&lt;div style=&quot;line-height: 19px;&quot;&gt;&lt;div style=&quot;line-height: 19px;&quot;&gt;&lt;div style=&quot;&quot;&gt;&lt;div style=&quot;color: rgb(204, 204, 204); line-height: 19px;&quot;&gt;...&lt;/div&gt;&lt;/div&gt;&lt;/div&gt;&lt;/div&gt;&lt;/div&gt;&lt;/div&gt;" style="rounded=1;whiteSpace=wrap;html=1;fontSize=15;fillColor=#008a00;fontColor=#ffffff;strokeColor=#005700;align=center;" parent="384" vertex="1">
                    <mxGeometry x="113" y="42.75" width="90" height="48" as="geometry"/>
                </mxCell>
                <mxCell id="390" style="edgeStyle=none;html=1;exitX=0.5;exitY=1;exitDx=0;exitDy=0;entryX=0.5;entryY=0;entryDx=0;entryDy=0;strokeWidth=3;startArrow=none;startFill=0;endArrow=classicThin;endFill=1;" parent="1" source="412" target="392" edge="1">
                    <mxGeometry relative="1" as="geometry"/>
                </mxCell>
                <mxCell id="391" value="&lt;div style=&quot;background-color: rgb(21, 21, 21); font-family: Consolas, &amp;quot;Courier New&amp;quot;, monospace; font-size: 14px; line-height: 19px;&quot;&gt;&lt;div style=&quot;line-height: 19px;&quot;&gt;&lt;div style=&quot;line-height: 19px;&quot;&gt;&lt;div style=&quot;line-height: 19px;&quot;&gt;&lt;div style=&quot;&quot;&gt;&lt;div style=&quot;color: rgb(204, 204, 204); line-height: 19px;&quot;&gt;Popup lv1&lt;/div&gt;&lt;/div&gt;&lt;/div&gt;&lt;/div&gt;&lt;/div&gt;&lt;/div&gt;" style="rounded=1;whiteSpace=wrap;html=1;fontSize=15;fillColor=#f0a30a;fontColor=#000000;strokeColor=#BD7000;align=center;" parent="1" vertex="1">
                    <mxGeometry x="-6338" y="-6851" width="92" height="74.5" as="geometry"/>
                </mxCell>
                <mxCell id="392" value="&lt;div style=&quot;background-color: rgb(21, 21, 21); font-family: Consolas, &amp;quot;Courier New&amp;quot;, monospace; font-size: 14px; line-height: 19px;&quot;&gt;&lt;div style=&quot;line-height: 19px;&quot;&gt;&lt;div style=&quot;line-height: 19px;&quot;&gt;&lt;div style=&quot;line-height: 19px;&quot;&gt;&lt;div style=&quot;&quot;&gt;&lt;div style=&quot;color: rgb(204, 204, 204); line-height: 19px;&quot;&gt;Children buffer&lt;/div&gt;&lt;/div&gt;&lt;/div&gt;&lt;/div&gt;&lt;/div&gt;&lt;/div&gt;" style="rounded=1;whiteSpace=wrap;html=1;fontSize=15;fillColor=#f0a30a;fontColor=#000000;strokeColor=#BD7000;align=center;verticalAlign=top;recursiveResize=0;container=1;dropTarget=1;" parent="1" vertex="1">
                    <mxGeometry x="-6401.5" y="-6563" width="219" height="124" as="geometry"/>
                </mxCell>
                <mxCell id="393" value="&lt;div style=&quot;background-color: rgb(21, 21, 21); font-family: Consolas, &amp;quot;Courier New&amp;quot;, monospace; font-size: 14px; line-height: 19px;&quot;&gt;&lt;div style=&quot;line-height: 19px;&quot;&gt;&lt;div style=&quot;line-height: 19px;&quot;&gt;&lt;div style=&quot;line-height: 19px;&quot;&gt;&lt;div style=&quot;&quot;&gt;&lt;div style=&quot;color: rgb(204, 204, 204); line-height: 19px;&quot;&gt;option 1&lt;/div&gt;&lt;/div&gt;&lt;/div&gt;&lt;/div&gt;&lt;/div&gt;&lt;/div&gt;" style="rounded=1;whiteSpace=wrap;html=1;fontSize=15;fillColor=#008a00;fontColor=#ffffff;strokeColor=#005700;align=center;" parent="392" vertex="1">
                    <mxGeometry x="11" y="44.25" width="88" height="46.5" as="geometry"/>
                </mxCell>
                <mxCell id="396" value="&lt;div style=&quot;background-color: rgb(21, 21, 21); font-family: Consolas, &amp;quot;Courier New&amp;quot;, monospace; font-size: 14px; line-height: 19px;&quot;&gt;&lt;div style=&quot;line-height: 19px;&quot;&gt;&lt;div style=&quot;line-height: 19px;&quot;&gt;&lt;div style=&quot;line-height: 19px;&quot;&gt;&lt;div style=&quot;&quot;&gt;&lt;div style=&quot;color: rgb(204, 204, 204); line-height: 19px;&quot;&gt;...&lt;/div&gt;&lt;/div&gt;&lt;/div&gt;&lt;/div&gt;&lt;/div&gt;&lt;/div&gt;" style="rounded=1;whiteSpace=wrap;html=1;fontSize=15;fillColor=#008a00;fontColor=#ffffff;strokeColor=#005700;align=center;" parent="392" vertex="1">
                    <mxGeometry x="112" y="43.5" width="90" height="48" as="geometry"/>
                </mxCell>
                <mxCell id="399" value="&lt;div style=&quot;background-color: rgb(21, 21, 21); font-family: Consolas, &amp;quot;Courier New&amp;quot;, monospace; font-size: 14px; line-height: 19px;&quot;&gt;&lt;div style=&quot;line-height: 19px;&quot;&gt;&lt;div style=&quot;line-height: 19px;&quot;&gt;&lt;div style=&quot;line-height: 19px;&quot;&gt;&lt;div style=&quot;&quot;&gt;&lt;div style=&quot;color: rgb(204, 204, 204); line-height: 19px;&quot;&gt;Reusable vertex buffers&lt;/div&gt;&lt;/div&gt;&lt;/div&gt;&lt;/div&gt;&lt;/div&gt;&lt;/div&gt;" style="rounded=1;whiteSpace=wrap;html=1;fontSize=15;fillColor=#1ba1e2;fontColor=#ffffff;strokeColor=#006EAF;align=center;verticalAlign=top;recursiveResize=0;dropTarget=1;container=1;" parent="1" vertex="1">
                    <mxGeometry x="-5900" y="-6714.5" width="128.25" height="437" as="geometry"/>
                </mxCell>
                <mxCell id="402" value="&lt;div style=&quot;background-color: rgb(21, 21, 21); font-family: Consolas, &amp;quot;Courier New&amp;quot;, monospace; font-size: 14px; line-height: 19px;&quot;&gt;&lt;div style=&quot;line-height: 19px;&quot;&gt;&lt;div style=&quot;line-height: 19px;&quot;&gt;&lt;div style=&quot;line-height: 19px;&quot;&gt;&lt;div style=&quot;&quot;&gt;&lt;div style=&quot;color: rgb(204, 204, 204); line-height: 19px;&quot;&gt;vbIdx&lt;/div&gt;&lt;/div&gt;&lt;/div&gt;&lt;/div&gt;&lt;/div&gt;&lt;/div&gt;" style="rounded=1;whiteSpace=wrap;html=1;fontSize=15;fillColor=#008a00;fontColor=#ffffff;strokeColor=#005700;align=center;" parent="399" vertex="1">
                    <mxGeometry x="34.13" y="61" width="60" height="47.25" as="geometry"/>
                </mxCell>
                <mxCell id="404" value="&lt;div style=&quot;background-color: rgb(21, 21, 21); font-family: Consolas, &amp;quot;Courier New&amp;quot;, monospace; font-size: 14px; line-height: 19px;&quot;&gt;&lt;div style=&quot;line-height: 19px;&quot;&gt;&lt;div style=&quot;line-height: 19px;&quot;&gt;&lt;div style=&quot;line-height: 19px;&quot;&gt;&lt;div style=&quot;&quot;&gt;&lt;div style=&quot;color: rgb(204, 204, 204); line-height: 19px;&quot;&gt;vbIdx&lt;/div&gt;&lt;/div&gt;&lt;/div&gt;&lt;/div&gt;&lt;/div&gt;&lt;/div&gt;" style="rounded=1;whiteSpace=wrap;html=1;fontSize=15;fillColor=#008a00;fontColor=#ffffff;strokeColor=#005700;align=center;" parent="399" vertex="1">
                    <mxGeometry x="34.11999999999989" y="115" width="60" height="47.25" as="geometry"/>
                </mxCell>
                <mxCell id="405" value="&lt;div style=&quot;background-color: rgb(21, 21, 21); font-family: Consolas, &amp;quot;Courier New&amp;quot;, monospace; font-size: 14px; line-height: 19px;&quot;&gt;&lt;div style=&quot;line-height: 19px;&quot;&gt;&lt;div style=&quot;line-height: 19px;&quot;&gt;&lt;div style=&quot;line-height: 19px;&quot;&gt;&lt;div style=&quot;&quot;&gt;&lt;div style=&quot;color: rgb(204, 204, 204); line-height: 19px;&quot;&gt;vbIdx&lt;/div&gt;&lt;/div&gt;&lt;/div&gt;&lt;/div&gt;&lt;/div&gt;&lt;/div&gt;" style="rounded=1;whiteSpace=wrap;html=1;fontSize=15;fillColor=#008a00;fontColor=#ffffff;strokeColor=#005700;align=center;" parent="399" vertex="1">
                    <mxGeometry x="34.11999999999989" y="174" width="60" height="47.25" as="geometry"/>
                </mxCell>
                <mxCell id="406" value="&lt;div style=&quot;background-color: rgb(21, 21, 21); font-family: Consolas, &amp;quot;Courier New&amp;quot;, monospace; font-size: 14px; line-height: 19px;&quot;&gt;&lt;div style=&quot;line-height: 19px;&quot;&gt;&lt;div style=&quot;line-height: 19px;&quot;&gt;&lt;div style=&quot;line-height: 19px;&quot;&gt;&lt;div style=&quot;&quot;&gt;&lt;div style=&quot;color: rgb(204, 204, 204); line-height: 19px;&quot;&gt;vbIdx&lt;/div&gt;&lt;/div&gt;&lt;/div&gt;&lt;/div&gt;&lt;/div&gt;&lt;/div&gt;" style="rounded=1;whiteSpace=wrap;html=1;fontSize=15;fillColor=#008a00;fontColor=#ffffff;strokeColor=#005700;align=center;" parent="399" vertex="1">
                    <mxGeometry x="34.11999999999989" y="233" width="60" height="47.25" as="geometry"/>
                </mxCell>
                <mxCell id="407" value="&lt;div style=&quot;background-color: rgb(21, 21, 21); font-family: Consolas, &amp;quot;Courier New&amp;quot;, monospace; font-size: 14px; line-height: 19px;&quot;&gt;&lt;div style=&quot;line-height: 19px;&quot;&gt;&lt;div style=&quot;line-height: 19px;&quot;&gt;&lt;div style=&quot;line-height: 19px;&quot;&gt;&lt;div style=&quot;&quot;&gt;&lt;div style=&quot;color: rgb(204, 204, 204); line-height: 19px;&quot;&gt;vbIdx&lt;/div&gt;&lt;/div&gt;&lt;/div&gt;&lt;/div&gt;&lt;/div&gt;&lt;/div&gt;" style="rounded=1;whiteSpace=wrap;html=1;fontSize=15;fillColor=#008a00;fontColor=#ffffff;strokeColor=#005700;align=center;" parent="399" vertex="1">
                    <mxGeometry x="34.11999999999989" y="292" width="60" height="47.25" as="geometry"/>
                </mxCell>
                <mxCell id="408" value="&lt;div style=&quot;background-color: rgb(21, 21, 21); font-family: Consolas, &amp;quot;Courier New&amp;quot;, monospace; font-size: 14px; line-height: 19px;&quot;&gt;&lt;div style=&quot;line-height: 19px;&quot;&gt;&lt;div style=&quot;line-height: 19px;&quot;&gt;&lt;div style=&quot;line-height: 19px;&quot;&gt;&lt;div style=&quot;&quot;&gt;&lt;div style=&quot;color: rgb(204, 204, 204); line-height: 19px;&quot;&gt;...&lt;/div&gt;&lt;/div&gt;&lt;/div&gt;&lt;/div&gt;&lt;/div&gt;&lt;/div&gt;" style="rounded=1;whiteSpace=wrap;html=1;fontSize=15;fillColor=#008a00;fontColor=#ffffff;strokeColor=#005700;align=center;" parent="399" vertex="1">
                    <mxGeometry x="34.11999999999989" y="355" width="60" height="47.25" as="geometry"/>
                </mxCell>
                <mxCell id="411" style="edgeStyle=none;html=1;exitX=1;exitY=0.5;exitDx=0;exitDy=0;entryX=0;entryY=0;entryDx=0;entryDy=0;strokeWidth=3;startArrow=none;startFill=0;endArrow=classicThin;endFill=1;" parent="1" source="400" target="399" edge="1">
                    <mxGeometry relative="1" as="geometry"/>
                </mxCell>
                <mxCell id="414" style="edgeStyle=none;html=1;exitX=1;exitY=0.5;exitDx=0;exitDy=0;entryX=0;entryY=0;entryDx=0;entryDy=0;strokeWidth=3;startArrow=none;startFill=0;endArrow=classicThin;endFill=1;" parent="1" source="412" target="399" edge="1">
                    <mxGeometry relative="1" as="geometry"/>
                </mxCell>
                <mxCell id="417" style="edgeStyle=none;html=1;entryX=0;entryY=0;entryDx=0;entryDy=0;strokeWidth=3;startArrow=none;startFill=0;endArrow=classicThin;endFill=1;" parent="1" source="415" target="399" edge="1">
                    <mxGeometry relative="1" as="geometry"/>
                </mxCell>
                <mxCell id="419" value="Options are created by the clicked mesh.&lt;br&gt;via the menu_options buffer that has the callback to the options creation&amp;nbsp;" style="text;html=1;strokeColor=none;fillColor=none;align=center;verticalAlign=middle;whiteSpace=wrap;rounded=0;" parent="1" vertex="1">
                    <mxGeometry x="-6576" y="-7382" width="224" height="67" as="geometry"/>
                </mxCell>
                <mxCell id="420" value="Searcth in a buffer of vbidx's.&lt;br&gt;&lt;div style=&quot;&quot;&gt;&lt;span style=&quot;background-color: initial;&quot;&gt;Must be inactive.&lt;/span&gt;&lt;/div&gt;Must match the popup sid" style="text;html=1;strokeColor=none;fillColor=none;align=left;verticalAlign=middle;whiteSpace=wrap;rounded=0;" parent="1" vertex="1">
                    <mxGeometry x="-6252" y="-7257.5" width="166" height="71.5" as="geometry"/>
                </mxCell>
                <mxCell id="422" value="" style="edgeStyle=none;html=1;entryX=0.5;entryY=0;entryDx=0;entryDy=0;strokeWidth=3;startArrow=none;startFill=0;endArrow=none;endFill=1;" parent="1" source="381" target="418" edge="1">
                    <mxGeometry relative="1" as="geometry">
                        <mxPoint x="-6311.530985915493" y="-7400" as="sourcePoint"/>
                        <mxPoint x="-6307.5" y="-7082" as="targetPoint"/>
                    </mxGeometry>
                </mxCell>
                <mxCell id="418" value="GetOptions&lt;br&gt;Callback function" style="ellipse;whiteSpace=wrap;html=1;fillColor=#1ba1e2;fontColor=#ffffff;strokeColor=#006EAF;" parent="1" vertex="1">
                    <mxGeometry x="-6357" y="-7358" width="96" height="60" as="geometry"/>
                </mxCell>
                <mxCell id="423" value="" style="edgeStyle=none;html=1;entryX=0.5;entryY=0;entryDx=0;entryDy=0;strokeWidth=3;startArrow=none;startFill=0;endArrow=none;endFill=1;" parent="1" source="418" target="400" edge="1">
                    <mxGeometry relative="1" as="geometry">
                        <mxPoint x="-6309" y="-7298" as="sourcePoint"/>
                        <mxPoint x="-6307.5" y="-7082" as="targetPoint"/>
                    </mxGeometry>
                </mxCell>
                <mxCell id="400" value="Find vbidx" style="ellipse;whiteSpace=wrap;html=1;fillColor=#1ba1e2;fontColor=#ffffff;strokeColor=#006EAF;" parent="1" vertex="1">
                    <mxGeometry x="-6357" y="-7241" width="96" height="60" as="geometry"/>
                </mxCell>
                <mxCell id="425" value="" style="edgeStyle=none;html=1;exitX=0.5;exitY=1;exitDx=0;exitDy=0;entryX=0.5;entryY=0;entryDx=0;entryDy=0;strokeWidth=3;startArrow=none;startFill=0;endArrow=none;endFill=1;" parent="1" source="426" target="415" edge="1">
                    <mxGeometry relative="1" as="geometry">
                        <mxPoint x="-6664.5" y="-6762.5" as="sourcePoint"/>
                        <mxPoint x="-6664.5" y="-6558" as="targetPoint"/>
                    </mxGeometry>
                </mxCell>
                <mxCell id="415" value="Find vbidx" style="ellipse;whiteSpace=wrap;html=1;fillColor=#1ba1e2;fontColor=#ffffff;strokeColor=#006EAF;" parent="1" vertex="1">
                    <mxGeometry x="-6714.5" y="-6659" width="96" height="60" as="geometry"/>
                </mxCell>
                <mxCell id="427" value="" style="edgeStyle=none;html=1;exitX=0.5;exitY=1;exitDx=0;exitDy=0;entryX=0.5;entryY=0;entryDx=0;entryDy=0;strokeWidth=3;startArrow=none;startFill=0;endArrow=none;endFill=1;" parent="1" source="382" target="426" edge="1">
                    <mxGeometry relative="1" as="geometry">
                        <mxPoint x="-6664.5" y="-6762.5" as="sourcePoint"/>
                        <mxPoint x="-6666.5" y="-6659" as="targetPoint"/>
                    </mxGeometry>
                </mxCell>
                <mxCell id="426" value="GetOptions&lt;br&gt;Callback function" style="ellipse;whiteSpace=wrap;html=1;fillColor=#1ba1e2;fontColor=#ffffff;strokeColor=#006EAF;" parent="1" vertex="1">
                    <mxGeometry x="-6710.5" y="-6747" width="96" height="60" as="geometry"/>
                </mxCell>
                <mxCell id="431" value="" style="edgeStyle=none;html=1;exitX=0.5;exitY=1;exitDx=0;exitDy=0;entryX=0.5;entryY=0;entryDx=0;entryDy=0;strokeWidth=3;startArrow=none;startFill=0;endArrow=none;endFill=1;" parent="1" source="391" target="430" edge="1">
                    <mxGeometry relative="1" as="geometry">
                        <mxPoint x="-6292" y="-6776.5" as="sourcePoint"/>
                        <mxPoint x="-6292" y="-6563" as="targetPoint"/>
                    </mxGeometry>
                </mxCell>
                <mxCell id="430" value="GetOptions&lt;br&gt;Callback function" style="ellipse;whiteSpace=wrap;html=1;fillColor=#1ba1e2;fontColor=#ffffff;strokeColor=#006EAF;" parent="1" vertex="1">
                    <mxGeometry x="-6342" y="-6751" width="96" height="60" as="geometry"/>
                </mxCell>
                <mxCell id="433" value="" style="edgeStyle=none;html=1;exitX=0.5;exitY=1;exitDx=0;exitDy=0;entryX=0.5;entryY=0;entryDx=0;entryDy=0;strokeWidth=3;startArrow=none;startFill=0;endArrow=none;endFill=1;" parent="1" source="430" target="412" edge="1">
                    <mxGeometry relative="1" as="geometry">
                        <mxPoint x="-6294" y="-6691" as="sourcePoint"/>
                        <mxPoint x="-6292" y="-6563" as="targetPoint"/>
                    </mxGeometry>
                </mxCell>
                <mxCell id="412" value="Find vbidx" style="ellipse;whiteSpace=wrap;html=1;fillColor=#1ba1e2;fontColor=#ffffff;strokeColor=#006EAF;" parent="1" vertex="1">
                    <mxGeometry x="-6342" y="-6657" width="96" height="60" as="geometry"/>
                </mxCell>
                <mxCell id="434" value="Event Listener&lt;br&gt;Dispatch&lt;br&gt;Implementation" style="rounded=1;whiteSpace=wrap;html=1;strokeWidth=2;fontSize=35;" vertex="1" parent="1">
                    <mxGeometry x="-6496" y="-10132" width="384" height="154" as="geometry"/>
                </mxCell>
                <mxCell id="440" value="Clbk" style="ellipse;whiteSpace=wrap;html=1;fillColor=#1ba1e2;fontColor=#ffffff;strokeColor=#006EAF;" vertex="1" parent="1">
                    <mxGeometry x="-6209" y="-9942" width="96" height="60" as="geometry"/>
                </mxCell>
                <mxCell id="441" value="&lt;div style=&quot;background-color: rgb(21, 21, 21); font-family: Consolas, &amp;quot;Courier New&amp;quot;, monospace; font-size: 14px; line-height: 19px;&quot;&gt;&lt;div style=&quot;line-height: 19px;&quot;&gt;&lt;div style=&quot;line-height: 19px;&quot;&gt;&lt;div style=&quot;line-height: 19px;&quot;&gt;&lt;div style=&quot;&quot;&gt;&lt;div style=&quot;color: rgb(204, 204, 204); line-height: 19px;&quot;&gt;source_params&lt;/div&gt;&lt;/div&gt;&lt;/div&gt;&lt;/div&gt;&lt;/div&gt;&lt;/div&gt;" style="rounded=1;whiteSpace=wrap;html=1;fontSize=15;fillColor=#008a00;fontColor=#ffffff;strokeColor=#005700;align=center;" vertex="1" parent="1">
                    <mxGeometry x="-6213" y="-9861" width="118" height="42" as="geometry"/>
                </mxCell>
                <mxCell id="442" value="&lt;div style=&quot;background-color: rgb(21, 21, 21); font-family: Consolas, &amp;quot;Courier New&amp;quot;, monospace; font-size: 14px; line-height: 19px;&quot;&gt;&lt;div style=&quot;line-height: 19px;&quot;&gt;&lt;div style=&quot;line-height: 19px;&quot;&gt;&lt;div style=&quot;line-height: 19px;&quot;&gt;&lt;div style=&quot;&quot;&gt;&lt;div style=&quot;color: rgb(204, 204, 204); line-height: 19px;&quot;&gt;target_params&lt;/div&gt;&lt;/div&gt;&lt;/div&gt;&lt;/div&gt;&lt;/div&gt;&lt;/div&gt;" style="rounded=1;whiteSpace=wrap;html=1;fontSize=15;fillColor=#008a00;fontColor=#ffffff;strokeColor=#005700;align=center;" vertex="1" parent="1">
                    <mxGeometry x="-6213" y="-9810" width="120" height="41" as="geometry"/>
                </mxCell>
                <mxCell id="444" value="&lt;div style=&quot;background-color: rgb(21, 21, 21); font-family: Consolas, &amp;quot;Courier New&amp;quot;, monospace; font-size: 14px; line-height: 19px;&quot;&gt;&lt;div style=&quot;line-height: 19px;&quot;&gt;&lt;div style=&quot;line-height: 19px;&quot;&gt;&lt;div style=&quot;line-height: 19px;&quot;&gt;&lt;div style=&quot;&quot;&gt;&lt;div style=&quot;color: rgb(204, 204, 204); line-height: 19px;&quot;&gt;EventListener(Clbk, source_params, target_params)&lt;/div&gt;&lt;/div&gt;&lt;/div&gt;&lt;/div&gt;&lt;/div&gt;&lt;/div&gt;" style="rounded=1;whiteSpace=wrap;html=1;fontSize=15;fillColor=#f0a30a;fontColor=#000000;strokeColor=#BD7000;align=center;" vertex="1" parent="1">
                    <mxGeometry x="-6685" y="-9864" width="420" height="65" as="geometry"/>
                </mxCell>
                <mxCell id="445" value="&lt;h1&gt;&lt;div style=&quot;color: rgb(204, 204, 204); background-color: rgb(21, 21, 21); font-family: Consolas, &amp;quot;Courier New&amp;quot;, monospace; font-weight: normal; font-size: 14px; line-height: 19px;&quot;&gt;&lt;div&gt;&amp;nbsp; &amp;nbsp;&lt;span style=&quot;color: #17daf0;&quot;&gt;AddEvent&lt;/span&gt;(&lt;span style=&quot;color: #aff0ff;&quot;&gt;TYPE_IDX&lt;/span&gt;, &lt;span style=&quot;color: #aff0ff;&quot;&gt;Clbk&lt;/span&gt; &lt;span style=&quot;color: #d4d4d4;&quot;&gt;=&lt;/span&gt; &lt;span style=&quot;color: #00bbff;&quot;&gt;null&lt;/span&gt;, &lt;span style=&quot;color: #aff0ff;&quot;&gt;source_params&lt;/span&gt; &lt;span style=&quot;color: #d4d4d4;&quot;&gt;=&lt;/span&gt; &lt;span style=&quot;color: #00bbff;&quot;&gt;null&lt;/span&gt;, &lt;span style=&quot;color: #aff0ff;&quot;&gt;target_params&lt;/span&gt; &lt;span style=&quot;color: #d4d4d4;&quot;&gt;=&lt;/span&gt; &lt;span style=&quot;color: #00bbff;&quot;&gt;null&lt;/span&gt;) {&lt;/div&gt;&lt;div&gt;&lt;br&gt;&lt;/div&gt;&lt;div&gt;&amp;nbsp; &amp;nbsp; &amp;nbsp; &lt;span style=&quot;color: #00bbff;&quot;&gt;const&lt;/span&gt; &lt;span style=&quot;color: #dbb20f;&quot;&gt;params&lt;/span&gt; &lt;span style=&quot;color: #d4d4d4;&quot;&gt;=&lt;/span&gt; {&lt;/div&gt;&lt;div&gt;&amp;nbsp; &amp;nbsp; &amp;nbsp; &amp;nbsp; &amp;nbsp;&lt;span style=&quot;color: #ffffff;&quot;&gt;type&lt;/span&gt;&lt;span style=&quot;color: #9cdcfe;&quot;&gt;:&lt;/span&gt; &lt;span style=&quot;color: #aff0ff;&quot;&gt;TYPE_IDX&lt;/span&gt;,&lt;/div&gt;&lt;div&gt;&amp;nbsp; &amp;nbsp; &amp;nbsp; &amp;nbsp; &amp;nbsp;&lt;span style=&quot;color: #ffffff;&quot;&gt;Clbk&lt;/span&gt;&lt;span style=&quot;color: #9cdcfe;&quot;&gt;:&lt;/span&gt; &lt;span style=&quot;color: #aff0ff;&quot;&gt;Clbk&lt;/span&gt;,&lt;/div&gt;&lt;div&gt;&amp;nbsp; &amp;nbsp; &amp;nbsp; &amp;nbsp; &amp;nbsp;&lt;span style=&quot;color: #ffffff;&quot;&gt;source_params&lt;/span&gt;&lt;span style=&quot;color: #9cdcfe;&quot;&gt;:&lt;/span&gt; &lt;span style=&quot;color: #aff0ff;&quot;&gt;source_params&lt;/span&gt;,&lt;/div&gt;&lt;div&gt;&amp;nbsp; &amp;nbsp; &amp;nbsp; &amp;nbsp; &amp;nbsp;&lt;span style=&quot;color: #ffffff;&quot;&gt;target_params&lt;/span&gt;&lt;span style=&quot;color: #9cdcfe;&quot;&gt;:&lt;/span&gt; &lt;span style=&quot;color: #aff0ff;&quot;&gt;target_params&lt;/span&gt;,&lt;/div&gt;&lt;div&gt;&amp;nbsp; &amp;nbsp; &amp;nbsp; }&lt;/div&gt;&lt;div&gt;&amp;nbsp; &amp;nbsp; &amp;nbsp;&amp;nbsp;&lt;/div&gt;&lt;div&gt;&amp;nbsp; &amp;nbsp; &amp;nbsp; &lt;span style=&quot;color: #569cd6;&quot;&gt;this&lt;/span&gt;.&lt;span style=&quot;color: #ffffff;&quot;&gt;event_type&lt;/span&gt;[&lt;span style=&quot;color: #aff0ff;&quot;&gt;TYPE_IDX&lt;/span&gt;].&lt;span style=&quot;color: #0582ff;&quot;&gt;Add&lt;/span&gt;(&lt;span style=&quot;color: #dbb20f;&quot;&gt;params&lt;/span&gt;);&lt;/div&gt;&lt;div&gt;&amp;nbsp; &amp;nbsp;}&lt;/div&gt;&lt;/div&gt;&lt;/h1&gt;" style="text;html=1;strokeColor=none;fillColor=none;spacing=5;spacingTop=-20;whiteSpace=wrap;overflow=hidden;rounded=0;" vertex="1" parent="1">
                    <mxGeometry x="-6738" y="-9683" width="627" height="218" as="geometry"/>
                </mxCell>
                <mxCell id="446" value="&lt;h1&gt;&lt;div style=&quot;color: rgb(204, 204, 204); background-color: rgb(21, 21, 21); font-family: Consolas, &amp;quot;Courier New&amp;quot;, monospace; font-weight: normal; font-size: 14px; line-height: 19px;&quot;&gt;&lt;div style=&quot;line-height: 19px;&quot;&gt;&lt;span style=&quot;color: #00bbff;&quot;&gt;const&lt;/span&gt; &lt;span style=&quot;color: #dbb20f;&quot;&gt;success&lt;/span&gt; &lt;span style=&quot;color: #d4d4d4;&quot;&gt;=&lt;/span&gt; &lt;span style=&quot;color: #569cd6;&quot;&gt;this&lt;/span&gt;.&lt;span style=&quot;color: #ffffff;&quot;&gt;event_type&lt;/span&gt;[&lt;span style=&quot;color: #aff0ff;&quot;&gt;TYPE_IDX&lt;/span&gt;].&lt;span style=&quot;color: #ffffff;&quot;&gt;buffer&lt;/span&gt;[&lt;span style=&quot;color: #ebebeb;&quot;&gt;i&lt;/span&gt;].&lt;span style=&quot;color: #0582ff;&quot;&gt;Clbk&lt;/span&gt;(&lt;span style=&quot;color: #dbb20f;&quot;&gt;params&lt;/span&gt;);&lt;/div&gt;&lt;/div&gt;&lt;/h1&gt;" style="text;html=1;strokeColor=none;fillColor=none;spacing=5;spacingTop=-20;whiteSpace=wrap;overflow=hidden;rounded=0;" vertex="1" parent="1">
                    <mxGeometry x="-6733" y="-9408" width="510.5" height="25" as="geometry"/>
                </mxCell>
            </root>
        </mxGraphModel>
    </diagram>
</mxfile>